<?xml version="1.0" encoding="utf-8"?>
<!-- Generator: Adobe Illustrator 18.1.1, SVG Export Plug-In . SVG Version: 6.00 Build 0)  -->
<svg version="1.1" id="Layer_1" xmlns="http://www.w3.org/2000/svg" xmlns:xlink="http://www.w3.org/1999/xlink" x="0px" y="0px"
	 viewBox="0 0 250 250" enable-background="new 0 0 250 250" xml:space="preserve">
<g id="XMLID_1_">
	<g>
		<path fill="#666666" d="M243,142.2c0.8,0.4,1.1,1.2,1.1,2.1c0,0.1,0,0.1,0,0.2c0,0.3-0.2,0.6-0.4,0.9c-0.3,0.5-1,0.8-1.5,0.9
			c-0.6,0.1-1.3-0.2-1.8-0.5c-0.7-0.5-1.3-1-2.1-1.3c-0.4-0.1-0.8-0.2-1.1-0.2c-0.3,0-0.6-0.2-0.9-0.3c-0.7-0.2-1.4-0.4-2.1-0.4
			c-0.2,0-0.2-0.2-0.1-0.3c0.8-0.4,1.7-0.7,2.6-0.9c1-0.2,2-0.5,3.1-0.5c0.6,0,1.2,0.1,1.8,0.1C242.1,141.9,242.5,141.9,243,142.2z"
			/>
		<path fill="#666666" d="M235.9,149.2c-1.5-1.9-2.8-2.5-5.1-4.1c-0.2-0.1,0-0.3,0.1-0.3c4.2,1.2,6.7,1.2,10.6,6.1
			c0.8,0.9,0.6,2.3-0.3,3.1c-0.3,0.3-0.7,0.5-1.1,0.6c-0.6,0-1.1-0.3-1.6-0.6c-0.5-0.3-0.7-0.9-0.8-1.4
			C237,150.6,236.2,149.7,235.9,149.2z"/>
		<path fill="#666666" d="M222,115.4c0.4,0,1.6,2.7,1.8,3.1c0.5,1.2,0.8,1.2,2,1.3c1.2,0.1,1.1,0.8,2.7,1.4c0.6,0.2,0.9,0.6,1.4,1
			c0.8,0.7,1.3,1.1,0.9,2.2c-0.3,1.1,0,2.5,0,3.7c0.1,2.4,0.2,2.7,0.1,3.3c-0.1,0.3-0.4,0.7-0.7,0.5c-1.5-1.2-3.1-2.5-4.8-3.2
			c-1.2-0.6-1.6-1.1-2.1-2.3c-0.2-0.4-0.4-1.1-0.4-1.3c-0.2-1.8,0.3-2.4,0.7-4.1c0,0,0-0.1,0.1-0.1c-3.4-6.5-3.2-4.7-7.4-10.9
			c0-0.1-0.1-0.1-0.1-0.2c1,9.1,2.6,12.2,1.5,21.1c0.5,0.3,1.2,1.2,1.9,2.2c3.6-1.9,9.3,5.7,7.6,8.8c-0.1,0.2-0.2,0.2-0.2,0.3
			c-0.1,0.1-0.2,0.1-0.3,0.2c-0.6,0.2-0.9,0-2.2-0.7c-1-0.5-1-0.7-2.6-1.5c-0.6-0.3-2.6-1.1-3-3.1c-0.2-1.2,0.3-1.7,0.3-2.1
			c0-0.5-0.2-1-0.5-1.3c-0.1-0.1-1.2-1-1.2-1.1c-0.6,4.1-1.1,6-1.1,6.9c0,1.1-0.3,1.9-0.9,5.5c2.2,0.8,4.3,7.6-0.9,13.1
			c-0.1,0.1-0.3,0.1-0.4,0.1c-0.4-0.3-0.2,0-0.6-0.5c-0.6-0.8-0.7-1.2-1-1.9c-1.2-2.5-1.8-4.7-0.8-7.2c0.5-1.3,1.5-3.3,2.9-3.5
			c0.1,0,0.2-2.3,0.2-2.5c0.3-3.1,0.7-3,1.6-9.1c0.1-0.7,0.1-1.4,0.2-2.1c0.2-1.3,0.4-4.4,0.3-7.1c-2.7,1.4-3.4,3-5.2,4.9
			c0.1,0.2-0.1,1.3-0.1,1.5c0.1,1.4-0.1,2-1.2,3.5c-0.4,0.5-0.4,0.5-0.9,0.9c-0.2,0.2-0.4,0.3-0.6,0.5c-1.6,1-3.4,1.1-4.5,1.3
			c-1.1,0.2-1,0.1-2.1,0.6c-0.2,0.1-0.4-0.1-0.3-0.3c0.6-2.2-0.1-3.5,1.9-5.6c1.1-1,1.8-1.2,3.2-1.6c2-0.6,3-1.3,4.1-1.1
			c0.5-0.8,0.5-0.9,1.4-1.9c-2.4-0.5-3.1-0.3-4.3-1.3c-1.4-1.2-1.7-2.8-3.1-4.1c-0.1-0.1-0.4-0.2-0.5-0.4c-0.3-0.2,0.2-0.8,0.5-1.1
			c1-0.5,3.1-0.3,4.2-0.2c1,0.1,2.4,0.7,3,1.2c0.6,0.5,1.7,2.3,1.9,3.9c1-0.8,1.6-1.1,2.5-1.5c0.1,0,0.1,0,0.2,0
			c-0.5-6.2-3.2-15-2.2-21.8c0.2-1.1,0.4-1.2,0.2-3.9c-0.2-1.2-0.3-1.7-0.7-2.8c-0.5-1.8-0.3-1.1-1.1-3.2c-3.8,3.8-3.7,3-7.5,7.8
			l0,0.1c0-0.2,0.2-0.3,0.4-0.4c0.3,0,0.6,0,0.9,0.1c1.7,0.5,3.3,2.9,3.7,4.1c0.1,0.2,0.4,1.3,0.4,1.5c0.1,0.2,0.1,0.5,0.1,0.8
			c0.2,1.5,0.1,0.9,0.2,1.5c0,0.5,0.1,1.1,0,2.3c0,0.4-0.7,0.6-0.9,0.1c-0.5-1.4-2.6-2-4.3-3.1c-0.8-0.6-1.3-1.1-1.8-2.1
			c-0.3-0.7-0.6-1.6-0.5-2.5c-0.5,0.7-1.5,2.3-2.2,3.9c1,0.7,1.8,2.7,1.4,5.4c-0.3,1.6-0.2,1.2-1.8,4.1c-0.3,0.5-0.9,1.6-1.1,2.1
			c0,0.4-0.5,0.5-0.7,0.2c-0.8-1.6-0.6-1.9-1.3-3.3c-1.5-2.9-1.8-3.3-1.6-4.8c0.3-2.2,2.4-4.9,4.5-4.1c0.6-1.7,1.4-3.2,2.3-4.7
			c-1.8,0.7-4.7-0.3-5.9-1.6c-1.7-1.9-1.5-1.9-3.2-2.8c-0.8-0.4,0-1.5,0.8-2c2.1-1.2,6.2-1.4,8.3,0.5c0.9,0.9,1.8,2.3,1.8,3.6
			c1.8-2,3.4-3.2,4.2-4.2c0.2-0.2,0.4-0.5,0.6-0.7c0.3-0.3,1.6-1.5,3-2.7c-0.4-1.1-2-4.8-2-4.8c-0.2-0.6-0.4-1.1-0.6-1.7
			c-0.6-1.3-2-4-3.8-7c-0.1,0-0.1,0-0.2,0.1c-1.2,0.8-2.1,1.2-2.2,2.7c0,0.5,0.2,0.9,0.3,1.3c0.1,0.5,0.1,1,0.1,1.5
			c-0.1,1.1-0.4,2.2-1,3.1c-1.2,1.7-3.6,2-5.5,2.6c-0.2,0.1-0.5,0.2-0.7,0.2c-0.1,0-0.3,0.1-0.4,0.1c-0.1,0-0.1,0.1-0.2,0.2
			c-0.2,0.1-0.6,0-0.8-0.2c-0.4-0.3,0-0.9,0-1.3c0.1-0.3,0.1-0.7,0.1-1c0-0.8,0.1-1.7,0.3-2.5c0,0,0-0.1,0-0.1
			c0.1-0.2,0.2-0.5,0.3-0.7c1.7-3.5,4.7-5.3,6.5-4.3c0.7-1.3,1.6-2.5,2.9-2.9c-3.5-5.7-3.3-3.9-6-8.1c-0.3-0.6-0.4-0.9-0.4-0.9
			c-0.1-0.1,0-0.2,0.1-0.3c0.1-0.1,0.2,0,0.3,0.1c0,0,0.2,0.3,0.4,0.9c3,4.2,2.7,2.2,7.8,9.9c0.4,0.5,1.5,2.4,2.1,3.6
			c0.2,0.4,2.5,0.8,3,1c1,0.3,2,0.7,2.9,1c1.5,0.5,2.7,0.8,3.1-1.1c0.2-0.7,0.5-1.6,1.1-2c0.7-0.6,1.4-0.2,2.1-0.4
			c1-0.3,1.9-1.2,2.9-1.6c1.1-0.4,2.2-0.8,3.3-1c0.3-0.1,0.5,0.1,0.6,0.4c0.2,0.6,0,1-0.2,1.9c-1.4,6.9-3.8,5.3-7,6.6
			c1.1,0.6,2.8,1.6,3.2,1.9c0.4,0.2,0.8,0.4,1.1,0.7c1.1,0.7,3,2.6,3.9,3.6c0.8-0.5,1.5-0.3,2.6-0.1c1.5,0.3,2.3,0.6,3,1
			c0.7,0.4,0.5,0.3,1,0.7c0.8,0.8,1,1.6,1.2,2.6c0,0.3,0.1,1.2,0.1,1.6c-0.1,0.9,0,0.4-0.2,1.6c-0.1,0.6-0.6,1.7-0.7,2.4
			c-0.4,1.5-0.2,1-0.6,2c0,0.1-0.1,0.1-0.1,0.2c-0.1,0.1-0.3,0.1-0.4-0.1c-1.8-2.9-5.8-2.9-7-7.5c-0.4-1.5-0.2-2.5,0.2-3.7
			c0.1-0.1,0.1-0.2,0.2-0.3c-0.8-0.7-1.9-1.7-2.9-2.2c-0.9-0.5-1.6-1.1-2.3-1.6c0.2,0.3,0.6,1.2,0.9,2.5c0.4,1.3,0.4,2.4,0.3,3.7
			c-0.4,3.4-3.8,6.9-4,5.9c-1-3.4-4.5-6.6-2.1-11.5c0.2-0.5,1.1-1.8,2.1-2.2c-3.6-1.9-7.3-3.5-10.9-4.9c1.7,4,0.4,0.4,2.8,6.3
			c0.6,1.5,1.4,3.9,1.6,4.6c0.7,2.7,0.8,2.6,1,5c0,0.4,0,2,0,2.1c0.1,2.5-0.3,3.1,0.1,7.5c0.1,0.6,1.1,1.6,1.4,2
			c0.5,0.6,1,1.2,1.5,1.8c0.8,0.9,2,1.2,2.6-0.2c0.3-0.7,0.6-1.3,0.9-2c0.3-0.9,0.2-1.5,1.3-1.7c1.7-0.3,3.2-1.2,4.9-1.6
			c0.2,0,0.3,0,0.4,0.2c0.5,0.8,0.7,1.8,0.6,2.7c-0.1,1.6-0.8,3.8-2.3,4.7C224.5,115.7,223.4,115.1,222,115.4z M200,117.2
			C200,117.1,200,117.1,200,117.2C200,117.1,200,117.1,200,117.2z M236.9,99.9c0.1-1.6,0-0.8,0-1.6c0-0.5-0.3-2.1-0.7-2.6
			c-0.1-0.3-0.5-0.7-0.7-0.9c-0.8-0.5-0.2-0.3-3-1.3c-0.4-0.1-1.2-0.4-1.6-0.2c0,0-0.1,0-0.1,0.1c1.3,1.6,1.6,2.6,2.1,3.4
			c0.2,0.3-0.3,0.5-0.4,0.2c-0.4-0.9-1-1.9-2.1-3.2c0,0,0,0-0.1,0c-1,1.9-0.3,4.3,1,5.8c1.3,1.5,3.5,2.2,4.9,3.9
			c0.1-0.3,0.2-1,0.2-1.3C236.5,101.8,236.5,101.7,236.9,99.9z M230.3,131.2c0.1-0.3,0-0.9,0-1.3c-0.1-0.4-0.1-0.8-0.2-1.8
			c-0.1-1.1,0-0.5-0.5-2.9l0,0c-0.4-1.6-1-2.8-2.6-3.6c-0.7-0.3-1.5-0.7-2.2-0.7c0,0,0,0,0,0c1,2.6,1.6,3.4,2.3,4.5
			c0.1,0.2-0.2,0.5-0.4,0.2c-1.7-2.9-0.8-1.3-2.5-4.2c-0.3,1.5-0.5,2.1-0.3,3.2c0.3,0.8,0.6,0.9,1,1.5c0.2,0.2,0.3,0.4,0.5,0.6
			c0.4,0.5,0.2,0.3,0.7,0.8c0,0,1.5,1.4,2.4,2.1l0.7,0.5L230.3,131.2z M226.9,113.5c1.9-1.1,2.3-4.8,1.4-6.1
			c-1.2,0.5-2.8,1.4-4.3,2.6c-1.2,1.1-2.3,2.3-2.7,4c1.4-0.8,2.6-1.8,4.1-3.1c0.1-0.1,0.3-0.1,0.4,0c0.1,0.1,0.1,0.3,0,0.4
			c-1.6,1.4-2.4,2.3-3.6,3.3C224.1,114.2,224.5,115.2,226.9,113.5z M227.9,79.5c0-0.3,0.1-0.5,0.1-0.8c-2.5,0.7-8.2,3.1-8.4,6.4
			c0,0,0,0,0,0c2.7-2.1,1.8-1.4,4.8-3.5c0.2-0.1,0.4,0.1,0.2,0.3c-2.6,2.4-1.8,1.6-3.8,3.8c0.1,0.1,0.2,0.1,0.4,0.2
			c2-0.9,4.9-0.6,5.8-2.5C227.7,81.8,227.7,81.2,227.9,79.5z M226.6,141.1c0.5-2.2-4.1-7.8-6.4-7.1c0,0,0,0,0,0.1
			c0.7,1.2,0.8,1.2,1.4,1.9c0.2,0.2-0.1,0.5-0.3,0.3c-0.5-0.4-0.5-0.4-1.1-1.1c-0.3,0.8-0.3,1.4,0.2,2.2c0.3,0.5,1.5,1.6,2,1.9
			c0.6,0.4,1.2,0.5,2.6,1.6c0.5,0.4,0.8,0.7,1.3,0.8c0,0,0.1,0,0.1,0c0,0,0,0,0.1,0c0,0,0,0,0,0
			C226.4,141.5,226.5,141.5,226.6,141.1z M224.5,95c0.1-0.8,0-0.4,0-1.1c0.1-2-1.2-5-1.8-5.5c-0.2,0.4-0.3,1-0.3,1.4
			c-0.2,3.7-0.3,3.1-0.1,4.3c0,0.3-0.4,0.3-0.4,0.1c-0.1-0.8,0,0-0.1-1c-0.1-1.1,0-1.4-0.1-2.2c-0.1-1.1-0.2-1.7-0.1-2.6
			c-0.7,0.6-1.6,2.6-1.8,3.1c-1.4,3.2,0.7,5.9,1.8,9.2C222.8,99.9,224.4,96.6,224.5,95z M214.3,157.3c3.4-4.1,2.1-10.3,0.9-11.2
			c-0.3,2.4-0.3,3.8-0.3,3.8c0,0.4-0.5,0.3-0.5,0c0.1-0.7,0-2.3,0.1-3.9c-0.8,0.5-1.6,2.2-1.9,3.9c-0.1,0.5-0.1,0.9-0.1,1.2
			c0.1,1.3-0.2,1.6,0.4,3.4C213.5,156,213.8,157,214.3,157.3z M212.7,125.9L212.7,125.9c-1.2-1-2.6-2.3-3.8-3.2
			c-0.2-0.2,0-0.5,0.2-0.4c2.3,1.5,2.6,1.8,4.1,2.8c-0.2-1-1.2-3.2-2.1-3.6c-0.2-0.1-0.5-0.2-0.7-0.3c-1.3-0.5-3.2-1.4-4.5-1.1
			c-0.4,0.1-0.8,0.2-0.9,0.5c1.6,0.7,2.6,3.2,4.9,4.4C210.3,125.2,210.6,125.4,212.7,125.9z M210.5,108.1c0-0.5,0-1.4-0.1-1.7
			c-0.3-1.4-0.2-1.1-0.6-2.1c-0.2-0.6,0-0.2-0.4-0.9c-0.3-0.6-2-3-3.4-3.5c-0.1,0-0.2-0.1-0.2-0.1c0.5,1.1,1.4,2.2,2,3.5
			c0.1,0.2,0.2,0.6,0.3,0.8c0.1,0.2-0.3,0.4-0.4,0.2c-0.9-1.8-2.1-2.6-2.9-3.9c0,0,0,0,0,0c0,0,0,0.1,0,0.1
			c-0.2,1.1-0.1,0.5-0.2,1.4c0,0.8,0.1,0.8,0.3,1.3c0.7,1.6,1.4,2.3,2.7,3.1C208.5,106.8,209.8,107.4,210.5,108.1z M208.9,134.1
			c1-1.1,1.4-2,1.4-3.7c-1,1.1-1.5,1.5-2.4,2.2c-0.2,0.1-0.3,0-0.4-0.1c-0.1-0.1-0.1-0.3,0.1-0.4c0.5-0.4,1.4-0.9,2.6-2.5
			c-0.6,0.1-1.4,0.6-2.9,1c-1.8,0.4-2.3,0.6-3.3,1.3c-1.4,1.4-1.1,2.6-1.4,4.5c2-0.8,4.1-0.6,5.8-1.9
			C208.5,134.4,208.8,134.3,208.9,134.1z M203.8,98.4c0-1.1-0.9-2.2-1.7-2.9c-1.6-1.2-5.7-1.1-6.9,0c0.9,0.6,1.4,1.8,2.6,3.1
			c1.1,1,3.2,1.6,4.6,1.2c0.4-0.1,0.7-0.2,1-0.4c0,0,0.1-0.1,0.1-0.1c-1.2-0.6-2.6-2.1-4.8-2.6c-0.3-0.1-0.1-0.5,0.2-0.4
			c0,0,0.4,0.2,0.9,0.4C201.9,97.3,202.7,98.1,203.8,98.4z M203,84.3c0.5-1.2,0.8-2.9,0.2-4.1c-1.4,1.9-1.7,2.5-2.8,3.6
			c-0.2,0.1-0.4-0.1-0.2-0.3c0.4-0.4,0.8-0.9,1.1-1.4c0.3-0.4,0-1.1,0.4-1.5c0.2-0.1,0.4-0.1,0.5-0.2c0.1-0.1,0.5-0.8,0.5-0.9
			c-0.7-0.4-1.5-0.1-2.1,0.3c-1.7,1-2.4,2.7-3.1,4.6c0,0-0.1,0.3-0.1,0.7c-0.3,1.7-0.6,1.2-0.9,3.2c0.7-0.4,2.7-1,4-1.5
			C201.5,86.2,202.3,85.8,203,84.3z M201.9,112.2c0.4-1.9,0.4-3.8-0.8-5.3c-0.1,0.4-0.5,1.4-0.6,2.2c-0.1,0.3-0.6,0.2-0.5-0.1
			c0,0,0-0.1,0.1-0.3c0.2-0.8,0-0.3,0.5-2.4c-0.7-0.7-1.9-0.1-2.6,2.2c-0.3,1.1-0.3,1.6-0.3,2.1c0.2,1.2,0.1,1,1.1,3.2
			c0.5,1.3,0.6,2.1,0.9,2.6C200.2,115.5,201.8,112.7,201.9,112.2z"/>
		<path fill="#666666" d="M235.6,131.4c1,0.4,1.5,1.4,1.3,2.4c-0.1,0.6-0.2,1.1-0.5,2c-0.1,0.4-0.5,1.2-0.8,1.7
			c-0.6,0.9-0.9,1.2-1.2,1.6c-0.4,0.4-0.8,1-1.3,1.6c0,0,0,0.1,0,0c-1.2,1-1.1,0.8-2.2,1.8c-0.1,0.1-0.3,0-0.2-0.2
			c0.6-1.4,0.6-1.1,1.3-2.5c0,0,0,0,0,0c0.2-0.4,0.2-0.5,0.3-1c0.4-1.5,0.5-1.5,0.7-2.5c0.1-0.8,0.1-1.7-0.1-2.1
			c-0.2-0.8-0.1-1.6,0.4-2.3c0.5-0.6,1.3-0.9,2-0.7C235.3,131.3,235.4,131.4,235.6,131.4z"/>
		<path fill="#8CC63F" d="M236.9,98.3c0,0.9,0.1,0.1,0,1.6c-0.4,1.8-0.4,1.9-0.5,2.3c0,0.3-0.1,1-0.2,1.3c-1.4-1.7-3.6-2.4-4.9-3.9
			c-1.4-1.5-2-3.9-1-5.8c0,0,0,0,0.1,0c1.2,1.3,1.8,2.3,2.1,3.2c0.1,0.3,0.6,0.1,0.4-0.2c-0.5-0.8-0.8-1.8-2.1-3.4
			c0,0,0.1,0,0.1-0.1c0.3-0.2,1.2,0,1.6,0.2c2.7,1.1,2.1,0.8,3,1.3c0.2,0.2,0.6,0.6,0.7,0.9C236.6,96.2,236.9,97.8,236.9,98.3z"/>
		<path fill="#666666" d="M233.4,157.8c0.6,5.9-6.9,12.7-12,14.9c2,0.1,4.1,0.7,5.4,2.3c0.2,0.2,0.4,0.5,0.5,0.7
			c0.3,0.7,0.2,0.4,0.3,0.8c0.2,0.7,0.1,0.4,0.2,0.8c0,0.3,0,0.5,0,0.8c-0.1,0.6,0,0.3-0.2,1.1c-0.1,0.6-0.3,1.2-0.7,1.7
			c-1.8,3-6.5,2.2-6.8-0.6c-0.1-0.6,0-0.9,0.1-1.4c0-0.3,0.3-0.5,0.6-0.4c0.3,0.1,0.6,0.4,0.4,0.8c-2.1,4.2,6.5,4.7,5.4-0.4
			c0-0.2-0.1-0.4-0.2-0.6c-2.2-5.3-9-3.3-14.7-3.4c-0.2,0-0.3-0.2-0.1-0.4c1.1-1,8.4-2.5,15.5-11.3c0.6-0.8,2.9-3.8,3.6-5.8
			c0.2-0.7,0.1-0.1,0.3-1.3l0,0.1c0-1.6,0-1-0.1-1.6c0-0.2,0-0.4-0.1-0.6c-0.4-1-0.2-0.5-0.5-1.1c-0.8-1.4-2.6-2.2-4.2-1.9
			c-0.4,0-0.8,0.2-1.1,0.3c-0.2,0.1-0.3,0.2-0.5,0.2c-1.8,0.9-3.5,3.3-3.2,5.6c0.1,0.9,0.5,1.3,0.9,1.6c0.5,0.2,0.1,0.1,0.5,0.2
			c0,0,0.1,0,0.1,0c0.2,0,0.4,0.1,0.6,0c1-0.1,2.3-0.7,2.1-1.6c-0.1-0.1-0.1-0.2-0.1-0.3c0,0-0.1-0.1-0.1-0.2c0-0.1-0.2-0.1-0.2-0.1
			c-0.2-0.1-0.4-0.3-0.5-0.7c0-0.2,0-0.3,0.1-0.4c0,0,0.1-0.1,0.1-0.1c0.4-0.3,1,0.3,1.3,0.7c0.1,0.1,0.2,0.3,0.2,0.4
			c0,0.1,0.1,0.2,0.1,0.3c0.4,2.3-2.7,3.1-4,2.5c-0.4-0.2-0.4-0.2-0.9-0.5c-1.3-1.1-1-3.6-0.2-5c0.5-0.8,0.1-0.3,1-1.4
			c0.1-0.1,0.7-0.8,0.9-0.8c0.7-0.5,0.6-0.5,1-0.7c0.2-0.1,0.4-0.2,0.6-0.2c0.4-0.1,0.8-0.2,1.2-0.2c0.4-0.1,0.8,0,1.3,0
			c0.2,0,0.4,0.1,0.6,0.1c0.2,0,0.4,0.1,0.6,0.2c0.4,0.1,0.8,0.3,1.2,0.5c0.2,0.1,0.4,0.2,0.6,0.4c0.2,0.1,0.4,0.3,0.5,0.4
			c0.5,0.5,0.1-0.1,1,1.1c0.1,0.2,0.7,1.1,0.8,1.3c0.3,0.8,0.3,0.6,0.4,0.9C233.4,157.3,233.3,157.1,233.4,157.8z"/>
		<path fill="#8CC63F" d="M230.3,129.9c0.1,0.4,0.2,1,0,1.3l-1.2-0.8l-0.7-0.5c-0.9-0.7-2.4-2.1-2.4-2.1c-0.5-0.6-0.3-0.4-0.7-0.8
			c-0.2-0.2-0.3-0.4-0.5-0.6c-0.4-0.6-0.7-0.7-1-1.5c-0.2-1.2-0.1-1.7,0.3-3.2c1.8,2.8,0.8,1.3,2.5,4.2c0.1,0.2,0.5,0,0.4-0.2
			c-0.7-1.1-1.3-1.9-2.3-4.5c0,0,0,0,0,0c0.8,0,1.6,0.3,2.2,0.7c1.6,0.8,2.2,2,2.6,3.6l0,0c0.4,2.4,0.3,1.8,0.5,2.9
			C230.2,129.1,230.2,129.5,230.3,129.9z"/>
		<path fill="#8CC63F" d="M228.4,107.4c0.9,1.3,0.4,5-1.4,6.1c-2.5,1.7-2.8,0.8-4.7,1.1c1.2-1,2-1.8,3.6-3.3c0.1-0.1,0.1-0.3,0-0.4
			c-0.1-0.1-0.3-0.1-0.4,0c-1.5,1.3-2.6,2.3-4.1,3.1c0.4-1.8,1.5-3,2.7-4C225.6,108.8,227.2,107.9,228.4,107.4z"/>
		<path fill="#8CC63F" d="M228,78.8c0,0.2-0.1,0.5-0.1,0.8c-0.2,1.7-0.2,2.3-0.9,3.8c-0.9,2-3.8,1.6-5.8,2.5
			c-0.1-0.1-0.2-0.1-0.4-0.2c2-2.1,1.2-1.3,3.8-3.8c0.2-0.2,0-0.4-0.2-0.3c-3,2.1-2.1,1.4-4.8,3.5c0,0,0,0,0,0
			C219.8,81.8,225.5,79.4,228,78.8z"/>
		<path fill="#8CC63F" d="M220.1,134c2.3-0.6,6.9,4.9,6.4,7.1c-0.1,0.4-0.1,0.3-0.3,0.6c0,0,0,0,0,0c0,0,0,0-0.1,0c0,0-0.1,0-0.1,0
			c-0.5-0.1-0.9-0.4-1.3-0.8c-1.3-1.2-1.9-1.2-2.6-1.6c-0.5-0.3-1.7-1.4-2-1.9c-0.5-0.8-0.5-1.4-0.2-2.2c0.6,0.6,0.6,0.6,1.1,1.1
			c0.2,0.2,0.5-0.1,0.3-0.3C220.9,135.3,220.9,135.3,220.1,134C220.1,134,220.1,134,220.1,134z"/>
		<path fill="#8CC63F" d="M224.6,93.9c0,0.7,0,0.3,0,1.1c-0.2,1.7-1.7,4.9-2.7,5.7c-1.1-3.3-3.2-5.9-1.8-9.2
			c0.2-0.5,1.1-2.5,1.8-3.1c-0.1,0.9,0,1.5,0.1,2.6c0.1,0.8,0,1.1,0.1,2.2c0.1,1,0,0.2,0.1,1c0,0.3,0.5,0.2,0.4-0.1
			c-0.2-1.2-0.1-0.6,0.1-4.3c0.1-0.5,0.1-1,0.3-1.4C223.4,88.9,224.6,91.9,224.6,93.9z"/>
		<path fill="#666666" d="M217.1,67c1.6,1.9,3.1,4.5,2.6,7c-0.4,1.9-1.9,4-3.9,4.5c-2,0.5-4.3-0.6-5.8-2.1c-1.6-1.6-2.3-3.5-1.2-5.5
			c1.5-2.8,6-2.6,6.8,0.7c0,0.1,0.1,0.2,0.1,0.2c0.1,0.5-0.2,1.1-0.7,1.2c-0.5,0.1-1.1-0.2-1.2-0.7c0-0.1,0-0.3,0-0.4
			c0,0,0-0.2,0-0.2c0,0,0-0.1,0-0.2c-0.1-0.2-0.2-0.4-0.4-0.6c-0.9-0.8-2.4-0.7-3.2,0c-3.7,3.3,3.6,9.6,7.1,6.5
			c1.3-1.2,2.2-2.7,2-4.4c-0.2-2.3-2.1-4.2-3.9-5.7c-4.2-3.1-5.8-2.3-13.4-7c-4.7-2.9-5.9-3.9-7.4-6c-1.7-2.4-3.1-5.7-1.8-8.3
			c1.1-2.6,4.3-3.7,7.6-1.5c0.3,0.2,0.4,0.4,0.7,0.7c1.6,2.3-1.5,6.2-4.3,3.5c-0.3-0.3-0.2-0.8,0.1-1.1c0.3-0.3,0.8-0.2,1.1,0.1
			c0,0,0.1,0.2,0.4,0.4c1.2,0.8,3.4-1.7,1.3-3.2c-1.8-1.4-4.2-1.8-5.8,0c-0.6,0.8-0.7,1.3-0.9,2.2c0,0,0,0.5,0,0.5
			c-0.1,2.2,1.9,4.7,3.5,6.1c1.8,1.7,3.9,2.2,11.9,6.8C209.6,61.4,214.1,63.3,217.1,67z"/>
		<path fill="#666666" d="M174.5,180.9c-1,0.8-0.8,0.6-2.2,2.5c-0.8,1.1-1.5,1.6-1.8,2.1c1.1,0,4.3-0.1,4.8-0.2
			c1.8-0.6,3.4-1.6,4.2-3.3c-0.5,0.1-1.5,0.3-2.2,0.6c-0.3,0.1-0.5-0.4-0.1-0.4c0,0,0.1,0,0.2-0.1c0.8-0.2,0.2-0.2,2.4-0.8
			c0.2-1-0.9-1.7-3.3-1.1C175.4,180.3,174.9,180.6,174.5,180.9z M170,186.1C170,186.1,170,186.1,170,186.1
			C170,186.1,170,186.1,170,186.1z M218.7,190.9c0.2,0.2,0.2,0.5,0,0.7c-0.4,0.5-0.9,0.5-1.8,0.8c-6.6,2.3-6.6-0.6-9.2-2.8
			c0,1.2,0,3.2-0.1,3.8c0,0.4,0,0.9,0,1.3c-0.1,1.3-0.8,3.9-1.2,5.1c0.9,0.5,1,1.1,1.4,2.2c0.5,1.5,0.6,2.3,0.7,3.1
			c0,0.8,0,0.6-0.2,1.2c-0.3,1.1-0.9,1.6-1.7,2.3c-0.2,0.2-1,0.8-1.4,0.9c-0.8,0.4-0.4,0.2-1.5,0.7c-0.6,0.2-1.8,0.3-2.4,0.6
			c-1.5,0.4-1,0.3-2,0.5c-0.1,0-0.1,0-0.2,0c-0.1-0.1-0.2-0.2-0.1-0.4c1.7-3-0.4-6.4,3-9.8c1.1-1.1,2.1-1.5,3.3-1.7
			c0.1,0,0.2,0,0.3,0.1c0.2-1.1,0.5-2.6,0.5-3.6c0-1,0.2-1.9,0.2-2.8c-0.2,0.3-0.8,1.1-1.7,2c-1,1-1.9,1.5-3,2.1
			c-3.1,1.3-7.8,0.2-7.2-0.5c2.4-2.6,3.5-7.2,8.9-7.6c0.6-0.1,2.1,0.1,2.9,0.7c-0.1-4-0.6-8-1.2-11.9c-2.6,3.5-0.2,0.6-4.1,5.6
			c-1,1.3-2.7,3.2-3.2,3.7c-2,1.9-1.8,2-3.8,3.3c-0.3,0.2-1.7,1-1.8,1c-2.1,1.4-2.9,1.3-6.5,3.8c-0.5,0.3-0.8,1.7-1,2.2
			c-0.3,0.7-0.5,1.4-0.8,2.2c-0.4,1.2,0,2.4,1.5,2.1c0.7-0.1,1.4-0.1,2.1-0.2c1-0.2,1.4-0.6,2.1,0.2c1.1,1.3,2.6,2.2,3.8,3.4
			c0.1,0.1,0.1,0.3,0.1,0.5c-0.4,0.9-1.2,1.5-2,1.9c-1.4,0.8-3.7,1.2-5.2,0.4c-3-1.5-3-2.7-4-3.8c0.2,0.3-1.5,2.8-1.8,3.1
			c-0.8,1.1-0.6,1.2-0.1,2.4c0.6,1.1-0.2,1.4,0.1,3c0.1,0.7,0,1.1-0.2,1.7c-0.2,1.1-0.3,1.6-1.4,1.9c-1.1,0.3-2.2,1.2-3.1,1.8
			c-2.1,1.3-2.2,1.6-2.8,1.7c-0.3,0.1-0.8,0-0.8-0.4c0.2-1.9,0.6-3.9,0.4-5.8c-0.1-1.3,0.1-1.9,0.9-3c0.2-0.4,0.8-0.9,1-1
			c1.5-1.1,2.2-0.9,3.9-1.4c0,0,0.1,0,0.1,0c3.9-6.2,2.5-5.1,5.7-11.9c0-0.1,0.1-0.1,0.1-0.2c-7.4,5.4-9.3,8.3-17.5,11.8
			c-0.1,0.6-0.4,1.7-0.9,2.7c3.4,2.1-0.2,10.9-3.8,11c-0.2,0-0.3,0-0.4,0c-0.1,0-0.2-0.1-0.3-0.1c-0.5-0.4-0.4-0.8-0.5-2.3
			c-0.1-1.1,0.1-1.2,0.1-3c0-0.7-0.3-2.8,1.2-4.2c0.9-0.8,1.6-0.6,2-0.8c0.4-0.2,0.8-0.6,0.9-1.1c0-0.2,0.3-1.5,0.3-1.6
			c-3.9,1.5-5.7,2-6.6,2.5c-0.9,0.5-1.8,0.7-5.2,2c0.4,2.3-4.5,7.5-11.7,5.8c-0.2-0.1-0.2-0.2-0.2-0.3c0.1-0.5-0.1-0.2,0.1-0.8
			c0.4-0.9,0.7-1.1,1.1-1.8c1.6-2.3,3.2-3.9,5.9-4.4c1.4-0.2,3.6-0.3,4.5,0.7c0,0,2.1-1,2.3-1.1c2.9-1.3,2.9-0.8,8.6-3.2
			c0.6-0.3,1.3-0.6,1.9-0.8c1.3-0.4,4.1-1.8,6.3-3.3c-2.6-1.6-4.3-1.5-6.9-2.1c-0.1,0.2-1.2,0.6-1.4,0.7c-1.2,0.8-1.8,0.9-3.6,0.7
			c-0.6-0.1-0.6-0.1-1.2-0.3c-0.3-0.1-0.5-0.2-0.7-0.3c-1.7-0.8-2.6-2.4-3.4-3.3c-0.7-0.8-0.6-0.8-1.6-1.6c-0.2-0.1-0.1-0.4,0.1-0.4
			c2.2-0.5,3-1.9,5.8-1.2c1.4,0.5,1.9,1,3,1.9c1.5,1.4,2.6,1.9,3,3c1,0.1,1,0,2.3,0.2c-0.8-2.3-1.3-2.8-1.1-4.4
			c0.3-1.8,1.6-2.9,2-4.8c0-0.2,0-0.4,0-0.7c0-0.4,0.8-0.3,1.2-0.1c1,0.6,1.8,2.6,2.2,3.6c0.4,0.9,0.6,2.4,0.4,3.2
			c-0.2,0.8-1.2,2.6-2.4,3.6c1.2,0.4,1.8,0.8,2.6,1.4c0,0,0.1,0.1,0.1,0.1c5.2-3.6,11.4-10.3,17.8-12.8c1-0.4,1.3-0.3,3.5-1.8
			c1-0.8,1.3-1.1,2.1-2c1.3-1.3,0.8-0.8,2.2-2.5c-5.2-1.4-4.4-1.8-10.5-2.6l-0.1,0.1c0.2-0.1,0.4,0,0.5,0.1c0.2,0.3,0.3,0.6,0.4,0.9
			c0.4,1.7-0.9,4.4-1.7,5.2c-0.1,0.2-0.9,0.9-1.1,1.1c-0.2,0.2-0.4,0.3-0.6,0.5c-1.2,1-0.8,0.6-1.2,0.9c-0.4,0.3-0.9,0.6-2,1.1
			c-0.4,0.2-0.9-0.3-0.5-0.7c1-1.1,0.4-3.2,0.5-5.2c0.1-1,0.3-1.7,0.9-2.6c0.5-0.6,1.1-1.3,1.9-1.7c-0.9-0.1-2.8-0.2-4.5,0
			c-0.1,1.2-1.4,2.9-4,3.9c-1.5,0.5-1.2,0.4-4.4,0.5c-0.6,0-1.8,0-2.3,0.1c-0.3,0.2-0.7-0.2-0.5-0.5c1-1.5,1.3-1.5,2.2-2.8
			c1.7-2.8,1.9-3.2,3.3-3.8c2.1-0.9,5.5-0.4,5.8,1.9c1.8-0.4,3.5-0.4,5.2-0.3c-1.5-1.2-2.1-4.2-1.6-5.9c0.8-2.5,0.9-2.2,0.8-4.2
			c-0.1-0.8,1.3-0.7,2.1-0.3c2.1,1.2,4.4,4.6,3.8,7.4c-0.3,1.2-1.1,2.7-2.2,3.3c2.7,0.5,4.5,1.3,5.8,1.5c0.3,0.1,0.6,0.1,0.9,0.2
			c0.4,0.1,2.1,0.6,3.8,1.3c0.7-0.9,3.1-4.1,3.2-4.2c0.4-0.5,0.8-0.9,1.1-1.4c0.8-1.2,2.5-3.8,4.2-6.8c0,0-0.1-0.1-0.2-0.2
			c-1.2-0.7-2.1-1.2-3.5-0.6c-0.4,0.2-0.7,0.6-1,0.9c-0.4,0.3-0.8,0.6-1.3,0.9c-1,0.5-2.1,0.8-3.2,0.6c-2.1-0.2-3.6-2.1-5-3.5
			c-0.2-0.2-0.4-0.4-0.6-0.5c-0.1-0.1-0.2-0.2-0.3-0.3c-0.1-0.1-0.1,0-0.2-0.1c-0.2-0.1-0.3-0.6-0.3-0.8c0.1-0.5,0.8-0.5,1.1-0.6
			c0.3-0.1,0.6-0.3,0.9-0.4c0.7-0.4,1.5-0.8,2.3-1c0,0,0.1,0,0.1,0c0.2-0.1,0.5-0.1,0.8-0.1c3.9-0.3,6.9,1.4,7,3.5
			c1.5,0,3,0.2,3.9,1.1c3.2-5.9,1.7-4.8,4-9.2c0.4-0.5,0.6-0.8,0.6-0.8c0.1-0.1,0.2-0.1,0.3-0.1c0.1,0.1,0.1,0.2,0.1,0.3
			c0,0-0.2,0.3-0.5,0.8c-2.1,4.7-0.6,3.4-4.7,11.7c-0.3,0.6-1.4,2.6-2.1,3.6c-0.2,0.3,0.5,2.6,0.6,3.1c0.2,1,0.4,2,0.6,3
			c0.3,1.5,0.6,2.7,2.5,2.2c0.7-0.2,1.6-0.3,2.3-0.1c0.9,0.4,0.9,1.1,1.4,1.6c0.7,0.7,2,1.1,2.9,1.7
			C217.1,189.3,218,190.1,218.7,190.9z M216.5,191.4c0.3-0.1,0.5-0.2,0.7-0.3c-1.8-1.9-6.8-5.6-9.7-4.1v0c3.2,1.3,2.2,0.8,5.4,2.4
			c0.2,0.1,0.1,0.4-0.2,0.4c-3.4-1.1-2.3-0.8-5.2-1.4c0,0.1,0,0.3,0,0.4c1.8,1.2,2.9,4,5.1,3.7C214.4,192.4,214.9,192.1,216.5,191.4
			z M207.1,205.6c0.1-1,0.1-0.3-0.3-3.2c-0.1-0.4-0.3-1.2-0.6-1.4c0,0-0.1,0-0.1,0c-0.7,1.9-1.5,2.7-1.9,3.5c-0.2,0.3-0.6,0-0.4-0.3
			c0.6-0.8,1.2-1.8,1.7-3.5c0,0,0,0-0.1,0c-2.1,0.1-3.9,1.8-4.5,3.8c-0.6,1.9-0.1,4.2-0.9,6.2c0.3-0.1,1-0.4,1.2-0.5
			c0.3-0.1,0.5-0.2,2.2-0.7c1.4-0.7,0.7-0.3,1.4-0.8c0.4-0.2,1.7-1.4,1.9-1.9C206.9,206.4,207.1,205.9,207.1,205.6z M202.4,195.7
			c1.8-1,3.7-3.5,3.9-4.3c-0.5,0-1,0.2-1.4,0.4c-3.3,1.7-2.9,1.3-3.8,2.1c-0.2,0.2-0.5-0.2-0.3-0.3c0.7-0.4,0,0,0.8-0.6
			c0.9-0.6,1.2-0.7,1.8-1.1c0.9-0.6,1.4-1,2.2-1.4c-0.8-0.3-3.1-0.1-3.6,0c-3.5,0.4-4.8,3.6-7.1,6.2c1.2,0.5,4.8,0.2,6.3-0.5
			C202.2,195.9,201.9,196.1,202.4,195.7z M202.8,169.5c0.1,0,1,0,1,0c0-0.8-0.6-1.4-1.3-1.7c-1.7-0.9-3.6-0.7-5.5-0.4
			c0,0-0.3,0.1-0.7,0.2c-1.6,0.6-1.4,0.2-3.2,0.8c0.7,0.5,2.2,1.8,3.3,2.7c1.2,0.9,1.9,1.4,3.6,1.2c1.3-0.1,2.9-0.7,3.6-1.9
			c-2.3-0.2-3-0.2-4.5-0.6c-0.2-0.1-0.1-0.4,0.1-0.3c0.6,0.1,1.2,0.2,1.8,0.2c0.5,0,1-0.6,1.5-0.4
			C202.6,169.2,202.7,169.5,202.8,169.5z M189.8,177.1c0.3-2-1.9-5.5-3.5-6c0,1.1-0.9,2.1-1.3,3.8c-0.3,1.4,0.2,3.6,1.2,4.6
			c0.2,0.3,0.6,0.5,0.9,0.6c0,0,0,0,0,0c0,0,0.1,0,0.1,0c-0.1-1.3,0.5-3.3-0.2-5.5c-0.1-0.3,0.4-0.4,0.4-0.1c0,0,0,0.4,0.1,1
			c0.5,2.3,0.3,3.3,0.5,4.4C189,179.5,189.6,178.1,189.8,177.1z M192.6,205.8c-1-0.8-2.6-1.7-4.4-2.4c-1.6-0.5-3.1-0.8-4.9-0.3
			c1.4,0.8,2.8,1.3,4.7,2c0.1,0,0.2,0.2,0.2,0.3c0,0.1-0.2,0.2-0.4,0.2c-2-0.6-3.2-0.9-4.6-1.5c1.2,1.5,0.6,2.2,3.3,3.5
			C188.5,208.6,191.9,207.2,192.6,205.8z M186.6,187.3c0.3-0.6,1.6-3.2,1.4-4.7c0-0.1,0-0.2,0-0.2c-0.8,1-1.2,2.3-2,3.5
			c-0.1,0.2-0.4,0.5-0.6,0.7c-0.2,0.2-0.5,0-0.3-0.2c1.1-1.7,1.2-3.2,1.9-4.5c0,0,0,0,0,0c0,0-0.1,0.1-0.1,0.1
			c-1.1,0.4-0.5,0.2-1.3,0.5c-0.6,0.4-0.6,0.5-1,0.9c-1,1.4-1.3,2.4-1.3,3.9c0,1.1,0.1,2.5-0.1,3.4c0.4-0.2,1.2-0.7,1.4-0.9
			c1.1-1,0.8-0.7,1.5-1.5C186.3,187.7,186.1,188.1,186.6,187.3z M177.9,215.7c1.1-1.2,1.9-2.3,1.8-4.1c0-0.7-0.2-1.6-0.5-2.2
			c0,0,0,0,0,0c-1.8,2.2-2.2,3.1-2.8,4.3c-0.1,0.2-0.5,0-0.4-0.2c1.7-2.9,0.8-1.4,2.3-4.3c-1.4,0.4-2,0.6-2.9,1.4
			c-0.6,0.7-0.5,1-0.8,1.6c-0.1,0.2-0.2,0.5-0.3,0.8c-0.2,0.6-0.1,0.3-0.4,1c0,0-0.5,2-0.6,3.1l-0.1,0.9l-0.1,1.5
			c0.4,0,0.8-0.4,1.1-0.7c0.3-0.3,0.7-0.5,1.5-1.1C176.5,217,176,217.3,177.9,215.7C177.9,215.8,177.9,215.8,177.9,215.7z
			 M169.8,201.5c0.8-0.7,2.1-2.6,2.1-3.7c0-0.2,0-0.5-0.1-0.8c-0.2-1.4-0.4-3.4-1.3-4.5c-0.2-0.3-0.5-0.6-0.9-0.6
			c0.2,1.7-1.5,3.8-1.4,6.5c0,0.5,0,0.9,0.7,2.9l0.1,0.1c0.2-1.6,0.6-3.4,0.8-4.9c0-0.3,0.5-0.2,0.4,0
			C170,199.4,169.8,199.8,169.8,201.5z M162.5,221.1c2.2-0.7,4.7-7.4,3-9.1c0,0-0.1,0-0.1,0c-0.7,1.3-0.7,1.2-1,2.1
			c-0.1,0.3-0.5,0.2-0.4-0.1c0.1-0.7,0.1-0.7,0.4-1.5c-0.8,0.1-1.4,0.4-1.8,1.2c-0.3,0.5-0.6,2.1-0.7,2.7c-0.1,0.8,0.2,1.3-0.1,3
			c-0.1,0.6-0.2,1.1,0,1.5c0,0,0,0.1,0.1,0.1c0,0,0,0,0,0c0,0,0,0,0,0C162.1,221.2,162.1,221.2,162.5,221.1z M164.2,201.1
			c-0.4-0.4-1.3-0.9-2.3-2c-1.3-1.3-1.6-1.8-2.8-2.2c-1.9-0.5-2.7,0.4-4.6,1c1.7,1.3,2.6,3.3,4.6,4.1c0.2,0.1,0.5,0.2,0.7,0.2
			c1.4,0.3,2.4,0.2,3.9-0.7c-1.5-0.3-2.1-0.5-3.1-1c-0.2-0.1-0.2-0.2-0.1-0.4c0.1-0.1,0.2-0.2,0.4-0.1
			C161.3,200.4,162.2,200.8,164.2,201.1z M152.3,213.1c-0.8-0.4-2.7-0.3-4.3,0.2c-0.5,0.1-0.8,0.4-1.1,0.5c-1.1,0.7-1.4,0.6-2.7,2.1
			c-1,1.2-1.7,2.1-1.8,2.6c5.2,1,10-3.4,10.2-4.8c-2.3,0.9-3.4,1.7-3.4,1.7c-0.3,0.2-0.6-0.3-0.2-0.4
			C149.5,214.7,150.8,213.9,152.3,213.1z"/>
		<path fill="#8CC63F" d="M217.2,191.2c-0.2,0.1-0.5,0.2-0.7,0.3c-1.6,0.7-2.1,0.9-3.8,1.1c-2.2,0.2-3.3-2.5-5.1-3.7
			c0-0.1,0-0.3,0-0.4c2.8,0.7,1.7,0.4,5.2,1.4c0.2,0.1,0.4-0.2,0.2-0.4c-3.3-1.6-2.3-1.1-5.4-2.4v0
			C210.4,185.6,215.4,189.3,217.2,191.2z"/>
		<path fill="#8CC63F" d="M215.2,146c1.1,0.9,2.5,7.2-0.9,11.2c-0.4-0.3-0.8-1.3-1.4-2.8c-0.6-1.8-0.4-2.1-0.4-3.4
			c0-0.3,0-0.7,0.1-1.2c0.3-1.7,1.2-3.4,1.9-3.9c-0.1,1.6,0,3.2-0.1,3.9c0,0.3,0.5,0.4,0.5,0C215,149.9,214.9,148.5,215.2,146z"/>
		<path fill="#8CC63F" d="M212.8,125.8L212.8,125.8c-2.2-0.4-2.5-0.6-2.9-0.8c-2.3-1.2-3.3-3.7-4.9-4.4c0.2-0.3,0.6-0.4,0.9-0.5
			c1.3-0.2,3.2,0.6,4.5,1.1c0.2,0.1,0.5,0.2,0.7,0.3c0.9,0.5,1.9,2.6,2.1,3.6c-1.5-0.9-1.8-1.3-4.1-2.8c-0.2-0.2-0.5,0.2-0.2,0.4
			C210.1,123.6,211.5,124.8,212.8,125.8z"/>
		<path fill="#8CC63F" d="M210.4,106.4c0.1,0.3,0.1,1.2,0.1,1.7c-0.7-0.6-2-1.2-2.9-1.8c-1.3-0.7-2-1.5-2.7-3.1
			c-0.2-0.5-0.2-0.6-0.3-1.3c0.1-0.8-0.1-0.2,0.2-1.4c0,0,0-0.1,0-0.1c0,0,0,0,0,0c0.8,1.3,2,2.1,2.9,3.9c0.1,0.2,0.5,0.1,0.4-0.2
			c-0.1-0.2-0.2-0.6-0.3-0.8c-0.6-1.3-1.6-2.3-2-3.5c0.1,0.1,0.1,0.1,0.2,0.1c1.4,0.5,3,3,3.4,3.5c0.4,0.8,0.2,0.4,0.4,0.9
			C210.1,105.3,210,105,210.4,106.4z"/>
		<path fill="#8CC63F" d="M210.3,130.4c0,1.7-0.4,2.6-1.4,3.7c-0.1,0.2-0.4,0.3-0.5,0.5c-1.7,1.3-3.9,1.1-5.8,1.9
			c0.4-1.9,0-3,1.4-4.5c1-0.8,1.5-0.9,3.3-1.3c1.5-0.4,2.3-0.9,2.9-1c-1.3,1.6-2.1,2.1-2.6,2.5c-0.2,0.1-0.2,0.3-0.1,0.4
			c0.1,0.1,0.2,0.2,0.4,0.1C208.8,131.9,209.3,131.5,210.3,130.4z"/>
		<path fill="#8CC63F" d="M206.8,202.4c0.4,2.9,0.4,2.3,0.3,3.2c0,0.3-0.2,0.8-0.4,1.1c-0.3,0.5-1.5,1.6-1.9,1.9
			c-0.7,0.5,0,0.1-1.4,0.8c-1.7,0.6-1.8,0.6-2.2,0.7c-0.3,0.1-1,0.4-1.2,0.5c0.8-2,0.3-4.3,0.9-6.2c0.7-2,2.4-3.7,4.5-3.8
			c0,0,0,0,0.1,0c-0.5,1.7-1.1,2.7-1.7,3.5c-0.2,0.3,0.2,0.6,0.4,0.3c0.4-0.8,1.2-1.6,1.9-3.5c0,0,0.1,0,0.1,0
			C206.5,201.2,206.8,202,206.8,202.4z"/>
		<path fill="#5A698B" d="M205.9,148.3c0.7,1.2,0.6,3.7-0.4,4.7c-1.1,1-1.6,0.2-2.7,0.2c-3.3,0,1.6,4.9-3.3,5.2
			c-2.7,0.2-1.5-1.6-1.6-3.2c0-1.7-0.9-1.6-1.9-0.7c-0.6,0.7-2.4,3.8-3.9,2.8c-1.8-1.2,1.1-4.2,2-4.8c3.9-2.9-1.8-1.3-2.3-4
			c-0.3-1.4,0.4-3,2.2-2.7c1.4,0.2,1.4,2.3,2.6,2.5c2.4,0.3-0.8-5.7,3.1-6c4.7-0.4-0.6,4.9,2.1,5.7
			C203.5,148.5,204.5,146.1,205.9,148.3z M201.1,151.5c0.7-2.1-3.1-3.4-3.3-0.9C197.6,152.6,200.4,153.6,201.1,151.5z"/>
		<path fill="#8CC63F" d="M206.3,191.4c-0.2,0.8-2.1,3.3-3.9,4.3c-0.6,0.3-0.2,0.2-0.9,0.5c-1.5,0.7-5.1,1-6.3,0.5
			c2.3-2.6,3.6-5.8,7.1-6.2c0.5-0.1,2.7-0.3,3.6,0c-0.9,0.4-1.3,0.7-2.2,1.4c-0.6,0.5-1,0.6-1.8,1.1c-0.9,0.6-0.2,0.1-0.8,0.6
			c-0.2,0.2,0,0.5,0.3,0.3c0.9-0.8,0.5-0.4,3.8-2.1C205.3,191.7,205.8,191.4,206.3,191.4z"/>
		<path fill="#666666" d="M197.2,40.3c-2.4,0.1-3.7,0.7-6.4,1.5c-0.2,0-0.3-0.2-0.1-0.3c3.6-2.6,5-4.5,11.3-4.7
			c1.2,0,2.2,0.9,2.2,2.1c0,0.4,0,0.9-0.3,1.2c-0.3,0.5-0.9,0.7-1.4,0.9c-0.5,0.2-1.1,0-1.6-0.2C198.9,40.3,197.8,40.3,197.2,40.3
			C197.1,40.3,197.1,40.3,197.2,40.3z"/>
		<path fill="#8CC63F" d="M202.1,95.5c0.8,0.7,1.7,1.8,1.7,2.9c-1-0.3-1.9-1.1-4.1-1.8c-0.6-0.2-0.9-0.4-0.9-0.4
			c-0.3-0.2-0.5,0.3-0.2,0.4c2.2,0.5,3.7,2,4.8,2.6c0,0-0.1,0.1-0.1,0.1c-0.3,0.2-0.6,0.4-1,0.4c-1.4,0.4-3.6-0.3-4.6-1.2
			c-1.2-1.3-1.7-2.5-2.6-3.1C196.3,94.4,200.5,94.3,202.1,95.5z"/>
		<path fill="#8CC63F" d="M203.8,169.5c0,0-0.9,0.1-1,0c-0.2-0.1-0.2-0.3-0.4-0.4c-0.5-0.2-1,0.4-1.5,0.4c-0.6,0-1.2-0.1-1.8-0.2
			c-0.2-0.1-0.3,0.3-0.1,0.3c1.5,0.5,2.2,0.4,4.5,0.6c-0.7,1.2-2.3,1.8-3.6,1.9c-1.7,0.2-2.4-0.3-3.6-1.2c-1.1-0.8-2.6-2.2-3.3-2.7
			c1.9-0.6,1.7-0.2,3.2-0.8c0.4-0.1,0.7-0.2,0.7-0.2c2-0.3,3.8-0.5,5.5,0.4C203.1,168.1,203.8,168.8,203.8,169.5z"/>
		<path fill="#8CC63F" d="M203.2,80.2c0.7,1.2,0.4,2.9-0.2,4.1c-0.7,1.5-1.5,1.9-2.8,2.5c-1.3,0.5-3.2,1.1-4,1.5
			c0.4-2,0.7-1.6,0.9-3.2c0.1-0.4,0.1-0.7,0.1-0.7c0.7-1.8,1.5-3.5,3.1-4.6c0.6-0.4,1.5-0.6,2.1-0.3c0,0-0.4,0.8-0.5,0.9
			c-0.1,0.1-0.4,0-0.5,0.2c-0.4,0.4-0.1,1-0.4,1.5c-0.3,0.5-0.7,1-1.1,1.4c-0.2,0.2,0.1,0.4,0.2,0.3
			C201.5,82.8,201.8,82.1,203.2,80.2z"/>
		<path fill="#8CC63F" d="M201.1,106.9c1.1,1.5,1.1,3.4,0.8,5.3c-0.1,0.5-1.6,3.3-2.2,4.3c-0.2-0.6-0.3-1.4-0.9-2.6
			c-1-2.2-0.9-1.9-1.1-3.2c-0.1-0.5-0.1-1,0.3-2.1c0.7-2.4,1.9-2.9,2.6-2.2c-0.6,2.2-0.4,1.7-0.5,2.4c0,0.2-0.1,0.3-0.1,0.3
			c-0.1,0.3,0.4,0.4,0.5,0.1C200.6,108.3,200.9,107.3,201.1,106.9z"/>
		<path fill="#666666" d="M198.8,31.8c0.2,0.5,0.1,1.2-0.2,1.8c-0.3,0.6-0.9,0.9-1.5,1.1c-0.8,0.2-1.6,0.4-2.3,0.9
			c-0.3,0.2-0.6,0.5-0.9,0.8c-0.2,0.2-0.5,0.3-0.8,0.5c-0.6,0.4-1.1,0.9-1.6,1.4c-0.1,0.1-0.3,0-0.3-0.1c0.2-0.9,0.5-1.8,0.9-2.6
			c0.5-0.9,0.8-1.9,1.4-2.8c0.4-0.5,0.8-0.9,1.2-1.4c0.3-0.4,0.6-0.7,1.1-0.9c0.8-0.3,1.6-0.1,2.3,0.4c0,0,0.1,0.1,0.1,0.1
			C198.6,31.1,198.6,31.4,198.8,31.8z"/>
		<path fill="#666666" d="M176.8,48.6c3.2,2.6,4.6,3.9,5.4,4.4c0.9,0.6,1.5,1.2,4.4,3.5c1.8-1.5,8.7,0.1,10.9,7.3
			c0.1,0.2,0,0.3-0.1,0.3c-0.5,0.2-0.1,0.1-0.8,0.3c-1,0.1-1.3,0-2.1-0.1c-2.8-0.2-5-0.8-6.7-2.9c-0.9-1-2.1-3-1.6-4.2
			c0-0.1-1.9-1.3-2.1-1.4c-2.5-1.8-2.2-2.1-7.1-5.9c-0.6-0.4-1.2-0.8-1.7-1.2c-1-0.9-3.6-2.6-6-3.8c-0.1,3,0.9,4.4,1.6,7
			c0.2,0,1.1,0.7,1.3,0.8c1.3,0.6,1.6,1.1,2.4,2.8c0.2,0.6,0.2,0.6,0.4,1.2c0.1,0.3,0.1,0.5,0.1,0.8c0.1,1.9-0.8,3.5-1.2,4.6
			c-0.4,1-0.4,0.9-0.6,2.2c0,0.2-0.3,0.3-0.4,0.1c-1.6-1.6-3.1-1.7-3.9-4.5c-0.3-1.4-0.1-2.2,0.2-3.6c0.4-2,0.4-3.2,1.1-4.1
			c-0.4-0.9-0.5-0.9-0.9-2.1c-1.6,1.9-1.8,2.6-3.2,3.1c-1.7,0.6-3.3,0.1-5.1,0.7c-0.2,0-0.4,0.2-0.6,0.3c-0.4,0.2-0.7-0.6-0.6-1
			c0-1.1,1.3-2.9,2-3.7c0.6-0.8,1.8-1.8,2.6-2c0.8-0.2,2.9-0.3,4.3,0.2c-0.2-1.3-0.2-1.9-0.1-2.9c0,0,0-0.1,0.1-0.2
			c-5.6-2.7-14.7-4.7-20-9c-0.8-0.7-0.9-1-3.3-2.1c-1.1-0.5-1.6-0.5-2.8-0.8c-1.8-0.4-1-0.3-3.3-0.6c1.4,5.2,0.7,4.7,3,10.4l0.1,0
			c-0.1-0.1-0.2-0.3-0.1-0.5c0.1-0.3,0.3-0.6,0.6-0.8c1.3-1.2,4.2-1.4,5.4-1.2c0.2,0,1.3,0.3,1.5,0.4c0.2,0.1,0.5,0.2,0.7,0.3
			c1.4,0.6,0.8,0.4,1.4,0.6c0.4,0.2,1,0.5,2,1.2c0.4,0.3,0.2,0.9-0.4,0.8c-1.5-0.3-3,1.2-4.8,2.2c-0.9,0.4-1.6,0.6-2.7,0.6
			c-0.8-0.1-1.7-0.3-2.4-0.8c0.4,0.8,1.2,2.5,2.3,3.9c1.1-0.5,3.2-0.2,5.3,1.5c1.2,1.1,0.9,0.8,2.7,3.6c0.3,0.5,0.9,1.6,1.2,2
			c0.4,0.2,0.2,0.7-0.2,0.7c-1.8-0.1-1.9-0.4-3.5-0.5c-3.3-0.1-3.7-0.1-4.9-1c-1.8-1.3-3.1-4.6-1.3-6c-1.2-1.4-2.1-2.8-2.9-4.4
			c-0.3,1.9-2.6,3.9-4.4,4.3c-2.5,0.6-2.4,0.3-4.1,1.4c-0.7,0.5-1.2-0.8-1.3-1.7c-0.1-2.4,1.9-6.1,4.6-7c1.2-0.4,2.8-0.4,4,0.2
			c-0.9-2.6-1.1-4.5-1.5-5.8c-0.1-0.3-0.2-0.6-0.3-0.9c-0.1-0.4-0.5-2.1-0.8-3.9c-1.1-0.2-5.1-0.6-5.2-0.6c-0.6-0.1-1.2-0.2-1.8-0.3
			c-1.4-0.1-4.5-0.2-7.9-0.2c0,0,0,0.1-0.1,0.2c0.1,1.4,0,2.5,1.2,3.3c0.4,0.2,0.9,0.3,1.3,0.4c0.5,0.2,1,0.4,1.4,0.7
			c0.9,0.6,1.7,1.4,2.2,2.5c0.8,1.9-0.1,4.1-0.5,6.1c-0.1,0.2-0.1,0.5-0.2,0.8c0,0.1-0.1,0.3-0.1,0.4c0,0.1,0,0.2,0,0.2
			c0,0.3-0.3,0.5-0.5,0.6c-0.4,0.2-0.8-0.4-1.1-0.7c-0.3-0.2-0.5-0.4-0.8-0.5c-0.7-0.4-1.4-0.9-2-1.5c0,0,0,0-0.1-0.1
			c-0.2-0.2-0.3-0.4-0.5-0.6c-2.2-3.2-2.2-6.7-0.5-7.8c-0.7-1.3-1.3-2.7-1-4c-6.7,0.2-5,0.9-10,1.2c-0.6-0.1-1-0.1-1-0.1
			c-0.1,0-0.2-0.1-0.2-0.2c0-0.1,0.1-0.2,0.2-0.2c0,0,0.3,0,1,0.1c5.1-0.5,3.3-1.2,12.5-1.8c0.7-0.1,2.9-0.1,4.2,0
			c0.4,0,2-1.8,2.3-2.1c0.8-0.7,1.6-1.4,2.3-2c1.2-1,2.1-1.9,0.6-3.3c-0.6-0.5-1.1-1.2-1.2-2c-0.1-0.9,0.5-1.3,0.7-2
			c0.2-1-0.1-2.3,0.1-3.3c0.2-1.1,0.4-2.3,0.8-3.3c0.1-0.3,0.4-0.4,0.6-0.3c0.6,0.2,0.9,0.5,1.6,1.1c5.3,4.6,2.7,6,2.2,9.4
			c1-0.6,2.8-1.6,3.3-1.8c0.4-0.2,0.8-0.4,1.1-0.6c1.1-0.6,3.7-1.3,5-1.6c0-1,0.5-1.4,1.2-2.3c1-1.2,1.7-1.7,2.3-2.2
			c0.7-0.4,0.5-0.3,1.1-0.5c1.1-0.2,1.9,0,2.8,0.3c0.3,0.1,1.2,0.5,1.5,0.7c0.8,0.5,0.4,0.2,1.3,1c0.5,0.4,1.2,1.4,1.7,1.8
			c1.2,1.1,0.8,0.7,1.5,1.5c0,0.1,0.1,0.1,0.1,0.2c0,0.2-0.1,0.3-0.3,0.3c-3.4,0-5.4,3.5-10,2.3c-1.5-0.4-2.3-1.1-3.1-2
			c-0.1-0.1-0.1-0.2-0.1-0.3c-1,0.3-2.5,0.8-3.4,1.4c-0.9,0.5-1.8,0.8-2.6,1.2c0.4,0,1.3,0.1,2.6,0.4c1.3,0.3,2.3,0.8,3.3,1.6
			c2.7,2,4.1,6.7,3.1,6.5c-3.5-0.8-8,0.6-11-3.9c-0.3-0.5-1-1.9-0.8-2.9c-3.4,2.1-6.6,4.6-9.7,7c4.3,0.5,0.6-0.2,6.9,0.7
			c1.6,0.2,4.1,0.7,4.8,0.9c2.7,0.8,2.6,0.6,4.8,1.7c0.3,0.2,1.7,1,1.8,1c2.2,1.1,2.6,1.8,6.6,3.7c0.5,0.2,1.9-0.1,2.4-0.2
			c0.8-0.1,1.5-0.3,2.3-0.4c1.2-0.3,2-1.2,1.1-2.3c-0.4-0.6-0.8-1.2-1.3-1.7c-0.6-0.8-1.2-0.9-0.9-2c0.5-1.6,0.5-3.4,1-5
			c0.1-0.2,0.2-0.3,0.4-0.3c1-0.1,1.9,0.3,2.7,0.8c1.4,0.9,2.9,2.6,2.9,4.3c0.2,3.3-0.8,4-1.3,5.4c0.1-0.3,3.2-0.1,3.6,0
			c1.3,0.1,1.4-0.1,2.1-1.1c0.7-1,1.3-0.6,2.5-1.6c0.5-0.4,1-0.5,1.6-0.7c1-0.4,1.6-0.6,2.4,0.3c0.8,0.9,2.2,1.3,3.2,1.8
			c2.1,1.1,2.4,1.1,2.8,1.6c0.2,0.2,0.4,0.7,0.1,0.9c-1.8,0.7-3.7,1.4-5.2,2.5c-1.1,0.8-1.7,0.8-3,0.7c-0.4,0-1.1-0.2-1.3-0.3
			c-1.6-0.7-1.9-1.5-3.2-2.7c0,0-0.1-0.1-0.1-0.1c-7.3-0.3-5.7,0.4-13.1,1c-0.1,0-0.1,0-0.2,0c8.4,3.7,11.9,3.9,19,9.3
			c0.6-0.2,1.6-0.5,2.8-0.5c0.2-4,9.6-5.2,11.4-2.2c0.1,0.2,0.1,0.2,0.2,0.4c0,0.1,0,0.2,0.1,0.3c-0.1,0.6-0.5,0.8-1.7,1.6
			c-1,0.6-1.1,0.5-2.6,1.4c-0.6,0.4-2.3,1.7-4.2,1c-1.1-0.4-1.3-1.1-1.7-1.3c-0.4-0.2-0.9-0.3-1.4-0.2
			C178.1,48.2,176.9,48.6,176.8,48.6z M193.7,63.5c1.6,0.3,2.6,0.4,3.1,0.2c-1.8-5-7.9-7-9.3-6.5c1.9,1.5,3.2,2.1,3.2,2.1
			c0.3,0.2,0,0.6-0.2,0.4c-0.6-0.4-2-1.1-3.3-2c0.1,0.9,1.1,2.5,2.4,3.6c0.4,0.3,0.7,0.5,1,0.7C191.6,62.8,191.8,63.1,193.7,63.5z
			 M189.3,45.6C189.3,45.5,189.3,45.5,189.3,45.6c-0.1-0.3-0.1-0.3-0.4-0.5c-1.7-1.6-8.8-0.3-9.4,2c0,0,0,0,0.1,0
			c1.4,0,1.4,0,2.3-0.2c0.3-0.1,0.4,0.3,0.1,0.4c-0.6,0.2-0.7,0.2-1.5,0.4c0.5,0.7,1.1,1,2,1c0.6,0,2.1-0.5,2.6-0.8
			c0.7-0.3,1-0.8,2.7-1.4c0.6-0.2,1-0.4,1.3-0.8C189.3,45.7,189.3,45.7,189.3,45.6C189.3,45.6,189.3,45.6,189.3,45.6z M180.9,37.4
			l1.3-0.6c-0.2-0.3-0.8-0.5-1.1-0.6c-0.4-0.1-0.8-0.3-1.7-0.7c-1-0.5-0.4-0.2-2.7-1c0,0,0,0,0,0c-1.6-0.4-2.9-0.5-4.4,0.5
			c-0.6,0.4-1.3,0.9-1.7,1.6c0,0,0,0,0,0c2.8,0.5,3.8,0.3,5.1,0.3c0.3,0,0.3,0.4,0,0.4c-3.4,0-1.6,0-4.9,0.1c1.1,1,1.5,1.5,2.6,1.8
			c0.9,0.2,1.1,0,1.8-0.1c0.3,0,0.5-0.1,0.8-0.1c0.6-0.1,0.3,0,1.1-0.2c0,0,2-0.5,3-1L180.9,37.4z M172.9,63.5
			c0.3-2.1,1.6-3.9,1.3-6c-0.1-0.2-0.1-0.5-0.2-0.7c-0.4-1.4-1.1-2.2-2.5-3.1c0.5,1.4,0.6,2.1,0.7,3.2c0,0.2-0.1,0.3-0.3,0.3
			c-0.2,0-0.3-0.1-0.3-0.3c-0.1-0.6-0.1-1.6-0.8-3.5c-0.2,0.6-0.2,1.6-0.6,3c-0.5,1.8-0.7,2.3-0.5,3.5
			C170.3,62,171.4,62.2,172.9,63.5z M168.8,49.4L168.8,49.4c-1.5,0.5-3.2,1.1-4.7,1.7c-0.3,0.1-0.4-0.3-0.2-0.4
			c2.5-1.3,2.9-1.3,4.5-2.2c-1-0.3-3.4-0.5-4.2,0c-0.2,0.1-0.4,0.3-0.6,0.5c-1.1,0.9-2.8,2.1-3.2,3.4c-0.1,0.3-0.2,0.7,0,1.1
			c1.4-1,4.1-0.6,6.3-2C167,51.2,167.4,51,168.8,49.4z M163.8,35.5c0.7-1.8,1.6-1.7,1.4-4.6c0-2.2-3-4.4-4.6-4.3
			c-0.2,1.2-0.2,3.1,0.1,5c0.3,1.6,0.9,3.1,2.2,4.4c0-1.7-0.3-3.1-0.7-5.1c0-0.1,0.1-0.3,0.2-0.3c0.2,0,0.3,0.1,0.3,0.2
			C163.2,32.9,163.5,34,163.8,35.5z M161.2,17.8c-0.2-0.2-0.8-0.7-1-0.8c-0.3-0.2-0.4-0.3-1.7-1.5c-1.3-0.9-0.6-0.4-1.4-0.8
			c-0.4-0.2-2-0.8-2.6-0.8c-0.4,0-0.9,0.1-1.2,0.2c-0.9,0.4-0.4,0.1-2.6,1.9c-0.3,0.2-0.9,0.9-0.9,1.3c0,0,0,0.1,0,0.1
			c2-0.3,3.1-0.1,4-0.1c0.4,0,0.3,0.5,0,0.5c-1-0.1-2.1-0.1-3.9,0.2c0,0,0,0,0,0.1c1.1,1.8,3.5,2.4,5.6,2
			C157.3,19.7,159,18.1,161.2,17.8z M154.1,56c-0.6-0.9-2.2-3.7-2.6-4c-1.4-1.2-3.1-2.2-5-2c0.3,0.4,1,1.1,1.6,1.6
			c0.3,0.2-0.1,0.6-0.3,0.3c0,0-0.1-0.1-0.2-0.2c-0.6-0.5-0.3-0.1-1.8-1.7c-1,0.3-1.1,1.6,0.6,3.4c0.8,0.8,1.2,1.1,1.7,1.3l-0.1,0
			c1.2,0.4,0.9,0.4,3.3,0.6C152.8,55.5,153.5,55.8,154.1,56z M152.3,42.4c-0.4-0.3-1.2-0.7-1.5-0.8c-1.4-0.4-1-0.3-2.1-0.5
			c-0.6-0.1-0.2-0.1-1-0.1c-0.7,0-3.6,0.2-4.7,1.2c-0.1,0.1-0.1,0.1-0.2,0.1c1.2,0.2,2.6-0.1,4,0c0.2,0,0.6,0.1,0.9,0.2
			c0.3,0,0.2,0.4,0,0.4c-2.1-0.1-3.3,0.6-4.8,0.6c0,0,0,0,0,0c0,0,0.1,0,0.1,0.1c0.9,0.8,0.4,0.4,1.1,0.9c0.7,0.3,0.8,0.3,1.3,0.4
			c1.7,0.2,2.7-0.1,4-0.8C150.2,43.5,151.4,42.7,152.3,42.4z M151.5,28.9c-0.1-1.3-2.2-4.2-3.5-5.2c-0.6-0.4-0.3-0.2-0.9-0.6
			c-1.7-1-4.9-1.5-5.7-1.2c0.3,0.4,0.7,0.7,1.1,1c3.1,2,2.6,1.8,3.7,2.2c0.3,0.1,0.1,0.5-0.2,0.4c-0.7-0.3,0,0-0.9-0.4
			c-0.9-0.5-1.2-0.7-1.9-1c-1-0.5-1.5-0.7-2.3-1.2c0.1,0.9,1.4,2.7,1.8,3.1C144.7,28.7,148.1,28.2,151.5,28.9z M141.1,45.3
			c0.1-0.4,0.1-0.7,0.1-1.1c0,0,0-0.1,0-0.1c-1.1,0.7-3.1,1.2-4.7,2.9c-0.2,0.2-0.6-0.2-0.3-0.3c0,0,0.3-0.2,0.8-0.6
			c1.7-1.6,2.8-1.9,3.6-2.7c-0.9-0.5-2.3-0.3-3.4,0c-1.8,0.8-3.8,4.4-3.4,6c1-0.5,2.3-0.3,4-0.7C139.1,48.2,140.7,46.7,141.1,45.3z
			 M138.4,22.1c0.2-2.2,2-4.5,0.7-6.3c-0.9-1.3-1.4-1.7-2.8-2.7c-0.2-0.2-0.4-0.3-0.6-0.5c-0.7,2.5-1.4,8.7,1.3,10.5l0,0
			c-0.5-3.4-0.4-2.3-0.6-5.9c0-0.2,0.3-0.3,0.4,0c0.8,3.5,0.5,2.4,1.3,5.2C138.2,22.2,138.3,22.1,138.4,22.1z M128.7,40.7
			c0.1-1.5,0.2-2.4-0.8-3.7c-0.8-1.1-2.1-2.2-3.5-2.2c0.9,2.1,1.3,2.7,1.7,4.2c0,0.2-0.3,0.3-0.4,0.1c-0.2-0.6-0.4-1.1-0.7-1.6
			c-0.3-0.5-1-0.6-1.1-1.1c0-0.2,0.1-0.4,0.1-0.5c0-0.1-0.5-0.8-0.5-0.8c-0.7,0.4-0.9,1.2-0.8,2c0,2,1.2,3.5,2.4,5
			c0,0,0.2,0.2,0.5,0.5c1.3,1.1,0.8,1.1,2.3,2.4C128.1,44.1,128.5,42.1,128.7,40.7z"/>
		<path fill="#8CC63F" d="M196.8,63.8c-0.5,0.2-1.5,0-3.1-0.2c-1.9-0.4-2-0.8-3.1-1.4c-0.2-0.2-0.6-0.3-1-0.7
			c-1.3-1.1-2.3-2.7-2.4-3.6c1.4,0.9,2.7,1.6,3.3,2c0.3,0.2,0.6-0.3,0.2-0.4c0,0-1.3-0.6-3.2-2.1C188.9,56.8,195,58.7,196.8,63.8z"
			/>
		<path fill="#FBB03B" d="M192.3,75.3c0,0.2-0.2,1-0.4,1.1c-0.5,0.6-2.2,0.3-2.9,0.1c-0.6-0.2-1.1-0.6-1.7-0.9
			c-0.5-0.3-1.7-0.4-1.8-1.1c0-0.2,0-0.3,0-0.4c0.4-0.9,2.4-0.7,3.1-0.6c0.9,0.1,1.9,0.5,2.7,0.9C191.6,74.5,192.3,74.8,192.3,75.3z
			"/>
		<path fill="#8CC63F" d="M186.3,171.1c1.6,0.4,3.8,4,3.5,6c-0.2,1.1-0.7,2.4-1.7,2.9c-0.2-1.1,0-2.1-0.5-4.4c-0.1-0.6-0.1-1-0.1-1
			c0-0.3-0.5-0.2-0.4,0.1c0.7,2.2,0.1,4.2,0.2,5.5c0,0-0.1,0-0.1,0c0,0,0,0,0,0c-0.3-0.1-0.6-0.3-0.9-0.6c-1-1-1.5-3.2-1.2-4.6
			C185.4,173.2,186.2,172.2,186.3,171.1z"/>
		<path fill="#8CC63F" d="M189.3,45.5C189.3,45.5,189.3,45.5,189.3,45.5C189.3,45.6,189.3,45.6,189.3,45.5c0,0.1,0,0.2-0.1,0.2
			c-0.3,0.4-0.8,0.6-1.3,0.8c-1.7,0.6-2,1.1-2.7,1.4c-0.5,0.3-2.1,0.7-2.6,0.8c-0.9,0-1.5-0.3-2-1c0.8-0.2,0.8-0.2,1.5-0.4
			c0.3-0.1,0.2-0.5-0.1-0.4C181,47,181,47,179.6,47c0,0,0,0-0.1,0c0.6-2.3,7.7-3.5,9.4-2C189.2,45.3,189.2,45.3,189.3,45.5z"/>
		<path fill="#8CC63F" d="M188.3,203.3c1.8,0.7,3.4,1.7,4.4,2.4c-0.7,1.4-4.1,2.9-6,1.8c-2.7-1.3-2.1-2-3.3-3.5
			c1.5,0.6,2.6,0.8,4.6,1.5c0.2,0.1,0.3,0,0.4-0.2c0-0.1,0-0.3-0.2-0.3c-1.9-0.6-3.3-1.1-4.7-2C185.1,202.5,186.7,202.8,188.3,203.3
			z"/>
		<path fill="#666666" d="M188.7,40.3c0,0.2-0.2,0.2-0.3,0.1c-0.7-1.3-0.5-1.1-1.2-2.6c0,0,0,0,0,0c-0.2-0.4-0.3-0.5-0.6-0.9
			c-1-1.2-0.9-1.3-1.6-2c-0.5-0.6-1.3-1.1-1.7-1.2c-0.8-0.3-1.4-0.9-1.6-1.8c-0.2-0.8,0.1-1.5,0.7-2c0.1-0.1,0.2-0.2,0.3-0.2
			c0.9-0.5,2.1-0.4,2.8,0.4c0.4,0.4,0.8,0.8,1.3,1.6c0.2,0.4,0.6,1.2,0.8,1.7c0.4,1,0.4,1.4,0.5,1.9c0.1,0.6,0.3,1.2,0.4,2
			c0,0,0,0.1,0,0.1C188.7,39,188.6,38.8,188.7,40.3z"/>
		<path fill="#FBB03B" d="M188.4,66.3c0.2,0.3,0,1,0,1.4c-0.1,1.1-0.4,2.2-1.1,3.1c-0.2,0.3-0.5,0.6-0.8,0.8c-0.3,0.2-0.7,0.5-1,0.7
			c-0.2,0.1-0.4,0-0.5-0.2c-0.1-0.1-0.1-0.1-0.2-0.2c-0.4-0.4-0.3-1-0.2-1.6c0.2-0.6,0.3-1.2,0.5-1.8c0.2-0.5,0.2-1.1,0.4-1.7
			c0.3-1,0.8-1.3,1.8-1C187.6,65.9,188.2,66,188.4,66.3z"/>
		<path fill="#FBB03B" d="M187.1,78.6c0.4,1.1,1.2,2.1,0.9,3.4c-0.1,0.4-0.3,0.6-0.7,0.8c-0.3,0.2-0.6,0.5-1,0.5
			c-0.6,0-0.9-0.8-1.2-1.2c-0.5-0.7-0.9-1.3-1-2.2c-0.1-0.7-0.3-1.5-0.3-2.2c0-0.5,0.1-1.2,0.6-1.4c0.1-0.1,0.3-0.1,0.6,0
			C186.1,76.8,186.6,77.5,187.1,78.6z"/>
		<path fill="#8CC63F" d="M187.9,182.6c0.2,1.4-1,4.1-1.4,4.7c-0.4,0.7-0.2,0.3-0.6,0.8c-0.7,0.8-0.4,0.5-1.5,1.5
			c-0.2,0.2-1,0.7-1.4,0.9c0.2-0.9,0.1-2.4,0.1-3.4c0-1.5,0.3-2.5,1.3-3.9c0.4-0.4,0.4-0.5,1-0.9c0.8-0.4,0.2-0.2,1.3-0.5
			c0,0,0.1,0,0.1-0.1c0,0,0,0,0,0c-0.7,1.3-0.8,2.7-1.9,4.5c-0.1,0.2,0.2,0.4,0.3,0.2c0.2-0.2,0.5-0.5,0.6-0.7
			c0.8-1.2,1.2-2.5,2-3.5C187.9,182.5,187.9,182.5,187.9,182.6z"/>
		<path fill="#FCEE21" d="M183.9,72.6c0.8,0.2,1.1,1.4,0.8,2.3c-0.5,1.2-2.1,0.9-2.7,0C180.9,73.4,182.7,72.2,183.9,72.6z"/>
		<path fill="#FBB03B" d="M182.5,70.1c0.2,0.4,0.5,1.1,0.2,1.6c-0.1,0.2-0.2,0.2-0.3,0.3c-0.4,0.2-1-0.3-1.3-0.6
			c-0.5-0.4-1-0.7-1.5-1.2c-1.1-1-2.4-2.2-1.1-3.7c0.7-0.8,1.1-0.4,1.7,0.2c0.4,0.4,0.8,0.9,1.1,1.5
			C181.7,68.9,182.1,69.5,182.5,70.1z"/>
		<path fill="#FBB03B" d="M182,76c0.3,0.3,0.4,0.7,0.4,1.1c0,0.7-0.1,1.5-0.5,2c-0.4,0.5-1,0.8-1.4,1.2c-0.6,0.6-1.8,1-1.9-0.2
			c-0.1-1,0.1-2,0.7-2.8C179.8,76.8,181.1,75.2,182,76z"/>
		<path fill="#8CC63F" d="M182.2,36.8l-1.3,0.6l-0.8,0.4c-1,0.5-3,1-3,1c-0.8,0.2-0.5,0.1-1.1,0.2c-0.3,0-0.5,0.1-0.8,0.1
			c-0.7,0.1-1,0.2-1.8,0.1c-1.1-0.4-1.5-0.8-2.6-1.8c3.3-0.1,1.5-0.1,4.9-0.1c0.3,0,0.3-0.4,0-0.4c-1.3,0-2.3,0.2-5.1-0.3
			c0,0,0,0,0,0c0.4-0.7,1.1-1.2,1.7-1.6c1.5-1,2.9-0.9,4.4-0.5c0,0,0,0,0,0c2.3,0.8,1.7,0.6,2.7,1c0.9,0.4,1.3,0.6,1.7,0.7
			C181.4,36.3,182,36.5,182.2,36.8z"/>
		<path fill="#FBB03B" d="M178.8,72.6c0.8,0.3,2.2,0.3,2.1,1.5c0,0.1,0,0.1,0,0.1c-0.1,0.2-0.8,0.3-1,0.4c-0.5,0.2-1,0.5-1.5,0.8
			c-0.6,0.3-1.3,0.1-1.8,0.1c-0.6,0-1.2,0.1-1.8-0.1c-1-0.3-1.2-1.3-0.8-2.2c0.2-0.4,0.5-0.5,0.9-0.6c0.6-0.1,1.2-0.4,1.8-0.5
			C177.4,72,178.2,72.3,178.8,72.6z"/>
		<path fill="#8CC63F" d="M176.4,180c2.4-0.6,3.5,0.2,3.3,1.1c-2.1,0.6-1.6,0.5-2.4,0.8c-0.2,0.1-0.2,0.1-0.2,0.1
			c-0.3,0.1-0.2,0.6,0.1,0.4c0.7-0.3,1.8-0.5,2.2-0.6c-0.8,1.7-2.4,2.7-4.2,3.3c-0.5,0.2-3.7,0.2-4.8,0.2c0.4-0.4,1-0.9,1.8-2.1
			c1.4-1.9,1.2-1.7,2.2-2.5C174.9,180.6,175.4,180.3,176.4,180z"/>
		<path fill="#8CC63F" d="M179.7,211.6c0.1,1.8-0.7,2.9-1.8,4.1c0,0,0,0,0,0c-1.9,1.6-1.4,1.2-2.3,1.8c-0.8,0.6-1.2,0.8-1.5,1.1
			c-0.3,0.2-0.8,0.6-1.1,0.7l0.1-1.5l0.1-0.9c0.1-1.1,0.6-3.1,0.6-3.1c0.2-0.7,0.2-0.4,0.4-1c0.1-0.3,0.2-0.5,0.3-0.8
			c0.3-0.6,0.3-1,0.8-1.6c0.9-0.8,1.5-0.9,2.9-1.4c-1.5,2.9-0.7,1.4-2.3,4.3c-0.1,0.2,0.2,0.4,0.4,0.2c0.6-1.1,1-2.1,2.8-4.3
			c0,0,0,0,0,0C179.5,210.1,179.6,210.9,179.7,211.6z"/>
		<path fill="#666666" d="M176.8,224.2c0.1,1-0.5,2-1.5,2.4c-0.6,0.2-1.1,0.4-2,0.5c-0.4,0.1-1.3,0.1-1.9,0
			c-1.1-0.1-1.5-0.2-1.9-0.3c-0.6-0.2-1.2-0.2-2-0.4l0,0c-1.5-0.6-1.2-0.6-2.7-1.1c-0.2-0.1-0.1-0.3,0-0.3c1.5-0.1,1.2,0,2.8,0l0,0
			c0.5-0.1,0.6-0.1,1-0.2c1.5-0.4,1.5-0.2,2.5-0.6c0.7-0.2,1.6-0.8,1.8-1c0.6-0.6,1.4-0.9,2.2-0.7c0.8,0.2,1.4,0.7,1.6,1.4
			C176.8,224,176.8,224.1,176.8,224.2z"/>
		<path fill="#8CC63F" d="M174.2,57.5c0.3,2.1-1,3.9-1.3,6c-1.5-1.3-2.6-1.5-3.2-3.5c-0.2-1.2,0-1.7,0.5-3.5c0.4-1.4,0.4-2.4,0.6-3
			c0.7,1.9,0.8,2.9,0.8,3.5c0,0.2,0.2,0.3,0.3,0.3c0.1,0,0.3-0.1,0.3-0.3c-0.1-1.2-0.2-1.8-0.7-3.2c1.4,0.8,2.1,1.7,2.5,3.1
			C174.1,57,174.1,57.3,174.2,57.5z"/>
		<path fill="#8CC63F" d="M171.8,197.9c0.1,1-1.3,3-2.1,3.7c0.1-1.8,0.2-2.2,0.4-4.9c0-0.3-0.4-0.3-0.4,0c-0.2,1.6-0.6,3.3-0.8,4.9
			l-0.1-0.1c-0.7-2-0.7-2.4-0.7-2.9c-0.1-2.6,1.6-4.8,1.4-6.5c0.4,0,0.7,0.3,0.9,0.6c0.9,1,1.1,3.1,1.3,4.5
			C171.8,197.4,171.8,197.6,171.8,197.9z"/>
		<path fill="#666666" d="M170.5,234.5c0.2,0.5,0.4,0.9,0.4,1.4c0,0.9-0.6,1.6-1.4,1.9c0,0-0.1,0-0.1,0.1c-0.3,0.1-0.7,0.1-1,0.1
			c-0.6,0-1.2-0.5-1.5-0.9c-0.4-0.5-0.4-1.2-0.4-1.8c0.1-0.8,0.3-1.7,0.2-2.5c-0.1-0.4-0.2-0.8-0.3-1.1c-0.1-0.3-0.1-0.6-0.1-0.9
			c-0.1-0.7-0.3-1.4-0.6-2c-0.1-0.1,0.1-0.3,0.2-0.2c0.8,0.5,1.4,1.2,2,1.9c0.7,0.8,1.4,1.5,1.9,2.4
			C170,233.4,170.3,233.9,170.5,234.5z"/>
		<path fill="#8CC63F" d="M168.8,49.3L168.8,49.3c-1.4,1.7-1.8,1.9-2.2,2.1c-2.2,1.4-4.9,1-6.3,2c-0.2-0.3-0.1-0.7,0-1.1
			c0.5-1.3,2.1-2.5,3.2-3.4c0.2-0.2,0.4-0.3,0.6-0.5c0.9-0.5,3.2-0.4,4.2,0c-1.6,0.8-2,0.9-4.5,2.2c-0.2,0.1-0.1,0.5,0.2,0.4
			C165.6,50.5,167.3,49.9,168.8,49.3z"/>
		<path fill="#8CC63F" d="M165.5,211.9c1.7,1.7-0.8,8.5-3,9.1c-0.3,0.1-0.3,0.1-0.6,0.1c0,0,0,0,0,0c0,0,0,0,0,0c0,0,0-0.1-0.1-0.1
			c-0.2-0.5-0.1-0.9,0-1.5c0.3-1.7,0.1-2.3,0.1-3c0-0.6,0.4-2.2,0.7-2.7c0.4-0.8,1-1.1,1.8-1.2c-0.3,0.8-0.2,0.8-0.4,1.5
			c-0.1,0.3,0.3,0.4,0.4,0.1C164.8,213.2,164.7,213.2,165.5,211.9C165.4,212,165.5,212,165.5,211.9z"/>
		<path fill="#8CC63F" d="M165.2,30.9c0.2,3-0.7,2.8-1.4,4.6c-0.2-1.5-0.6-2.6-1.1-4.7c0-0.2-0.2-0.2-0.3-0.2
			c-0.1,0-0.2,0.2-0.2,0.3c0.4,1.9,0.7,3.4,0.7,5.1c-1.3-1.2-1.8-2.7-2.2-4.4c-0.3-1.9-0.2-3.8-0.1-5
			C162.2,26.5,165.2,28.7,165.2,30.9z"/>
		<path fill="#666666" d="M161.3,233c0.9-2.2,0.8-3.7,1.2-6.4c0-0.2,0.3-0.2,0.3,0c0.9,4.3,2,6.4-0.4,12.2c-0.5,1.1-1.7,1.6-2.8,1.2
			c-0.4-0.2-0.8-0.4-1-0.7c-0.3-0.5-0.3-1.1-0.2-1.7c0-0.6,0.5-1,0.8-1.4C160.6,234.6,161,233.5,161.3,233
			C161.3,232.9,161.3,233,161.3,233z"/>
		<path fill="#8CC63F" d="M161.9,199.1c1,1.1,1.9,1.6,2.3,2c-2-0.3-2.9-0.8-3.5-1c-0.2-0.1-0.3,0-0.4,0.1c-0.1,0.1,0,0.3,0.1,0.4
			c1.1,0.5,1.7,0.7,3.1,1c-1.4,0.8-2.5,1-3.9,0.7c-0.2,0-0.5-0.1-0.7-0.2c-2-0.8-2.8-2.8-4.6-4.1c1.9-0.6,2.7-1.5,4.6-1
			C160.2,197.4,160.6,197.8,161.9,199.1z"/>
		<path fill="#8CC63F" d="M160.1,17c0.2,0.2,0.8,0.6,1,0.8c-2.2,0.3-3.9,1.9-5.8,2.3c-2,0.4-4.4-0.2-5.6-2c0,0,0-0.1,0-0.1
			c1.7-0.4,2.8-0.4,3.9-0.2c0.4,0,0.4-0.5,0-0.5c-0.9,0-1.9-0.2-4,0.1c0,0,0-0.1,0-0.1c0-0.4,0.6-1,0.9-1.3c2.3-1.8,1.8-1.4,2.6-1.9
			c0.3-0.1,0.8-0.2,1.2-0.2c0.6,0,2.2,0.5,2.6,0.8c0.8,0.4,0.1-0.1,1.4,0.8C159.7,16.7,159.8,16.8,160.1,17z"/>
		<path fill="#666666" d="M159.3,223.8c0.9,1.8,0.4,4.4-0.9,5.9c-1.6,2-4.6,2.6-7,2.6c-4.8,0.1-9.1-2-10.7-2.5
			c-8.7-3-10.5-4.3-12.9-4.5c-2.1-0.3-5.3-0.2-6.9,1.3c0,0-0.4,0.4-0.4,0.4c-0.6,0.8-0.8,1.1-1.1,2.1c-0.3,2.3,1.6,3.9,3.8,4.4
			c2.5,0.6,3.1-2.7,1.6-3.1c-0.3-0.1-0.6,0-0.6,0c-0.4,0-0.8-0.3-0.8-0.8c0-0.4,0.3-0.8,0.8-0.8c3.8,0.3,3,5.2,0.2,5.5
			c-0.4,0.1-0.6,0-1,0c-3.8-1-5.2-4.2-3.9-6.7c1.1-2.7,4.6-3.8,7.5-4.1c2.6-0.2,4.1,0.1,9.4,1.7c8.6,2.7,9,4.4,14.1,5.6
			c2.2,0.4,5,0.6,6.8-0.7c1.4-1,2-2.7,2-4.4c0.1-4.6-9.4-6-9.5-1.1c-0.1,1,0.9,2.3,2.1,2.4c0.3,0,0.5-0.1,0.7-0.1
			c0.1,0,0.1-0.1,0.2-0.1c0,0,0.2-0.1,0.2-0.1c0.1-0.1,0.2-0.2,0.3-0.2c0.5-0.2,1.1-0.1,1.3,0.4c0.2,0.5,0.1,1.1-0.4,1.3
			c0,0-0.1,0.1-0.2,0.1c-3,1.5-6.2-1.7-5-4.7c0.8-2.1,2.7-2.9,5-2.7C156,221,158.3,222,159.3,223.8z"/>
		<path fill="#8CC63F" d="M151.5,51.9c0.4,0.3,2,3.1,2.6,4c-0.6-0.1-1.3-0.4-2.7-0.6c-2.4-0.2-2.1-0.2-3.3-0.6l0.1,0
			c-0.4-0.2-0.9-0.5-1.7-1.3c-1.7-1.8-1.6-3.1-0.6-3.4c1.6,1.6,1.2,1.1,1.8,1.7c0.1,0.1,0.2,0.2,0.2,0.2c0.2,0.2,0.6-0.1,0.3-0.3
			c-0.6-0.5-1.3-1.3-1.6-1.6C148.4,49.7,150.1,50.7,151.5,51.9z"/>
		<path fill="#8CC63F" d="M147.9,213.4c1.6-0.6,3.5-0.7,4.3-0.2c-1.4,0.7-2.8,1.6-3.4,1.9c-0.3,0.1-0.1,0.6,0.2,0.4
			c0,0,1.2-0.8,3.4-1.7c-0.2,1.5-5,5.8-10.2,4.8c0.1-0.5,0.7-1.3,1.8-2.6c1.3-1.4,1.7-1.4,2.7-2.1
			C147.1,213.7,147.5,213.5,147.9,213.4z"/>
		<path fill="#8CC63F" d="M150.8,41.7c0.3,0.1,1.1,0.5,1.5,0.8c-0.9,0.3-2.1,1.1-3,1.6c-1.3,0.7-2.3,1-4,0.8
			c-0.5-0.1-0.6-0.1-1.3-0.4c-0.7-0.5-0.2-0.1-1.1-0.9c0,0-0.1,0-0.1-0.1c0,0,0,0,0,0c1.5,0,2.8-0.7,4.8-0.6c0.3,0,0.3-0.4,0-0.4
			c-0.2,0-0.7-0.1-0.9-0.2c-1.5-0.1-2.8,0.2-4,0c0.1,0,0.1-0.1,0.2-0.1c1.1-0.9,4.1-1.2,4.7-1.2c0.8,0,0.4,0,1,0.1
			C149.7,41.3,149.4,41.2,150.8,41.7z"/>
		<path fill="#8CC63F" d="M147.9,23.7c1.4,1,3.4,3.9,3.5,5.2c-3.4-0.7-6.8-0.2-8.9-3c-0.3-0.4-1.6-2.2-1.8-3.1
			c0.8,0.5,1.3,0.8,2.3,1.2c0.7,0.3,1,0.6,1.9,1c0.9,0.5,0.2,0.1,0.9,0.4c0.3,0.1,0.4-0.3,0.2-0.4c-1.1-0.4-0.6-0.2-3.7-2.2
			c-0.4-0.3-0.8-0.6-1.1-1c0.8-0.2,3.9,0.2,5.7,1.2C147.6,23.5,147.3,23.3,147.9,23.7z"/>
		<path fill="#FBB03B" d="M149.1,204.6c0.2,0.4,0.2,0.7,0,1.1c-0.1,0.4-0.1,0.8-0.4,1c-0.4,0.4-1.2,0-1.7,0
			c-0.8-0.1-1.6-0.4-2.2-0.9c-0.6-0.5-1.2-0.9-1.8-1.4c-0.4-0.3-0.7-1-0.5-1.4c0.1-0.1,0.2-0.3,0.4-0.4c1.2-0.5,2-0.3,3.1,0.2
			C147.1,203.2,148.4,203.4,149.1,204.6z"/>
		<path fill="#FBB03B" d="M148.1,197.8c0,0.8-1.4,1.7-2,2c-0.6,0.3-1.2,0.3-1.9,0.5c-0.6,0.1-1.5,0.9-2.1,0.4
			c-0.1-0.1-0.2-0.2-0.3-0.3c-0.4-0.9,1.2-2.1,1.8-2.6c0.7-0.6,1.7-0.9,2.6-1.1c0.4-0.1,1.1-0.3,1.4,0
			C147.7,196.8,148.1,197.6,148.1,197.8z"/>
		<path fill="#FBB03B" d="M142.6,206.6c0,0.6-0.2,1.2-0.2,1.9c0,0.8-0.6,2-1.5,1.2c-0.7-0.7-1.3-1.5-1.4-2.5
			c-0.1-0.8-0.2-2.9,1.1-2.9c0.4,0,0.8,0.2,1,0.5C142.1,205.2,142.6,205.9,142.6,206.6z"/>
		<path fill="#FCEE21" d="M141.7,201.7c0.5,1.2-0.9,2.1-2,1.8c-1.7-0.4-1.2-2.5-0.1-3C140.3,200.2,141.4,200.8,141.7,201.7z"/>
		<path fill="#8CC63F" d="M141.2,44.2c0,0.3,0,0.7-0.1,1.1c-0.4,1.4-2,2.9-3.4,3.4c-1.7,0.4-3,0.2-4,0.7c-0.4-1.6,1.6-5.3,3.4-6
			c1-0.3,2.5-0.6,3.4,0c-0.8,0.7-1.8,1.1-3.6,2.7c-0.4,0.4-0.8,0.6-0.8,0.6c-0.3,0.2,0.1,0.6,0.3,0.3c1.6-1.7,3.6-2.2,4.7-2.9
			C141.2,44.2,141.2,44.2,141.2,44.2z"/>
		<path fill="#FBB03B" d="M140.8,196.8c0,0.3,0.1,0.7,0,1.1c-0.1,0.3-0.1,0.9-0.3,1.2c-0.1,0.2-0.3,0.2-0.5,0.3c-0.1,0-0.2,0-0.3,0
			c-0.6,0-0.9-0.5-1.2-1c-0.3-0.6-0.6-1.1-0.9-1.7c-0.2-0.5-0.6-1-0.9-1.5c-0.5-0.9-0.3-1.5,0.7-1.9c0.3-0.1,0.8-0.4,1.1-0.3
			c0.4,0.1,0.7,0.7,0.9,1C140.1,194.7,140.7,195.6,140.8,196.8z"/>
		<path fill="#8CC63F" d="M139.1,15.8c1.3,1.8-0.5,4.1-0.7,6.3c-0.1,0.1-0.2,0.1-0.3,0.2c-0.8-2.8-0.6-1.7-1.3-5.2
			c-0.1-0.2-0.4-0.2-0.4,0c0.3,3.6,0.1,2.5,0.6,5.9l0,0c-2.8-1.8-2-7.9-1.3-10.5c0.2,0.1,0.4,0.3,0.6,0.5
			C137.6,14.1,138.1,14.4,139.1,15.8z"/>
		<path fill="#FBB03B" d="M138.5,203.7c0,0.2-0.4,0.7-0.4,0.9c-0.2,0.5-0.4,1.1-0.6,1.6c-0.2,0.6-0.9,0.9-1.3,1.3
			c-0.4,0.4-0.8,0.9-1.4,1.1c-1,0.4-1.8-0.2-2.1-1.1c-0.1-0.4,0-0.7,0.3-1c0.4-0.5,0.6-1.1,1-1.6c0.5-0.5,1.2-0.8,1.8-1.1
			c0.8-0.3,1.8-1.3,2.5-0.4C138.5,203.6,138.5,203.7,138.5,203.7z"/>
		<path fill="#666666" d="M72.6,201.5c-3.2-2.6-4.6-3.9-5.4-4.4c-0.9-0.5-1.5-1.2-4.4-3.5c-1.8,1.5-8.7-0.1-10.9-7.3
			c-0.1-0.2,0-0.3,0.1-0.4c0.5-0.2,0.1-0.1,0.8-0.3c1-0.1,1.3,0,2.1,0.1c2.8,0.2,5,0.8,6.7,2.9c0.9,1,2.1,2.9,1.6,4.2
			c0,0.1,1.9,1.3,2.1,1.4c2.5,1.8,2.2,2.1,7.1,5.9c0.6,0.4,1.2,0.8,1.7,1.2c1,0.9,3.6,2.6,6,3.8c0.1-3-0.9-4.4-1.6-7
			c-0.2,0-1.1-0.7-1.3-0.8c-1.3-0.6-1.7-1.1-2.4-2.8c-0.2-0.6-0.2-0.6-0.4-1.2c-0.1-0.3-0.1-0.5-0.1-0.8c-0.1-1.9,0.8-3.5,1.2-4.6
			c0.4-1,0.4-0.9,0.6-2.1c0-0.2,0.3-0.3,0.4-0.1c1.6,1.6,3.1,1.7,3.9,4.4c0.3,1.4,0.1,2.1-0.2,3.6c-0.4,2-0.4,3.2-1.1,4.1
			c0.4,0.9,0.5,0.9,0.9,2.1c1.6-1.9,1.8-2.6,3.2-3.1c1.7-0.6,3.3-0.1,5.1-0.7c0.2,0,0.4-0.2,0.6-0.3c0.4-0.2,0.7,0.6,0.6,1
			c0,1.1-1.3,2.9-2,3.7c-0.6,0.8-1.8,1.8-2.6,2c-0.8,0.2-2.9,0.3-4.3-0.2c0.2,1.3,0.2,1.9,0.1,2.9c0,0.1,0,0.1-0.1,0.1
			c5.7,2.7,14.7,4.7,20,9c0.8,0.7,0.9,0.9,3.3,2.1c1.1,0.5,1.6,0.5,2.8,0.8c1.8,0.4,1,0.3,3.3,0.6c-1.4-5.2-0.7-4.7-3-10.4l-0.1,0
			c0.1,0.1,0.2,0.3,0.1,0.5c-0.1,0.3-0.3,0.6-0.6,0.8c-1.3,1.2-4.2,1.4-5.4,1.2c-0.2,0-1.3-0.3-1.5-0.4c-0.2-0.1-0.5-0.2-0.7-0.3
			c-1.4-0.6-0.8-0.4-1.4-0.6c-0.4-0.2-1-0.4-2-1.1c-0.4-0.3-0.2-0.9,0.4-0.8c1.5,0.3,3-1.2,4.8-2.2c0.9-0.4,1.6-0.6,2.7-0.6
			c0.8,0.1,1.7,0.3,2.4,0.8c-0.4-0.8-1.2-2.5-2.3-3.9c-1.1,0.5-3.2,0.2-5.3-1.5c-1.2-1.1-0.9-0.8-2.7-3.6c-0.3-0.5-0.9-1.6-1.2-2
			c-0.3-0.2-0.2-0.7,0.2-0.6c1.8,0.1,1.9,0.4,3.5,0.5c3.3,0.1,3.7,0.1,4.9,1c1.8,1.3,3.1,4.6,1.3,6c1.2,1.4,2.1,2.8,2.9,4.4
			c0.3-1.9,2.6-3.9,4.4-4.3c2.5-0.6,2.4-0.3,4-1.4c0.7-0.5,1.2,0.8,1.3,1.7c0,2.4-1.9,6.1-4.6,7c-1.2,0.3-2.9,0.4-4-0.2
			c0.9,2.6,1.1,4.5,1.6,5.8c0.1,0.3,0.2,0.6,0.3,0.9c0.1,0.4,0.5,2.1,0.8,3.9c1.1,0.2,5.1,0.6,5.2,0.6c0.6,0.1,1.2,0.3,1.8,0.3
			c1.4,0.1,4.5,0.2,7.9,0.2c0-0.1,0-0.1,0.1-0.2c-0.1-1.4,0-2.4-1.2-3.3c-0.4-0.2-0.9-0.3-1.3-0.4c-0.5-0.2-0.9-0.4-1.4-0.7
			c-0.9-0.6-1.7-1.4-2.2-2.4c-0.8-1.9,0.1-4.1,0.5-6.1c0.1-0.3,0.1-0.5,0.2-0.8c0-0.1,0.1-0.3,0.1-0.4c0-0.1,0-0.1,0-0.2
			c0-0.3,0.3-0.5,0.5-0.6c0.4-0.2,0.8,0.4,1.1,0.7c0.3,0.2,0.6,0.4,0.8,0.5c0.7,0.4,1.4,0.9,2,1.5c0,0,0,0,0.1,0.1
			c0.2,0.2,0.3,0.4,0.5,0.6c2.2,3.2,2.2,6.7,0.5,7.8c0.7,1.3,1.3,2.7,1,4c6.7-0.2,5-0.9,10-1.2c0.6,0.1,1,0.1,1,0.1
			c0.1,0,0.2,0.1,0.2,0.2c0,0.1-0.1,0.2-0.2,0.2c0,0-0.3,0-1,0c-5.1,0.5-3.3,1.2-12.5,1.8c-0.7,0.1-2.9,0.1-4.2,0
			c-0.4,0-2,1.8-2.3,2.1c-0.8,0.7-1.6,1.4-2.3,2c-1.2,1-2.1,1.9-0.6,3.3c0.5,0.5,1.1,1.2,1.2,2c0.1,0.9-0.5,1.3-0.7,2.1
			c-0.2,1,0.1,2.3-0.1,3.3c-0.2,1.1-0.4,2.3-0.8,3.3c-0.1,0.2-0.4,0.4-0.7,0.3c-0.6-0.2-0.9-0.5-1.6-1.1c-5.3-4.6-2.7-6-2.2-9.3
			c-1,0.6-2.8,1.6-3.3,1.8c-0.4,0.2-0.8,0.4-1.1,0.6c-1.1,0.6-3.7,1.3-5,1.6c0,1-0.5,1.4-1.2,2.4c-1,1.2-1.7,1.7-2.3,2.2
			c-0.7,0.4-0.5,0.3-1.1,0.5c-1.1,0.3-1.9,0-2.8-0.3c-0.3-0.1-1.2-0.5-1.5-0.7c-0.8-0.5-0.4-0.2-1.3-1c-0.5-0.4-1.2-1.4-1.7-1.8
			c-1.2-1.1-0.8-0.7-1.5-1.5c0-0.1-0.1-0.1-0.1-0.2c0-0.2,0.1-0.3,0.3-0.3c3.4,0,5.4-3.5,10-2.3c1.5,0.4,2.3,1.1,3.1,2
			c0.1,0.1,0.1,0.2,0.1,0.3c1-0.3,2.5-0.8,3.4-1.4c0.9-0.5,1.8-0.8,2.6-1.2c-0.4,0-1.3-0.1-2.6-0.4c-1.3-0.3-2.3-0.9-3.3-1.6
			c-2.7-2-4.1-6.7-3.1-6.5c3.5,0.8,8-0.6,11,3.9c0.3,0.5,1,1.9,0.8,2.9c3.4-2.1,6.6-4.6,9.7-7c-4.3-0.5-0.6,0.2-6.9-0.7
			c-1.6-0.2-4.1-0.7-4.8-0.9c-2.7-0.8-2.6-0.6-4.8-1.7c-0.3-0.2-1.7-1-1.8-1c-2.2-1.1-2.6-1.8-6.5-3.7c-0.5-0.2-1.9,0.1-2.5,0.2
			c-0.8,0.1-1.5,0.3-2.3,0.4c-1.2,0.3-2,1.2-1.1,2.3c0.5,0.6,0.8,1.2,1.3,1.7c0.6,0.8,1.2,0.9,0.9,1.9c-0.5,1.6-0.5,3.4-1,5
			c-0.1,0.2-0.2,0.3-0.4,0.3c-1,0.1-1.9-0.3-2.7-0.8c-1.4-0.9-2.9-2.6-2.9-4.3c-0.2-3.3,0.8-3.9,1.3-5.4c-0.1,0.3-3.2,0.1-3.6,0
			c-1.3-0.1-1.4,0.1-2.1,1.1c-0.7,1-1.3,0.6-2.5,1.6c-0.5,0.4-1,0.5-1.6,0.7c-1,0.3-1.5,0.6-2.4-0.3c-0.8-0.9-2.2-1.3-3.2-1.8
			c-2.2-1.2-2.4-1.1-2.8-1.6c-0.2-0.3-0.4-0.7-0.1-0.9c1.8-0.7,3.7-1.4,5.2-2.5c1.1-0.8,1.7-0.8,3-0.7c0.4,0,1.1,0.2,1.3,0.3
			c1.6,0.7,1.9,1.5,3.2,2.7c0,0,0,0.1,0.1,0.1c7.3,0.3,5.7-0.4,13.1-1c0.1,0,0.1,0,0.2,0c-8.4-3.7-11.9-3.9-19-9.3
			c-0.5,0.2-1.6,0.5-2.8,0.5c-0.2,4-9.6,5.2-11.4,2.2c-0.1-0.2-0.1-0.3-0.2-0.4c0-0.1,0-0.2,0-0.3c0.1-0.6,0.5-0.8,1.7-1.6
			c1-0.6,1.1-0.5,2.6-1.4c0.6-0.4,2.3-1.7,4.2-1c1.1,0.4,1.3,1.1,1.7,1.3c0.4,0.2,0.9,0.3,1.4,0.2C71.3,201.9,72.5,201.5,72.6,201.5
			z M125.8,215c0.7-0.4,0.9-1.2,0.9-2c-0.1-2-1.1-3.5-2.4-5c0,0-0.2-0.2-0.5-0.5c-1.3-1.1-0.8-1.1-2.3-2.4c-0.1,0.8-0.5,2.8-0.7,4.2
			c-0.2,1.5-0.2,2.4,0.7,3.7c0.8,1.1,2.1,2.2,3.5,2.2c-0.9-2.1-1.4-2.7-1.7-4.2c-0.1-0.2,0.3-0.3,0.3-0.1c0.2,0.6,0.4,1.1,0.7,1.7
			c0.2,0.4,1,0.5,1.1,1.1c0,0.2-0.1,0.4-0.1,0.5C125.3,214.3,125.8,215,125.8,215z M112.2,206.6c1.8-0.8,3.9-4.4,3.4-6
			c-1,0.5-2.3,0.3-4,0.8c-1.4,0.4-3,2-3.4,3.4c-0.1,0.4-0.1,0.7-0.1,1.1c0,0,0,0,0,0c0,0,0,0.1,0,0.1c1.1-0.7,3.1-1.2,4.7-2.9
			c0.2-0.2,0.6,0.2,0.3,0.3c0,0-0.3,0.2-0.8,0.6c-1.7,1.6-2.7,1.9-3.6,2.7C109.8,207.2,111.2,207,112.2,206.6z M113.8,237.5
			c0.7-2.5,1.4-8.7-1.3-10.5c0,0,0,0,0,0c0.5,3.4,0.4,2.3,0.6,5.9c0,0.2-0.3,0.3-0.4,0c-0.8-3.5-0.5-2.4-1.3-5.2
			c-0.1,0.1-0.2,0.1-0.3,0.2c-0.2,2.2-2,4.5-0.7,6.3c0.9,1.3,1.4,1.7,2.8,2.7C113.4,237.2,113.6,237.3,113.8,237.5z M108.6,227.2
			c-0.1-0.9-1.4-2.7-1.8-3.1c-2.1-2.8-5.5-2.3-8.9-3c0.1,1.3,2.2,4.2,3.5,5.2c0.6,0.4,0.3,0.2,0.9,0.6c1.7,1.1,4.9,1.5,5.7,1.2
			c-0.2-0.4-0.7-0.7-1.1-1c-3.1-2-2.6-1.8-3.7-2.2c-0.3-0.1-0.1-0.5,0.2-0.4c0.7,0.3,0,0,0.9,0.4c0.9,0.5,1.2,0.7,1.9,1
			C107.3,226.5,107.8,226.7,108.6,227.2z M106.7,206.6C106.7,206.6,106.7,206.6,106.7,206.6c0,0-0.1-0.1-0.1-0.1
			c-0.9-0.8-0.4-0.4-1.1-0.9c-0.7-0.3-0.8-0.3-1.3-0.4c-1.7-0.2-2.7,0.1-4,0.8c-0.9,0.5-2.1,1.3-3,1.6c0.4,0.3,1.2,0.7,1.5,0.7
			c1.4,0.4,1,0.3,2.1,0.5c0.6,0.1,0.2,0.1,1,0.1c0.7,0,3.6-0.2,4.8-1.2c0.1-0.1,0.1-0.1,0.2-0.1c-1.2-0.2-2.6,0.1-4,0
			c-0.2,0-0.6-0.1-0.9-0.1c-0.2-0.1-0.2-0.4,0-0.4C103.9,207.2,105.2,206.6,106.7,206.6z M103.6,200c1-0.3,1.1-1.6-0.6-3.4
			c-0.8-0.8-1.2-1.1-1.7-1.3c-1.2-0.4-0.9-0.4-3.3-0.6c-1.4-0.2-2.1-0.5-2.7-0.6c0.6,0.9,2.2,3.7,2.6,4c1.4,1.2,3.1,2.2,5,2
			c-0.3-0.3-1-1.1-1.6-1.6c-0.3-0.2,0.1-0.6,0.3-0.4c0,0,0.1,0.1,0.2,0.2C102.4,198.9,102.1,198.4,103.6,200z M99.8,232.8
			c0,0,0-0.1,0-0.1c-2,0.3-3,0.1-4,0.1c-0.4,0-0.3-0.5,0-0.5c1,0.1,2.1,0.1,3.8-0.2c0,0,0,0,0-0.1c-1.1-1.8-3.5-2.4-5.6-2
			c-1.9,0.4-3.7,2-5.8,2.3c0.2,0.2,0.8,0.7,1,0.8c0.3,0.2,0.4,0.3,1.7,1.5c1.3,0.9,0.6,0.4,1.4,0.8c0.4,0.2,2,0.8,2.6,0.7
			c0.4,0,0.9-0.1,1.2-0.2c0.9-0.5,0.3-0.1,2.6-1.9C99.1,233.8,99.7,233.2,99.8,232.8z M94.4,194c0.1,0,0.1,0.1,0.2,0
			C94.5,194,94.5,194,94.4,194z M89.1,197.7c0.1-0.4,0.2-0.7,0-1.1c-1.4,1-4.1,0.6-6.3,2c-0.4,0.2-0.8,0.4-2.2,2l0,0.1
			c1.5-0.7,3.2-1.2,4.7-1.8c0.3-0.1,0.4,0.3,0.2,0.4c-2.5,1.2-2.9,1.3-4.5,2.2c1,0.3,3.3,0.5,4.2-0.1c0.2-0.1,0.4-0.3,0.6-0.4
			C86.9,200.1,88.6,198.9,89.1,197.7z M88.8,223.5c0.2-1.3,0.2-3.1-0.1-5c-0.3-1.6-0.9-3.1-2.2-4.3c0,1.6,0.3,3.1,0.7,5.1
			c0,0.1-0.1,0.3-0.2,0.3s-0.3,0-0.3-0.2c-0.5-2.1-0.8-3.2-1.1-4.7c-0.7,1.8-1.6,1.7-1.4,4.7C84.2,221.4,87.2,223.6,88.8,223.5z
			 M79.2,193.6c0.5-1.8,0.7-2.3,0.5-3.5c-0.5-1.9-1.7-2.2-3.2-3.5c-0.3,2.1-1.6,3.9-1.3,6c0,0.2,0.1,0.5,0.2,0.7
			c0.4,1.4,1.1,2.2,2.5,3c-0.5-1.4-0.5-2.1-0.7-3.2c0-0.2,0.1-0.3,0.3-0.3c0.2,0,0.3,0.1,0.3,0.3c0.1,0.6,0.1,1.6,0.8,3.5
			C78.8,196,78.7,195,79.2,193.6z M78.9,213.6C78.9,213.6,78.9,213.6,78.9,213.6c-2.8-0.5-3.8-0.4-5.1-0.3c-0.3,0-0.3-0.4,0-0.4
			c3.3,0,1.6,0,4.9-0.1c-1.1-1-1.5-1.5-2.6-1.8c-0.9-0.1-1.1,0.1-1.8,0.1c-0.3,0-0.5,0.1-0.8,0.1c-0.6,0.1-0.3,0.1-1.1,0.2
			c-0.1,0-2,0.6-3,1l-0.8,0.4l-1.3,0.6c0.2,0.3,0.8,0.5,1.1,0.6c0.4,0.1,0.8,0.3,1.7,0.7c1,0.4,0.4,0.2,2.7,1l0,0
			c1.6,0.4,2.9,0.5,4.5-0.5C77.9,214.8,78.5,214.3,78.9,213.6z M69.9,203.1C69.8,203,69.8,203,69.9,203.1c-1.5,0-1.5,0-2.4,0.2
			c-0.3,0.1-0.4-0.3-0.1-0.4c0.6-0.2,0.7-0.2,1.5-0.4c-0.5-0.7-1.1-1-2-1c-0.6,0-2.1,0.5-2.7,0.8c-0.7,0.3-1,0.8-2.7,1.4
			c-0.6,0.2-1,0.4-1.3,0.8c0,0,0,0.1-0.1,0.1c0,0,0,0,0,0.1c0,0,0,0,0,0c0.1,0.2,0.1,0.3,0.4,0.5C62.1,206.6,69.2,205.4,69.9,203.1z
			 M62.2,192.2c-0.1-0.9-1.1-2.5-2.4-3.6c-0.4-0.3-0.7-0.5-1-0.7c-1.1-0.6-1.2-0.9-3.1-1.3c-1.6-0.3-2.6-0.4-3.1-0.2
			c1.8,5,7.9,7,9.3,6.4c-1.9-1.5-3.2-2.1-3.2-2.1c-0.3-0.2,0-0.6,0.2-0.4C59.5,190.6,60.9,191.3,62.2,192.2z"/>
		<path fill="#FBB03B" d="M138.1,200.6c0,0.2,0,0.3,0,0.4c-0.2,0.4-0.9,0.4-1.4,0.5c-0.6,0.1-1.2,0.1-1.9,0.1c-1.5,0-3.3,0-3.3-1.9
			c0-1,0.5-1,1.4-1c0.6,0,1.2,0.1,1.8,0.3c0.7,0.2,1.4,0.3,2.1,0.6C137.3,199.8,138,200.1,138.1,200.6z"/>
		<path fill="#8CC63F" d="M128,37c1,1.4,0.9,2.2,0.8,3.7c-0.2,1.4-0.6,3.3-0.7,4.2c-1.5-1.3-1-1.3-2.3-2.4c-0.3-0.3-0.5-0.5-0.5-0.5
			c-1.2-1.5-2.3-3-2.4-5c0-0.7,0.2-1.6,0.8-2c0,0,0.5,0.7,0.5,0.8c0,0.2-0.1,0.3-0.1,0.5c0.1,0.5,0.8,0.6,1.1,1.1
			c0.3,0.5,0.5,1.1,0.7,1.6c0.1,0.2,0.4,0.1,0.4-0.1c-0.3-1.5-0.8-2.1-1.7-4.2C125.9,34.9,127.2,36,128,37z"/>
		<path fill="#8CC63F" d="M126.6,213c0,0.7-0.2,1.6-0.9,2c0,0-0.5-0.7-0.5-0.8c0-0.2,0.1-0.3,0.1-0.5c-0.1-0.5-0.8-0.6-1.1-1.1
			c-0.3-0.5-0.5-1.1-0.7-1.7c-0.1-0.2-0.4-0.1-0.3,0.1c0.3,1.5,0.8,2.1,1.7,4.2c-1.4,0-2.7-1.1-3.5-2.2c-1-1.4-0.9-2.2-0.7-3.7
			c0.2-1.4,0.6-3.4,0.7-4.2c1.5,1.3,1,1.3,2.3,2.4c0.3,0.3,0.5,0.5,0.5,0.5C125.5,209.6,126.6,211.1,126.6,213z"/>
		<path fill="#666666" d="M122.1,9.7c3.5,0.1,5.2,4.6,2.9,6.2c-0.5,0.3-0.8,0.5-1.3,0.6c-0.3,0.1-0.6,0-0.7-0.3
			c-0.1-0.3,0.1-0.7,0.5-0.7c4.7-0.2,0.8-8-3-4.5c-0.1,0.1-0.3,0.3-0.4,0.5c-3.5,4.5,1.6,9.5,4.4,14.5c0.1,0.2,0,0.4-0.3,0.3
			c-1.4-0.4-6.4-6-17.5-7.8c-1-0.1-4.7-0.6-6.8-0.2c-0.7,0.2-0.1,0-1.3,0.4l0,0c-1.4,0.8-0.9,0.5-1.3,0.9c-0.1,0.1-0.3,0.2-0.4,0.4
			c-0.7,0.8-0.4,0.4-0.7,1c-0.8,1.4-0.6,3.4,0.5,4.5c0.2,0.3,0.5,0.6,0.8,0.8c0.2,0.1,0.3,0.2,0.5,0.3c1.7,1.1,4.7,1.4,6.5,0
			c0.7-0.6,0.8-1.1,0.9-1.5c0-0.5,0-0.1-0.1-0.5c0,0,0-0.1,0-0.1c-0.1-0.2-0.1-0.4-0.3-0.6c-0.5-0.8-1.8-1.7-2.5-1
			c0,0.1-0.1,0.1-0.2,0.2c0,0-0.1,0.2-0.1,0.2c0,0.1,0,0.2,0,0.3c0,0.3-0.1,0.5-0.4,0.7c-0.2,0.2-0.2,0.1-0.4,0.1
			c-0.1,0-0.1,0-0.2,0c-0.5-0.1-0.3-1-0.1-1.5c0.1-0.2,0.2-0.3,0.3-0.4c0.1-0.1,0.1-0.1,0.2-0.2c1.8-1.5,4,0.8,4.2,2.2
			c0,0.4,0.1,0.5,0,1c-0.3,1.7-2.7,2.7-4.3,2.6c-0.9,0-0.3,0.1-1.7-0.1c-0.2,0-1-0.3-1.2-0.3c-0.8-0.4-0.7-0.3-1.1-0.6
			c-0.2-0.1-0.3-0.2-0.5-0.4c-0.3-0.3-0.6-0.6-0.8-0.9c-0.3-0.3-0.4-0.7-0.6-1.1c-0.1-0.2-0.1-0.4-0.2-0.6c-0.1-0.2-0.1-0.4-0.2-0.6
			c-0.1-0.4-0.1-0.9-0.2-1.3c0-0.2,0-0.5,0-0.7c0-0.2,0.1-0.5,0.1-0.7c0.2-0.7-0.1,0,0.4-1.4c0.1-0.2,0.6-1.1,0.8-1.3
			c0.5-0.7,0.4-0.6,0.6-0.8c1.1-1.1,1-0.9,1.6-1.3c4.9-3.5,14.4-0.3,18.9,2.9c-0.9-1.8-1.4-3.9-0.7-5.8c0.1-0.3,0.2-0.5,0.4-0.8
			c0.4-0.6,0.2-0.3,0.5-0.7c0.5-0.5,0.3-0.3,0.6-0.5c0.2-0.2,0.4-0.3,0.7-0.4c0.5-0.2,0.3-0.2,1-0.4C120.8,9.8,121.5,9.7,122.1,9.7z
			"/>
		<path fill="#5A698B" d="M117.2,42.3c3.6,3-3.8,3.1-2.5,5.6c0.8,1.5,3.3,0.5,2.7,3c-0.3,1.4-2.1,3.1-3.6,3c-1.5,0-1.3-1-2-1.7
			c-2.4-2.3-2.3,4.6-6,1.4c-2-1.8,0.1-2.2,1.2-3.4c1.2-1.2,0.5-1.8-0.9-1.8c-0.9,0-4.4,1-4.7-0.8c-0.4-2.1,3.7-2.2,4.8-2
			c4.8,0.7-0.4-2.2,1.1-4.5c0.8-1.2,2.4-1.8,3.5-0.4c0.9,1.2-0.6,2.7,0.1,3.6C112.3,46.4,114.2,39.8,117.2,42.3z M111.8,49.9
			c1.9-1,0.2-4.6-1.7-3C108.5,48.2,109.8,50.9,111.8,49.9z"/>
		<path fill="#8CC63F" d="M115.7,200.6c0.4,1.6-1.6,5.3-3.4,6c-1,0.3-2.5,0.6-3.4,0c0.8-0.7,1.9-1.1,3.6-2.7
			c0.4-0.4,0.8-0.6,0.8-0.6c0.3-0.2-0.1-0.6-0.3-0.3c-1.6,1.7-3.6,2.2-4.7,2.9c0,0,0-0.1,0-0.1c0,0,0,0,0,0c0-0.3,0-0.7,0.1-1.1
			c0.4-1.4,2-2.9,3.4-3.4C113.4,201,114.7,201.1,115.7,200.6z"/>
		<path fill="#8CC63F" d="M112.5,227c2.8,1.8,2,8,1.3,10.5c-0.2-0.2-0.4-0.3-0.6-0.5c-1.4-1-1.9-1.4-2.8-2.7
			c-1.3-1.8,0.5-4.1,0.7-6.3c0.1-0.1,0.2-0.2,0.3-0.2c0.8,2.8,0.6,1.7,1.3,5.2c0,0.2,0.4,0.2,0.4,0
			C112.8,229.3,112.9,230.4,112.5,227C112.4,227,112.5,227,112.5,227z"/>
		<path fill="#8CC63F" d="M106.8,224.2c0.3,0.4,1.6,2.2,1.8,3.1c-0.7-0.6-1.3-0.8-2.3-1.2c-0.7-0.3-1-0.6-1.9-1
			c-0.9-0.5-0.2-0.1-0.9-0.4c-0.3-0.1-0.5,0.3-0.2,0.4c1.1,0.4,0.6,0.2,3.7,2.2c0.4,0.3,0.8,0.6,1.1,1c-0.8,0.2-3.9-0.2-5.7-1.2
			c-0.6-0.3-0.3-0.1-0.9-0.6c-1.4-1-3.4-3.9-3.5-5.2C101.4,221.8,104.7,221.3,106.8,224.2z"/>
		<path fill="#666666" d="M79.7,48.5c-0.8,0.7-2.1,2.6-2.1,3.7c0,0.2,0.1,0.5,0.1,0.8c0.2,1.4,0.4,3.5,1.3,4.5
			c0.2,0.3,0.5,0.5,0.9,0.5c-0.2-1.7,1.5-3.8,1.4-6.5c0-0.5,0-0.9-0.7-2.9l-0.1-0.1c-0.2,1.6-0.6,3.4-0.8,5c0,0.3-0.4,0.2-0.4,0
			C79.4,50.7,79.6,50.3,79.7,48.5z M79.5,64c0,0-0.1,0.1-0.1,0.1C79.4,64,79.4,64,79.5,64z M107.4,31c0.2,0,0.2,0.2,0.2,0.3
			c-0.1,0.5,0.1,0.2-0.1,0.8c-0.4,0.9-0.7,1.1-1.1,1.8c-1.6,2.3-3.2,3.9-5.9,4.4c-1.4,0.2-3.6,0.3-4.5-0.7c0-0.1-2.1,1-2.3,1.1
			c-2.9,1.3-2.9,0.9-8.6,3.2c-0.6,0.3-1.2,0.6-1.9,0.8c-1.3,0.4-4.1,1.8-6.3,3.3c2.6,1.6,4.3,1.5,6.9,2.1c0.2-0.2,1.2-0.6,1.4-0.7
			c1.2-0.8,1.8-0.9,3.6-0.7c0.6,0.1,0.6,0.1,1.2,0.3c0.3,0.1,0.5,0.2,0.7,0.3c1.7,0.8,2.6,2.4,3.4,3.3c0.7,0.8,0.6,0.8,1.6,1.6
			c0.2,0.1,0.1,0.4-0.1,0.5c-2.2,0.5-3,1.8-5.8,1.2c-1.4-0.5-1.9-1-3-1.9c-1.5-1.4-2.6-1.9-3-3c-1-0.1-1,0-2.3-0.2
			c0.8,2.3,1.3,2.8,1.1,4.3c-0.3,1.8-1.6,2.9-2,4.8c0,0.2,0,0.4,0,0.6c0,0.4-0.8,0.3-1.2,0.1c-1-0.6-1.8-2.6-2.2-3.6
			c-0.4-0.9-0.6-2.4-0.4-3.2c0.2-0.8,1.2-2.6,2.4-3.6c-1.2-0.4-1.8-0.8-2.6-1.4c0,0-0.1-0.1-0.1-0.1c-5.2,3.5-11.4,10.3-17.8,12.8
			c-1,0.4-1.3,0.3-3.5,1.8c-1,0.8-1.3,1.1-2.1,2c-1.3,1.3-0.8,0.8-2.2,2.5c5.2,1.4,4.4,1.8,10.5,2.6l0.1-0.1c-0.2,0.1-0.4,0-0.5-0.1
			c-0.2-0.3-0.3-0.6-0.4-0.9c-0.4-1.7,0.9-4.4,1.7-5.3c0.1-0.2,0.9-0.9,1.1-1.1c0.2-0.2,0.4-0.3,0.6-0.5c1.2-1,0.8-0.5,1.2-0.9
			c0.4-0.3,0.9-0.7,2-1.2c0.4-0.2,0.9,0.3,0.5,0.7c-1,1.1-0.4,3.2-0.5,5.2c-0.1,1-0.3,1.7-0.9,2.7c-0.5,0.6-1.1,1.3-1.9,1.7
			c0.9,0.1,2.8,0.2,4.5,0c0.1-1.2,1.4-2.9,4-3.9c1.5-0.5,1.2-0.4,4.4-0.5c0.6,0,1.8,0,2.3-0.1c0.3-0.2,0.7,0.2,0.5,0.5
			c-1,1.5-1.3,1.5-2.2,2.8c-1.7,2.8-1.9,3.2-3.3,3.8c-2,0.9-5.5,0.4-5.8-1.9c-1.8,0.4-3.5,0.4-5.2,0.3c1.5,1.2,2.1,4.2,1.6,5.9
			c-0.8,2.5-0.9,2.2-0.8,4.2c0.1,0.8-1.3,0.7-2.1,0.3c-2.1-1.2-4.4-4.7-3.8-7.4c0.3-1.2,1.1-2.7,2.2-3.3c-2.7-0.5-4.5-1.3-5.8-1.5
			c-0.3-0.1-0.6-0.1-0.9-0.2c-0.4-0.1-2.1-0.6-3.8-1.3c-0.7,0.9-3.1,4.1-3.2,4.2c-0.4,0.5-0.8,0.9-1.1,1.4c-0.8,1.2-2.5,3.8-4.2,6.8
			c0,0,0.1,0.1,0.2,0.2c1.3,0.7,2.1,1.2,3.5,0.6c0.4-0.2,0.7-0.6,1-0.9c0.4-0.3,0.8-0.6,1.3-0.9c1-0.5,2.1-0.8,3.2-0.6
			c2.1,0.2,3.6,2.1,5,3.5c0.2,0.2,0.4,0.4,0.6,0.5c0.1,0.1,0.2,0.2,0.3,0.3c0.1,0.1,0.1,0,0.2,0.1c0.2,0.1,0.3,0.6,0.3,0.8
			c-0.1,0.5-0.8,0.5-1.1,0.6c-0.3,0.1-0.6,0.3-0.9,0.5c-0.7,0.4-1.5,0.8-2.3,1c0,0,0,0-0.1,0C52.6,84,52.3,84,52.1,84
			c-3.9,0.3-6.9-1.4-7-3.5c-1.5,0-3-0.2-3.9-1.1c-3.2,5.9-1.7,4.8-4,9.2c-0.4,0.5-0.6,0.8-0.6,0.8c-0.1,0.1-0.2,0.1-0.3,0.1
			c-0.1-0.1-0.1-0.2-0.1-0.3c0,0,0.2-0.3,0.5-0.8c2.1-4.7,0.6-3.4,4.7-11.7c0-0.1,0.1-0.2,0.1-0.3c0.4-0.8,1.3-2.4,2-3.3
			c0.2-0.3-0.6-2.6-0.6-3.1c-0.2-1-0.4-2-0.6-3c-0.3-1.5-0.6-2.7-2.5-2.2c-0.7,0.2-1.6,0.3-2.3,0.1c-0.9-0.3-0.9-1.1-1.4-1.6
			c-0.7-0.7-2-1.1-2.8-1.7c-0.9-0.7-1.8-1.5-2.5-2.4c-0.2-0.2-0.2-0.5,0-0.7c0.5-0.5,0.9-0.5,1.8-0.8c6.6-2.2,6.5,0.7,9.2,2.8
			c0-1.2,0-3.2,0.1-3.8c0-0.4,0-0.9,0-1.3c0.1-1.3,0.8-3.9,1.2-5.1c-0.9-0.5-1-1.1-1.4-2.2c-0.5-1.5-0.6-2.3-0.7-3.1
			c0-0.8,0-0.6,0.2-1.2c0.3-1.1,0.9-1.6,1.7-2.3c0.2-0.2,1-0.8,1.4-0.9c0.8-0.4,0.3-0.2,1.5-0.7c0.6-0.2,1.8-0.4,2.4-0.6
			c1.5-0.4,1-0.3,2-0.5c0.1,0,0.1,0,0.2,0c0.1,0.1,0.2,0.2,0.1,0.4c-1.7,3,0.4,6.4-3,9.8c-1.1,1.1-2.1,1.5-3.3,1.7
			c-0.2,0-0.2,0-0.4-0.1c-0.2,1.1-0.5,2.6-0.5,3.7c0,1-0.2,1.9-0.2,2.8c0.2-0.3,0.8-1.1,1.7-2c1-1,1.9-1.5,3-2.1
			c3.1-1.4,7.8-0.2,7.2,0.5c-2.5,2.6-3.5,7.2-8.9,7.5c-0.6,0.1-2.1-0.1-2.9-0.7c0.1,4,0.6,8,1.2,11.9c2.6-3.5,0.2-0.6,4.1-5.6
			c1-1.3,2.7-3.2,3.2-3.7c2-1.9,1.8-2,3.8-3.3c0.3-0.2,1.7-1,1.8-1c2.1-1.4,2.9-1.3,6.5-3.8c0.5-0.3,0.8-1.7,1-2.2
			c0.3-0.7,0.5-1.5,0.8-2.2c0.4-1.2,0-2.3-1.5-2.1c-0.7,0.1-1.4,0.1-2.1,0.2c-1,0.2-1.4,0.6-2.1-0.2c-1.1-1.3-2.6-2.2-3.8-3.4
			c-0.1-0.1-0.1-0.3-0.1-0.5c0.4-0.9,1.2-1.5,2-1.9c1.4-0.8,3.7-1.2,5.2-0.4c3,1.5,3,2.7,4,3.8c-0.2-0.3,1.5-2.8,1.8-3.1
			c0.8-1,0.7-1.2,0.1-2.4c-0.6-1.1,0.1-1.4-0.1-3c-0.1-0.7,0-1.1,0.2-1.8c0.2-1.1,0.3-1.6,1.4-1.9c1.1-0.3,2.2-1.2,3.1-1.9
			c2.1-1.3,2.2-1.5,2.8-1.7c0.3-0.1,0.8,0,0.8,0.4c-0.2,1.9-0.6,3.9-0.4,5.8c0.1,1.3-0.2,1.9-0.9,3c-0.2,0.3-0.8,0.8-1,1
			c-1.5,1.1-2.2,0.9-3.9,1.4c0,0-0.1,0-0.1,0c-3.9,6.2-2.5,5.1-5.7,11.9c0,0.1,0,0.1-0.1,0.2c7.4-5.4,9.3-8.3,17.5-11.8
			c0.1-0.6,0.4-1.7,0.9-2.7c-3.4-2.1,0.2-10.9,3.8-11c0.2,0,0.3,0,0.4,0.1s0.2,0.1,0.3,0.1c0.5,0.4,0.4,0.8,0.5,2.3
			c0.1,1.1-0.1,1.2-0.1,3c0,0.7,0.3,2.8-1.2,4.2c-0.9,0.8-1.6,0.6-2,0.8c-0.4,0.2-0.8,0.6-0.9,1.1c0,0.1-0.3,1.5-0.3,1.5
			c3.9-1.5,5.7-2,6.5-2.5c0.9-0.5,1.8-0.7,5.2-2C95.3,34.5,100.2,29.3,107.4,31z M107.1,31.5c-5.2-1-10,3.4-10.2,4.8
			c2.3-0.9,3.4-1.7,3.4-1.7c0.3-0.2,0.6,0.3,0.2,0.4c-0.6,0.3-1.9,1.1-3.4,1.9c0.8,0.4,2.7,0.3,4.3-0.2c0.5-0.1,0.8-0.4,1.1-0.5
			c1.1-0.7,1.4-0.6,2.7-2.1C106.3,32.9,107,32.1,107.1,31.5z M94.9,52.1c-1.7-1.3-2.6-3.3-4.6-4.1c-0.2-0.1-0.5-0.2-0.7-0.2
			c-1.4-0.3-2.4-0.2-3.9,0.7c1.5,0.3,2.1,0.5,3.1,1c0.2,0.1,0.2,0.2,0.1,0.4C89,50,88.8,50,88.7,50c-0.6-0.2-1.5-0.7-3.5-1
			c0.4,0.4,1.3,0.9,2.3,2c1.3,1.4,1.6,1.8,2.8,2.2C92.3,53.6,93.1,52.7,94.9,52.1z M87.7,30.6c0.1-0.6,0.2-1.1,0-1.6
			c0,0,0-0.1-0.1-0.1c0,0,0,0,0,0c0,0,0,0,0,0c-0.3,0-0.3,0-0.6,0.1c-2.2,0.7-4.7,7.4-3,9.1c0,0,0,0,0.1,0c0.7-1.2,0.7-1.2,1-2.1
			c0.1-0.3,0.5-0.1,0.4,0.1c-0.1,0.7-0.1,0.7-0.4,1.5c0.8-0.1,1.4-0.4,1.8-1.2c0.3-0.5,0.6-2.1,0.7-2.7
			C87.6,32.9,87.3,32.4,87.7,30.6z M77.1,66.7c0.8-1.1,1.5-1.6,1.9-2.1c-1.1,0-4.3,0-4.8,0.2c-1.8,0.6-3.5,1.6-4.2,3.3
			c0.5-0.1,1.5-0.3,2.2-0.6c0.3-0.1,0.5,0.4,0.2,0.5c0,0-0.1,0-0.2,0.1c-0.8,0.2-0.2,0.2-2.4,0.8c-0.2,1,0.9,1.7,3.3,1.2
			c1-0.2,1.5-0.5,1.9-0.8l0,0C75.9,68.4,75.7,68.6,77.1,66.7z M76.3,32.2l0.1-1.5c-0.3,0-0.8,0.4-1.1,0.7c-0.3,0.3-0.7,0.5-1.5,1.1
			c-0.9,0.7-0.4,0.3-2.3,1.8c0,0,0,0,0,0c-1.2,1.2-1.9,2.3-1.8,4.1c0,0.8,0.2,1.6,0.5,2.2c0,0,0,0,0,0c1.8-2.2,2.2-3.1,2.8-4.3
			c0.1-0.2,0.5,0,0.4,0.2c-1.7,2.9-0.8,1.4-2.3,4.3c1.4-0.4,2-0.6,2.9-1.4c0.6-0.7,0.5-1,0.8-1.6c0.1-0.2,0.2-0.5,0.3-0.8
			c0.2-0.6,0.1-0.3,0.4-1c0,0,0.5-2,0.6-3.1L76.3,32.2z M66.2,62.9c0-1.1-0.1-2.5,0.1-3.4c-0.4,0.2-1.2,0.7-1.4,0.9
			c-1.1,1-0.8,0.7-1.5,1.5c-0.4,0.5-0.1,0.1-0.6,0.8c-0.3,0.6-1.6,3.2-1.4,4.7c0,0.1,0,0.2,0,0.3c0.8-1,1.2-2.3,2-3.5
			c0.1-0.2,0.4-0.5,0.6-0.7c0.2-0.2,0.5,0,0.3,0.3c-1.1,1.7-1.2,3.2-1.9,4.5c0,0,0,0,0,0c0,0,0.1,0,0.1-0.1c1.1-0.4,0.5-0.2,1.3-0.5
			c0.6-0.4,0.6-0.5,1-0.9C66,65.4,66.2,64.3,66.2,62.9z M66.1,46c-1.2-1.5-0.6-2.2-3.3-3.5c-1.9-1.1-5.3,0.4-6,1.8
			c1,0.8,2.6,1.7,4.4,2.4c1.6,0.5,3.1,0.8,4.8,0.3c-1.4-0.9-2.8-1.3-4.7-2c-0.1,0-0.2-0.2-0.2-0.3c0-0.1,0.2-0.2,0.3-0.2
			C63.5,45.2,64.6,45.5,66.1,46z M64.5,75.2c0.3-1.4-0.2-3.6-1.2-4.6c-0.2-0.3-0.6-0.5-0.9-0.6c0,0-0.1,0-0.1,0
			c0.1,1.3-0.5,3.3,0.2,5.5c0.1,0.3-0.4,0.4-0.4,0.1c0,0,0-0.4-0.1-1c-0.5-2.3-0.3-3.3-0.5-4.4c-0.9,0.5-1.5,1.9-1.7,2.9
			c-0.3,2,1.9,5.6,3.5,6C63.2,77.9,64,76.9,64.5,75.2z M56.4,81.7c-0.7-0.5-2.2-1.8-3.3-2.7c-1.2-0.9-1.9-1.4-3.6-1.2
			c-1.3,0.1-2.9,0.7-3.6,1.9c2.3,0.3,3,0.2,4.5,0.6c0.2,0.1,0.1,0.4-0.1,0.4c-0.6-0.1-1.2-0.2-1.8-0.2c-0.5,0-1,0.6-1.5,0.4
			c-0.2-0.1-0.3-0.3-0.4-0.4c-0.1,0-1,0-1,0c0,0.8,0.6,1.4,1.3,1.7c1.7,0.9,3.6,0.7,5.5,0.4c0,0,0.3-0.1,0.7-0.2
			C54.7,81.9,54.5,82.3,56.4,81.7z M54.2,53.4c-1.2-0.5-4.8-0.2-6.3,0.5c-0.7,0.3-0.4,0.2-1,0.5c-1.8,1-3.7,3.5-3.9,4.3
			c0.5,0,1-0.2,1.4-0.4c3.3-1.7,2.9-1.3,3.8-2.1c0.2-0.2,0.5,0.2,0.3,0.3c-0.7,0.5,0,0-0.8,0.6c-0.9,0.6-1.2,0.7-1.9,1.1
			c-0.9,0.6-1.4,1-2.2,1.4c0.8,0.3,3.1,0.1,3.5,0C50.7,59.1,51.9,56,54.2,53.4z M48.5,45.6c0.6-1.9,0.1-4.2,1-6.2
			c-0.3,0.1-1,0.4-1.2,0.5c-0.3,0.2-0.5,0.2-2.2,0.7c-1.4,0.7-0.7,0.3-1.4,0.8c-0.4,0.2-1.7,1.4-2,1.9c-0.2,0.3-0.4,0.8-0.4,1.1
			c0,1-0.1,0.3,0.3,3.2c0.1,0.4,0.3,1.2,0.6,1.5c0,0,0.1,0,0.1,0c0.8-1.9,1.5-2.7,1.9-3.5c0.2-0.3,0.6,0,0.4,0.3
			c-0.6,0.8-1.2,1.8-1.7,3.5c0,0,0,0,0.1,0C46.1,49.3,47.9,47.6,48.5,45.6z M41.9,63C41.9,63,41.9,63,41.9,63
			c-3.2-1.3-2.2-0.8-5.5-2.4c-0.2-0.1-0.1-0.4,0.1-0.3c3.4,1.1,2.4,0.8,5.2,1.4c0-0.1,0-0.3,0-0.4c-1.8-1.3-2.9-4-5.1-3.8
			c-1.6,0.1-2.2,0.4-3.8,1.1c-0.3,0.1-0.5,0.2-0.7,0.3C34,60.8,39,64.5,41.9,63z"/>
		<path fill="#8CC63F" d="M106.6,206.5C106.7,206.6,106.7,206.6,106.6,206.5c-1.5,0-2.8,0.7-4.8,0.6c-0.3,0-0.3,0.4,0,0.4
			c0.2,0,0.7,0.1,0.9,0.1c1.5,0.1,2.8-0.2,4,0c-0.1,0-0.1,0.1-0.2,0.1c-1.1,0.9-4.1,1.2-4.8,1.2c-0.8,0-0.4,0-1-0.1
			c-1-0.2-0.7-0.1-2.1-0.5c-0.3-0.1-1.1-0.5-1.5-0.7c0.9-0.3,2.1-1.1,3-1.6c1.3-0.7,2.3-1,4-0.8c0.5,0.1,0.6,0.1,1.3,0.4
			C106.1,206.1,105.7,205.7,106.6,206.5C106.6,206.5,106.6,206.5,106.6,206.5z"/>
		<path fill="#8CC63F" d="M96.8,36.3c0.2-1.4,5-5.8,10.2-4.8c-0.1,0.5-0.7,1.3-1.8,2.6c-1.3,1.5-1.7,1.4-2.7,2.1
			c-0.3,0.1-0.6,0.4-1.1,0.5c-1.6,0.6-3.5,0.7-4.3,0.2c1.4-0.7,2.8-1.6,3.4-1.9c0.3-0.2,0.1-0.6-0.2-0.4
			C100.3,34.7,99.1,35.4,96.8,36.3z"/>
		<path fill="#8CC63F" d="M103,196.6c1.7,1.8,1.6,3.1,0.6,3.4c-1.6-1.6-1.2-1.1-1.8-1.7c-0.1-0.1-0.2-0.2-0.2-0.2
			c-0.2-0.2-0.6,0.1-0.3,0.4c0.6,0.5,1.3,1.3,1.6,1.6c-1.9,0.2-3.5-0.8-5-2c-0.4-0.4-2-3.1-2.6-4c0.6,0.1,1.3,0.4,2.7,0.6
			c2.4,0.2,2.1,0.2,3.3,0.6C101.8,195.5,102.2,195.8,103,196.6z"/>
		<path fill="#8CC63F" d="M99.7,232.7c0,0.1,0,0.1,0,0.1c0,0.4-0.6,1-0.9,1.3c-2.3,1.8-1.8,1.4-2.6,1.9c-0.3,0.1-0.8,0.2-1.2,0.2
			c-0.6,0-2.2-0.5-2.6-0.7c-0.8-0.4-0.1,0-1.4-0.8c-1.3-1.2-1.4-1.3-1.7-1.5c-0.2-0.2-0.8-0.6-1-0.8c2.2-0.3,3.9-1.9,5.8-2.3
			c2-0.4,4.4,0.2,5.6,2c0,0,0,0.1,0,0.1c-1.7,0.4-2.8,0.4-3.8,0.2c-0.4,0-0.4,0.5,0,0.5C96.7,232.8,97.7,233,99.7,232.7z"/>
		<path fill="#666666" d="M90.3,16.4C90.3,16.4,90.3,16.4,90.3,16.4c-1,2.2-1,3.6-1.5,6.4c0,0.2-0.3,0.2-0.3,0
			c-0.7-4.4-1.8-6.5,0.9-12.2c0.5-1.1,1.8-1.6,2.9-1c0.4,0.2,0.8,0.4,1,0.8c0.3,0.5,0.2,1.1,0.2,1.7c-0.1,0.6-0.5,1-0.9,1.4
			C91.1,14.8,90.6,15.8,90.3,16.4C90.3,16.4,90.3,16.4,90.3,16.4z"/>
		<path fill="#8CC63F" d="M90.4,48c2,0.8,2.8,2.8,4.6,4.1c-1.9,0.6-2.7,1.5-4.6,1c-1.2-0.4-1.5-0.8-2.8-2.2c-1-1.1-1.9-1.6-2.3-2
			c2,0.3,2.9,0.8,3.5,1c0.2,0.1,0.3,0,0.4-0.1c0.1-0.1,0-0.3-0.1-0.4c-1.1-0.5-1.7-0.7-3.1-1c1.5-0.8,2.5-1,3.9-0.7
			C89.9,47.8,90.1,47.9,90.4,48z"/>
		<path fill="#666666" d="M90.3,16.4C90.3,16.4,90.3,16.4,90.3,16.4C90.3,16.4,90.3,16.4,90.3,16.4z"/>
		<path fill="#8CC63F" d="M89.1,196.6c0.2,0.3,0.1,0.7,0,1.1c-0.5,1.3-2.1,2.4-3.2,3.4c-0.2,0.2-0.4,0.3-0.6,0.4
			c-0.9,0.6-3.2,0.4-4.2,0.1c1.6-0.9,2-0.9,4.5-2.2c0.3-0.1,0.1-0.5-0.2-0.4c-1.4,0.6-3.2,1.1-4.7,1.8l0-0.1c1.4-1.6,1.7-1.8,2.2-2
			C85,197.3,87.7,197.6,89.1,196.6z"/>
		<path fill="#8CC63F" d="M88.7,218.5c0.3,1.9,0.2,3.8,0.1,5c-1.6,0.1-4.6-2.1-4.6-4.3c-0.2-3,0.7-2.8,1.4-4.7
			c0.2,1.5,0.6,2.7,1.1,4.7c0,0.2,0.2,0.2,0.3,0.2s0.2-0.2,0.2-0.3c-0.4-1.9-0.7-3.4-0.7-5.1C87.9,215.4,88.4,216.9,88.7,218.5z"/>
		<path fill="#8CC63F" d="M87.7,29.1c0.2,0.5,0.1,1,0,1.6c-0.3,1.7-0.1,2.3-0.1,3c0,0.6-0.4,2.2-0.7,2.7c-0.4,0.8-1,1.1-1.8,1.2
			c0.3-0.8,0.2-0.8,0.4-1.5c0.1-0.3-0.3-0.4-0.4-0.1c-0.3,0.9-0.3,0.9-1,2.1c0,0,0,0-0.1,0c-1.7-1.7,0.8-8.5,3-9.1
			c0.3-0.1,0.3-0.1,0.6-0.1c0,0,0,0,0,0C87.6,29,87.6,29,87.7,29.1C87.6,29,87.6,29,87.7,29.1z"/>
		<path fill="#666666" d="M86.5,23.9c0.2,0.1,0.1,0.3-0.1,0.3c-1.5,0-1.2-0.1-2.8-0.1l0,0c-0.5,0-0.6,0-1,0.1
			c-1.6,0.3-1.6,0.2-2.6,0.5c-0.7,0.2-1.6,0.7-1.9,0.9c-0.7,0.6-1.4,0.8-2.3,0.6c-0.8-0.2-1.3-0.8-1.5-1.5c0-0.1-0.1-0.3-0.1-0.4
			c-0.1-1,0.6-2,1.6-2.3c0.6-0.1,1.1-0.3,2-0.4c0.4,0,1.3,0,1.9,0c1,0.1,1.5,0.3,1.9,0.4c0.6,0.2,1.2,0.2,2,0.5c0,0,0.1,0,0,0
			C85.3,23.3,85.1,23.3,86.5,23.9z"/>
		<path fill="#666666" d="M85.8,20.5c0.1,0.1-0.1,0.3-0.2,0.2c-0.7-0.6-1.3-1.2-1.9-2c-0.6-0.8-1.3-1.6-1.8-2.5
			c-0.3-0.5-0.5-1.1-0.7-1.7C81,14,80.8,13.6,80.9,13c0.1-0.9,0.7-1.5,1.4-1.9c0,0,0.1,0,0.1-0.1c0.3-0.1,0.7-0.1,1,0
			c0.5,0.1,1.1,0.5,1.5,0.9c0.4,0.5,0.4,1.2,0.3,1.8c-0.1,0.8-0.4,1.7-0.3,2.5c0,0.4,0.2,0.8,0.3,1.1c0.1,0.3,0,0.6,0.1,0.9
			C85.4,19.1,85.6,19.8,85.8,20.5z"/>
		<path fill="#8CC63F" d="M81.3,51.5c0.1,2.6-1.6,4.8-1.4,6.5c-0.4,0-0.7-0.3-0.9-0.5c-0.9-1-1.1-3.1-1.3-4.5c0-0.2-0.1-0.5-0.1-0.8
			c0-1,1.3-3,2.1-3.7c0,1.8-0.2,2.2-0.4,4.9c0,0.3,0.4,0.3,0.4,0c0.2-1.5,0.6-3.3,0.8-5l0.1,0.1C81.3,50.6,81.3,51,81.3,51.5z"/>
		<path fill="#8CC63F" d="M79.7,190c0.2,1.2,0,1.7-0.5,3.5c-0.4,1.4-0.4,2.4-0.6,3c-0.7-1.9-0.8-2.9-0.8-3.5c0-0.2-0.2-0.3-0.3-0.3
			c-0.1,0-0.3,0.1-0.3,0.3c0.1,1.2,0.2,1.8,0.7,3.2c-1.4-0.8-2.1-1.7-2.5-3c-0.1-0.2-0.1-0.5-0.2-0.7c-0.3-2.1,1-3.9,1.3-6
			C78,187.8,79.1,188.1,79.7,190z"/>
		<path fill="#8CC63F" d="M78.9,213.6C78.9,213.6,78.9,213.6,78.9,213.6c-0.4,0.7-1,1.2-1.7,1.6c-1.5,1-2.9,0.9-4.5,0.5l0,0
			c-2.3-0.8-1.7-0.6-2.7-1c-0.9-0.4-1.3-0.6-1.7-0.7c-0.3-0.1-0.9-0.3-1.1-0.6l1.3-0.6l0.8-0.4c1-0.4,3-1,3-1
			c0.7-0.2,0.5-0.1,1.1-0.2c0.3,0,0.5-0.1,0.8-0.1c0.7-0.1,1-0.2,1.8-0.1c1.1,0.4,1.5,0.8,2.6,1.8c-3.3,0.1-1.5,0.1-4.9,0.1
			c-0.3,0-0.3,0.4,0,0.4C75.1,213.3,76.1,213.1,78.9,213.6z"/>
		<path fill="#8CC63F" d="M79,64.6c-0.4,0.4-1,0.9-1.9,2.1c-1.4,1.9-1.2,1.7-2.2,2.5l0,0C74.5,69.5,74,69.8,73,70
			c-2.4,0.6-3.5-0.2-3.3-1.2c2.1-0.6,1.6-0.5,2.4-0.8c0.2-0.1,0.2-0.1,0.2-0.1c0.3-0.1,0.2-0.6-0.2-0.5c-0.7,0.3-1.8,0.5-2.2,0.6
			c0.8-1.7,2.4-2.7,4.2-3.3C74.7,64.7,77.9,64.6,79,64.6z"/>
		<path fill="#8CC63F" d="M76.4,30.7l-0.1,1.5L76.2,33c-0.1,1.1-0.6,3.1-0.6,3.1c-0.2,0.7-0.2,0.5-0.4,1c-0.1,0.3-0.2,0.5-0.3,0.8
			c-0.3,0.6-0.3,1-0.8,1.6c-0.9,0.8-1.5,0.9-2.9,1.4c1.5-2.9,0.7-1.4,2.3-4.3c0.1-0.2-0.2-0.5-0.4-0.2c-0.6,1.1-1,2.1-2.8,4.3
			c0,0,0,0,0,0c-0.4-0.6-0.5-1.5-0.5-2.2c-0.1-1.8,0.7-2.9,1.8-4.1c0,0,0,0,0,0c1.9-1.6,1.4-1.2,2.3-1.8c0.8-0.6,1.2-0.8,1.5-1.1
			C75.6,31.1,76.1,30.7,76.4,30.7z"/>
		<path fill="#5A698B" d="M67.9,177.2c0.8,0.4,4.4,1.1,3.9,2.8c-0.5,2-4.3,0.3-5.2-0.3c-4-2.8-0.6,2.1-3,3.5c-1.3,0.8-3,0.6-3.3-1.1
			c-0.2-1.4,1.7-2.1,1.5-3.3c-0.5-2.4-5.1,2.7-6.7-1c-1.9-4.3,4.8-1.1,4.7-3.9c-0.1-1.8-2.7-1.9-1.1-3.9c0.9-1.1,3.2-1.8,4.5-1.2
			c1.3,0.7,0.7,1.4,1.1,2.4c1.1,3.1,4.1-3.2,6,1.3c1.1,2.5-1.1,2-2.5,2.5C66.3,175.8,66.6,176.6,67.9,177.2z M63.6,176.9
			c1.9-0.5,1.9-3.5-0.2-3.5C61.2,173.5,61.1,177.5,63.6,176.9z"/>
		<path fill="#8CC63F" d="M69.8,203C69.8,203,69.8,203,69.8,203c-0.6,2.4-7.7,3.6-9.3,2c-0.3-0.2-0.2-0.3-0.4-0.5c0,0,0,0,0,0
			c0,0,0,0,0-0.1c0,0,0-0.1,0.1-0.1c0.3-0.4,0.8-0.6,1.3-0.8c1.7-0.6,2-1.1,2.7-1.4c0.5-0.3,2.1-0.7,2.7-0.8c0.9,0,1.5,0.3,2,1
			c-0.8,0.2-0.8,0.2-1.5,0.4c-0.3,0.1-0.2,0.5,0.1,0.4C68.4,203.1,68.4,203,69.8,203z"/>
		<path fill="#8CC63F" d="M66.3,59.4c-0.2,0.9-0.1,2.4-0.1,3.4c0,1.5-0.3,2.5-1.3,3.9c-0.4,0.4-0.4,0.5-1,0.9
			c-0.8,0.4-0.2,0.2-1.3,0.5c0,0-0.1,0-0.1,0.1c0,0,0,0,0,0c0.7-1.3,0.8-2.7,1.9-4.5c0.2-0.2-0.2-0.4-0.3-0.3
			c-0.2,0.2-0.5,0.5-0.6,0.7c-0.8,1.2-1.2,2.5-2,3.5c0-0.1,0-0.2,0-0.3c-0.2-1.4,1-4.1,1.4-4.7c0.5-0.7,0.2-0.3,0.6-0.8
			c0.7-0.8,0.4-0.5,1.5-1.5C65.1,60.2,65.9,59.6,66.3,59.4z"/>
		<path fill="#8CC63F" d="M62.8,42.5c2.7,1.3,2.1,2,3.3,3.5c-1.4-0.6-2.6-0.8-4.6-1.5c-0.2,0-0.3,0-0.3,0.2c0,0.1,0,0.3,0.2,0.3
			c1.9,0.6,3.3,1.1,4.7,2c-1.7,0.5-3.3,0.2-4.8-0.3c-1.8-0.7-3.4-1.7-4.4-2.4C57.5,42.9,60.9,41.4,62.8,42.5z"/>
		<path fill="#8CC63F" d="M63.2,70.6c1,1.1,1.5,3.2,1.2,4.6c-0.5,1.7-1.3,2.7-1.3,3.8c-1.6-0.4-3.8-4-3.5-6c0.2-1.1,0.7-2.4,1.7-2.9
			c0.2,1.1,0,2.2,0.5,4.4c0.1,0.6,0.1,1,0.1,1c0,0.3,0.5,0.2,0.4-0.1c-0.7-2.2-0.1-4.2-0.2-5.5c0,0,0.1,0,0.1,0
			C62.7,70.1,63,70.3,63.2,70.6z"/>
		<path fill="#666666" d="M58.5,211.6c0.2,0.4,0.3,0.5,0.6,0.8c1,1.2,0.9,1.3,1.6,2c0.5,0.6,1.3,1.1,1.7,1.2
			c0.8,0.3,1.3,0.9,1.5,1.8c0.2,0.8-0.1,1.5-0.7,2c-0.1,0.1-0.2,0.2-0.3,0.2c-0.9,0.5-2.1,0.4-2.8-0.4c-0.4-0.4-0.8-0.8-1.3-1.6
			c-0.2-0.4-0.6-1.2-0.8-1.7c-0.4-1-0.4-1.4-0.5-1.9c-0.1-0.6-0.3-1.2-0.4-2c0,0,0,0,0,0c-0.1-1.6,0-1.4-0.1-2.9
			c0-0.2,0.2-0.2,0.3-0.1C58,210.4,57.8,210.2,58.5,211.6z"/>
		<path fill="#8CC63F" d="M59.9,188.6c1.3,1.1,2.3,2.7,2.4,3.6c-1.3-0.9-2.7-1.6-3.3-2c-0.3-0.2-0.6,0.3-0.2,0.4
			c0,0,1.3,0.6,3.2,2.1c-1.4,0.5-7.5-1.4-9.3-6.4c0.5-0.2,1.5,0,3.1,0.2c1.9,0.4,2,0.8,3.1,1.3C59.1,188.1,59.5,188.2,59.9,188.6z"
			/>
		<path fill="#FBB03B" d="M58.2,97.7c0.8,0.2,1.7,1.2,0.7,1.8c-0.8,0.5-1.8,0.8-2.8,0.6c-0.8-0.2-2.8-0.6-2.5-1.8
			c0.1-0.4,0.5-0.7,0.8-0.8c0.6-0.3,1.4-0.6,2.1-0.4C57.1,97.2,57.6,97.5,58.2,97.7z"/>
		<path fill="#FBB03B" d="M58.2,91.1c0.2,0.5-0.3,1.2-0.5,1.6c-0.4,0.8-0.8,1.4-1.5,1.9c-0.6,0.4-1.2,0.9-1.9,1.3
			c-0.4,0.2-1.1,0.4-1.5,0.1c-0.1-0.1-0.2-0.3-0.2-0.5c-0.1-1.2,0.2-2,1-2.9c0.8-0.9,1.3-2.1,2.6-2.4c0.4-0.1,0.7,0,1,0.3
			C57.6,90.7,58.1,90.8,58.2,91.1z"/>
		<path fill="#FBB03B" d="M56.3,105.1c0.1,1-0.7,1.7-1.6,1.7c-0.4,0-0.6-0.2-0.9-0.6c-0.4-0.5-0.9-0.9-1.2-1.4
			c-0.4-0.6-0.4-1.4-0.5-2c-0.1-0.9-0.7-2.1,0.4-2.6c0.1,0,0.1,0,0.2,0c0.2,0,0.6,0.5,0.8,0.7c0.4,0.3,0.9,0.7,1.3,1
			c0.5,0.4,0.6,1.1,0.9,1.6C55.9,103.9,56.2,104.5,56.3,105.1z"/>
		<path fill="#666666" d="M49.4,132.9c0,0.1,0,0.1,0,0.1C49.4,132.9,49.4,132.9,49.4,132.9z M51.7,139.4c-0.2-1.2-0.1-1-1.1-3.2
			c-0.5-1.3-0.7-2.1-0.8-2.6c-0.5,1-2.1,3.7-2.2,4.2c-0.4,1.9-0.4,3.8,0.8,5.3c0.2-0.5,0.5-1.4,0.6-2.2c0-0.3,0.5-0.2,0.5,0.1
			c0,0,0,0.1,0,0.2c-0.2,0.8,0,0.3-0.5,2.4c0.7,0.7,1.9,0.1,2.6-2.2C51.8,140.5,51.8,139.9,51.7,139.4z M27.4,134.6
			c-0.4,0-1.6-2.7-1.8-3.1c-0.5-1.2-0.8-1.2-2-1.3c-1.2-0.1-1.1-0.8-2.7-1.4c-0.6-0.2-0.9-0.6-1.4-1c-0.8-0.7-1.3-1-0.9-2.2
			c0.3-1.1,0-2.5,0-3.7c-0.1-1.8-0.2-2.4-0.1-2.8c0-0.1,0-0.3,0.1-0.4c0.1-0.3,0.4-0.7,0.7-0.5c1.5,1.2,3,2.5,4.8,3.3
			c1.2,0.5,1.6,1.1,2.1,2.2c0.2,0.4,0.4,1.1,0.4,1.3c0.2,1.8-0.3,2.4-0.7,4.1c0,0,0,0.1-0.1,0.1c3.4,6.5,3.2,4.7,7.4,10.9
			c0,0.1,0.1,0.1,0.1,0.2c-1-9.1-2.6-12.2-1.5-21.1c-0.5-0.3-1.2-1.2-1.9-2.2c-3,1.6-7.4-3.3-7.9-6.8c-0.1-0.7,0-1.4,0.3-1.9
			c0.1-0.2,0.2-0.2,0.2-0.3c0.1-0.1,0.2-0.2,0.3-0.2c0.6-0.2,0.9,0,2.2,0.7c1,0.5,1,0.7,2.6,1.5c0.6,0.3,2.6,1.2,3,3.1
			c0.2,1.2-0.3,1.7-0.3,2.1c0,0.5,0.2,1,0.5,1.3c0.1,0.1,1.2,1,1.2,1.1c0.6-4.1,1.1-6,1.1-6.9c0-1.1,0.3-1.9,0.9-5.5
			c-2.2-0.8-4.3-7.6,0.8-13.1c0.1-0.1,0.2-0.1,0.2-0.1c0,0,0.1,0,0.1,0c0.4,0.3,0.2,0.1,0.6,0.5c0.6,0.8,0.7,1.2,1,1.9
			c1.2,2.5,1.8,4.7,0.8,7.3c-0.5,1.3-1.5,3.3-2.9,3.5c-0.1,0-0.2,2.3-0.2,2.5c-0.3,3.1-0.7,3-1.5,9.1c-0.1,0.7-0.1,1.4-0.2,2.1
			c-0.2,1.3-0.5,4.4-0.3,7.1c2.7-1.4,3.4-3,5.2-4.9c-0.1-0.2,0.1-1.3,0.1-1.5c-0.1-1.4,0.1-2,1.2-3.5c0.4-0.5,0.4-0.5,0.9-0.9
			c0.2-0.2,0.4-0.3,0.6-0.5c1.6-1,3.4-1.1,4.5-1.3c1.1-0.2,1-0.1,2.1-0.6c0.2-0.1,0.4,0.1,0.3,0.3c-0.6,2.2,0.1,3.6-1.9,5.6
			c-1.1,1-1.8,1.2-3.2,1.6c-2,0.6-3,1.3-4.1,1.1c-0.5,0.8-0.5,0.9-1.4,1.9c2.4,0.5,3.1,0.3,4.3,1.3c1.4,1.2,1.7,2.8,3.1,4.1
			c0.1,0.1,0.4,0.2,0.5,0.4c0.3,0.2-0.2,0.9-0.5,1.1c-1,0.6-3.2,0.3-4.2,0.2c-1-0.1-2.4-0.7-3-1.2c-0.6-0.5-1.7-2.3-1.9-3.9
			c-1,0.8-1.6,1.1-2.5,1.5c0,0-0.1,0-0.1,0c0.5,6.2,3.2,15.1,2.2,21.8c-0.2,1.1-0.4,1.2-0.2,3.9c0.2,1.2,0.3,1.7,0.7,2.8
			c0.5,1.8,0.3,1,1.1,3.1c3.8-3.8,3.7-2.9,7.5-7.8c0,0,0-0.1,0-0.1c0,0.2-0.2,0.3-0.4,0.3c-0.3,0-0.6,0-0.9-0.1
			c-1.7-0.5-3.3-3-3.7-4.1c-0.1-0.2-0.3-1.3-0.4-1.5c-0.1-0.2-0.1-0.5-0.1-0.8c-0.2-1.5-0.1-0.9-0.2-1.5c0-0.5-0.1-1.1,0-2.3
			c0-0.5,0.7-0.6,0.9-0.1c0.5,1.4,2.6,2,4.2,3.1c0.8,0.6,1.3,1.1,1.9,2.1c0.3,0.7,0.6,1.6,0.5,2.5c0.5-0.7,1.5-2.3,2.2-3.9
			c-1-0.7-1.8-2.7-1.3-5.4c0.3-1.6,0.2-1.2,1.8-4.1c0.3-0.5,0.9-1.6,1.1-2.1c0-0.4,0.5-0.5,0.7-0.2c0.8,1.6,0.6,1.9,1.3,3.3
			c1.5,2.9,1.8,3.3,1.6,4.8c-0.3,2.2-2.4,4.9-4.5,4.1c-0.6,1.7-1.4,3.2-2.3,4.7c1.8-0.7,4.7,0.3,5.9,1.6c1.8,1.9,1.5,1.9,3.2,2.8
			c0.8,0.4,0,1.5-0.8,2c-2.1,1.2-6.2,1.4-8.3-0.5c-0.9-0.9-1.8-2.3-1.8-3.6c-1.8,2-3.3,3.2-4.2,4.2c-0.2,0.2-0.4,0.4-0.6,0.7
			c-0.3,0.3-1.6,1.5-3,2.7c0.4,1.1,2,4.7,2,4.8c0.2,0.6,0.4,1.1,0.6,1.7c0.6,1.3,2,4,3.8,7c0.1,0,0.1,0,0.2-0.1
			c1.2-0.8,2.1-1.2,2.2-2.7c0-0.4-0.2-0.9-0.3-1.3c-0.1-0.5-0.1-1-0.1-1.5c0.1-1.1,0.4-2.2,1-3.1c1.3-1.7,3.6-2,5.5-2.6
			c0.2-0.1,0.5-0.2,0.8-0.2c0.1,0,0.3-0.1,0.4-0.1c0.1-0.1,0.1-0.1,0.2-0.2c0.2-0.1,0.6,0,0.8,0.2c0.4,0.3,0,0.9,0,1.3
			c0,0.3-0.1,0.7-0.1,1c0,0.9-0.1,1.6-0.3,2.5c0,0,0,0.1,0,0.1c-0.1,0.2-0.2,0.5-0.3,0.7c-1.7,3.5-4.7,5.3-6.5,4.3
			c-0.8,1.3-1.6,2.5-2.9,2.9c3.5,5.7,3.3,3.9,6,8.1c0.3,0.6,0.4,0.9,0.4,0.9c0,0.1,0,0.2-0.1,0.3c-0.1,0.1-0.2,0-0.3-0.1
			c0,0-0.2-0.3-0.4-0.9c-3-4.2-2.7-2.2-7.8-9.9c-0.4-0.5-1.5-2.4-2.1-3.6c-0.2-0.4-2.5-0.8-3-1c-1-0.3-2-0.7-2.9-1
			c-1.5-0.5-2.7-0.8-3.1,1.1c-0.2,0.7-0.5,1.5-1.1,2c-0.7,0.6-1.4,0.2-2.1,0.4c-1,0.3-2,1.2-2.9,1.6c-1.1,0.4-2.2,0.8-3.3,1
			c-0.3,0-0.5-0.1-0.6-0.4c-0.2-0.6,0-1.1,0.2-1.9c1.4-6.9,3.8-5.3,7-6.6c-1.1-0.6-2.8-1.6-3.2-1.9c-0.4-0.2-0.8-0.5-1.1-0.7
			c-1.1-0.7-3-2.6-3.9-3.6c-0.8,0.5-1.5,0.3-2.6,0.1c-1.5-0.3-2.3-0.6-3-1c-0.7-0.4-0.5-0.3-1-0.7c-0.8-0.8-1-1.6-1.2-2.6
			c-0.1-0.3-0.2-1.2-0.1-1.6c0.1-0.9,0-0.4,0.2-1.6c0.1-0.6,0.6-1.7,0.7-2.4c0.4-1.6,0.2-1,0.6-2c0-0.1,0.1-0.1,0.1-0.2
			c0.1-0.1,0.3-0.1,0.4,0.1c1.8,3,5.8,2.9,7,7.5c0.4,1.5,0.2,2.5-0.2,3.7c0,0.1-0.1,0.2-0.2,0.3c0.8,0.7,2,1.7,2.9,2.2
			c0.9,0.5,1.6,1.1,2.3,1.6c-0.2-0.3-0.6-1.2-0.9-2.5c-0.4-1.3-0.4-2.4-0.3-3.7c0.4-3.4,3.8-6.9,4-5.9c1,3.4,4.5,6.6,2.1,11.4
			c-0.2,0.5-1.1,1.8-2.1,2.2c3.6,1.9,7.3,3.5,10.9,4.9c-1.7-4-0.4-0.5-2.8-6.4c-0.6-1.5-1.4-3.9-1.6-4.6c-0.7-2.7-0.8-2.6-1-5
			c0-0.4,0-2,0-2.1c-0.1-2.5,0.3-3.1,0-7.5c0-0.6-1.1-1.6-1.4-2c-0.5-0.6-1-1.2-1.5-1.8c-0.9-0.9-2-1.2-2.6,0.2
			c-0.3,0.7-0.6,1.3-0.9,1.9c-0.3,0.9-0.2,1.5-1.2,1.7c-1.7,0.4-3.2,1.2-4.9,1.6c-0.2,0-0.3,0-0.4-0.2c-0.5-0.8-0.7-1.8-0.7-2.7
			c0.1-1.6,0.8-3.8,2.3-4.7C24.9,134.3,26,134.9,27.4,134.6z M52.3,164.9c0.3-1.7,0.6-1.2,0.9-3.2c-0.7,0.3-2.7,1-4,1.5
			c-1.4,0.6-2.2,1-2.8,2.5c-0.5,1.2-0.8,2.9-0.2,4.1c1.4-1.9,1.7-2.5,2.8-3.6c0.2-0.2,0.4,0.1,0.3,0.2c-0.4,0.4-0.8,0.9-1.1,1.4
			c-0.3,0.4,0,1.1-0.4,1.5c-0.1,0.1-0.4,0.1-0.5,0.2c-0.1,0.1-0.5,0.8-0.5,0.9c0.7,0.4,1.5,0.1,2.1-0.2c1.7-1,2.4-2.7,3.1-4.6
			C52.1,165.7,52.2,165.4,52.3,164.9z M54.3,154.5c-0.9-0.6-1.4-1.8-2.6-3.1c-1.1-1-3.2-1.6-4.6-1.2c-0.4,0.1-0.7,0.3-1,0.5
			c0,0,0,0.1-0.1,0.1c1.2,0.6,2.6,2.1,4.8,2.6c0.3,0.1,0.1,0.6-0.2,0.4c0,0-0.4-0.2-0.9-0.4c-2.2-0.7-3-1.4-4.1-1.8
			c0,1.1,0.9,2.2,1.7,2.9C48.9,155.8,53.1,155.7,54.3,154.5z M45.5,118c1.4-1.4,1-2.5,1.5-4.5c-2,0.8-4.1,0.6-5.9,1.9
			c-0.2,0.2-0.4,0.3-0.5,0.5c-1,1.1-1.4,2-1.4,3.7c1-1.1,1.5-1.5,2.4-2.2c0.2-0.1,0.3-0.1,0.4,0.1c0.1,0.1,0.1,0.3-0.1,0.4
			c-0.5,0.4-1.4,0.9-2.6,2.5c0.6-0.1,1.4-0.7,2.9-1C44,118.9,44.5,118.8,45.5,118z M44.7,149.6c0.2-1.1,0.1-0.6,0.2-1.4
			c0-0.8-0.1-0.8-0.3-1.3c-0.7-1.6-1.4-2.3-2.7-3.1c-0.9-0.5-2.2-1.2-2.9-1.8c0,0.4,0,1.4,0.1,1.7c0.3,1.4,0.2,1.1,0.6,2
			c0.2,0.6,0,0.2,0.4,0.9c0.3,0.6,2,3,3.4,3.5c0.1,0,0.2,0.1,0.2,0.1c-0.5-1.1-1.4-2.1-2-3.5c-0.1-0.2-0.2-0.6-0.3-0.8
			c-0.1-0.2,0.3-0.4,0.4-0.2c0.9,1.8,2.1,2.6,2.9,3.9c0,0,0,0,0,0C44.6,149.6,44.6,149.6,44.7,149.6z M43.5,130
			c0.4-0.1,0.8-0.2,0.9-0.5c-1.6-0.7-2.6-3.2-4.9-4.4c-0.4-0.3-0.7-0.5-2.8-0.9l-0.1,0c1.3,1,2.6,2.2,3.9,3.2c0.2,0.2,0,0.5-0.3,0.4
			c-2.3-1.5-2.6-1.9-4.1-2.8c0.2,1,1.2,3.2,2.2,3.6c0.2,0.1,0.4,0.2,0.7,0.3C40.3,129.4,42.2,130.3,43.5,130z M36.9,99
			c-0.1-1.3,0.2-1.5-0.4-3.4c-0.6-1.5-0.9-2.5-1.4-2.8c-3.4,4.1-2.1,10.3-1,11.3c0.3-2.4,0.3-3.8,0.3-3.8c0-0.4,0.5-0.4,0.5,0
			c-0.1,0.7,0,2.3-0.1,3.9c0.8-0.5,1.6-2.2,2-3.9C36.9,99.7,36.9,99.3,36.9,99z M29.8,164.9L29.8,164.9c-2.7,2.1-1.8,1.4-4.8,3.5
			c-0.2,0.1-0.4-0.1-0.2-0.3c2.6-2.4,1.9-1.7,3.8-3.8c-0.1-0.1-0.2-0.1-0.4-0.2c-2,1-4.9,0.6-5.8,2.6c-0.7,1.5-0.7,2.1-0.9,3.8
			c0,0.3-0.1,0.5-0.1,0.8C23.9,170.6,29.6,168.2,29.8,164.9z M29.5,158.6c1.4-3.3-0.7-5.9-1.8-9.2c-1,0.8-2.6,4-2.7,5.7
			c-0.1,0.8,0,0.4,0,1.1c-0.1,2,1.2,5,1.8,5.5c0.2-0.4,0.3-1,0.3-1.4c0.2-3.7,0.3-3.2,0.1-4.3c0-0.3,0.4-0.4,0.4-0.1
			c0.1,0.8,0,0,0.1,1c0.1,1.1,0,1.4,0.1,2.2c0.1,1.1,0.2,1.7,0.1,2.6C28.4,161.1,29.3,159.1,29.5,158.6z M29.4,114.8
			c0.3-0.8,0.3-1.4-0.2-2.2c-0.3-0.5-1.5-1.6-2-1.9c-0.6-0.4-1.2-0.5-2.6-1.6c-0.5-0.4-0.9-0.7-1.3-0.8c0,0-0.1,0-0.1,0
			c0,0,0,0-0.1,0c0,0,0,0,0,0c-0.2,0.2-0.2,0.2-0.3,0.5c-0.5,2.2,4.1,7.8,6.4,7.2c0,0,0-0.1,0-0.1c-0.7-1.2-0.8-1.2-1.4-1.9
			c-0.2-0.2,0.1-0.5,0.3-0.3C28.7,114.2,28.8,114.2,29.4,114.8z M27.2,135.5c-1.9,0.3-2.2-0.6-4.7,1.1c-1.9,1.1-2.3,4.8-1.4,6.1
			c1.2-0.5,2.8-1.4,4.3-2.6c1.2-1.1,2.3-2.3,2.7-4c-1.4,0.8-2.6,1.8-4.1,3.1c-0.1,0.1-0.3,0.1-0.4,0s-0.1-0.3,0-0.4
			C25.2,137.3,26,136.5,27.2,135.5z M25.3,128.5c0.3-1.5,0.5-2,0.3-3.2c-0.3-0.8-0.6-1-1-1.5c-0.2-0.2-0.3-0.4-0.5-0.6
			c-0.4-0.5-0.2-0.3-0.7-0.8c0,0-1.5-1.5-2.4-2.1l-0.7-0.5l-1.2-0.8c-0.1,0.3,0,0.9,0,1.3c0.1,0.4,0.1,0.8,0.2,1.8
			c0.1,1.1,0,0.5,0.5,2.9c0,0,0,0,0,0c0.4,1.6,1,2.8,2.6,3.6c0.7,0.3,1.5,0.7,2.2,0.6c0,0,0,0,0,0c-1-2.7-1.6-3.4-2.3-4.6
			c-0.1-0.2,0.2-0.5,0.4-0.2C24.5,127.3,23.5,125.7,25.3,128.5z M19.1,156.3c1-1.9,0.3-4.3-1-5.8c-1.3-1.5-3.5-2.2-4.9-3.9
			c-0.1,0.3-0.2,1-0.2,1.3c0,0.4-0.1,0.5-0.4,2.3c-0.1,1.6,0,0.8,0,1.6c0,0.5,0.3,2.1,0.7,2.6c0.2,0.3,0.5,0.7,0.7,0.9
			c0.8,0.5,0.2,0.3,3,1.3c0.4,0.1,1.2,0.4,1.6,0.2c0,0,0.1-0.1,0.1-0.1c-1.3-1.6-1.6-2.6-2.1-3.4c-0.2-0.3,0.3-0.6,0.4-0.2
			C17.3,154.1,17.9,155.1,19.1,156.3C19.1,156.4,19.1,156.3,19.1,156.3z"/>
		<path fill="#666666" d="M48.5,209.2c2.4-0.1,3.7-0.7,6.4-1.5c0.2,0,0.3,0.2,0.1,0.3c-3.6,2.6-5,4.5-11.3,4.7
			c-1.2,0-2.2-0.9-2.2-2.1c0-0.4,0-0.9,0.2-1.2c0.3-0.5,0.9-0.7,1.4-0.9c0.5-0.2,1.1,0,1.6,0.2C46.8,209.2,48,209.2,48.5,209.2
			C48.6,209.2,48.6,209.2,48.5,209.2z"/>
		<path fill="#8CC63F" d="M53.1,79c1.1,0.8,2.6,2.2,3.3,2.7c-1.9,0.7-1.7,0.2-3.2,0.8c-0.4,0.1-0.7,0.2-0.7,0.2
			c-2,0.3-3.8,0.5-5.5-0.4c-0.6-0.3-1.3-1-1.3-1.7c0,0,0.9-0.1,1,0c0.2,0.1,0.2,0.3,0.4,0.4c0.5,0.2,1-0.4,1.5-0.4
			c0.6,0,1.2,0.1,1.8,0.2c0.2,0,0.3-0.3,0.1-0.4c-1.5-0.4-2.2-0.4-4.5-0.6c0.7-1.2,2.3-1.8,3.6-1.9C51.2,77.6,51.9,78.1,53.1,79z"/>
		<path fill="#666666" d="M54.2,211.3c0.1-0.1,0.3,0,0.3,0.1c-0.2,0.9-0.5,1.8-0.9,2.6c-0.4,0.9-0.8,1.9-1.4,2.8
			c-0.3,0.5-0.8,0.9-1.2,1.4c-0.3,0.4-0.6,0.7-1.1,0.9c-0.8,0.3-1.7,0.1-2.3-0.4c0,0-0.1-0.1-0.1-0.1c-0.3-0.2-0.3-0.6-0.5-0.9
			c-0.2-0.5-0.1-1.3,0.2-1.8c0.3-0.6,0.9-0.9,1.5-1.1c0.8-0.3,1.6-0.4,2.4-0.9c0.3-0.2,0.6-0.5,0.9-0.8c0.2-0.2,0.5-0.3,0.8-0.5
			C53.2,212.3,53.8,211.9,54.2,211.3z"/>
		<path fill="#8CC63F" d="M53.2,161.7c-0.4,2-0.6,1.5-0.9,3.2c-0.1,0.4-0.1,0.7-0.1,0.7c-0.7,1.8-1.5,3.5-3.1,4.6
			c-0.6,0.4-1.5,0.6-2.1,0.2c0,0,0.4-0.8,0.5-0.9c0.1-0.1,0.4,0,0.5-0.2c0.4-0.4,0.1-1,0.4-1.5c0.3-0.5,0.7-1,1.1-1.4
			c0.1-0.2-0.1-0.4-0.3-0.2c-1.1,1-1.4,1.7-2.8,3.6c-0.7-1.2-0.4-2.9,0.2-4.1c0.7-1.5,1.5-1.9,2.8-2.5
			C50.5,162.7,52.5,162.1,53.2,161.7z"/>
		<path fill="#FCEE21" d="M51.5,96.5c1.3-0.1,1.7,1.5,1.2,2.4c-0.9,1.5-2.7,0.5-2.9-0.7C49.6,97.4,50.5,96.6,51.5,96.5z"/>
		<path fill="#8CC63F" d="M48,53.8c1.5-0.7,5.1-1,6.3-0.5c-2.3,2.6-3.5,5.8-7,6.2c-0.5,0.1-2.7,0.3-3.5,0c0.8-0.4,1.3-0.7,2.2-1.4
			c0.7-0.4,1-0.5,1.9-1.1c0.9-0.6,0.2-0.1,0.8-0.6c0.2-0.2,0-0.5-0.3-0.3c-0.9,0.8-0.5,0.4-3.8,2.1c-0.4,0.2-0.9,0.4-1.4,0.4
			c0.2-0.8,2.1-3.3,3.9-4.3C47.6,54,47.2,54.2,48,53.8z"/>
		<path fill="#666666" d="M52.2,196.7c0.1,0.9,0.1,0.8,0,1.2c0,0.2,0,0.4-0.1,0.6c-0.1,0.4-0.2,0.8-0.4,1.2
			c-0.1,0.4-0.4,0.7-0.6,1.1c-0.1,0.2-0.3,0.3-0.4,0.5c-0.1,0.2-0.3,0.3-0.5,0.5c-0.3,0.3-0.7,0.5-1.1,0.8c-0.2,0.1-0.4,0.2-0.6,0.3
			c-0.2,0.1-0.4,0.2-0.7,0.2c-0.7,0.2,0,0.1-1.4,0.3c-0.2,0.1-1.3,0-1.5,0c-0.8-0.1-0.7-0.1-1-0.1c-1.5-0.4-1.3-0.4-1.9-0.7
			c-5.4-2.5-7.5-12.4-6.9-17.9c-1.1,1.7-2.7,3.2-4.7,3.6c-0.3,0-0.6,0.1-0.9,0.1c-0.8-0.1-0.4,0-0.9-0.1c-0.7-0.2-0.4-0.1-0.8-0.3
			c-0.2-0.1-0.5-0.2-0.7-0.4c-0.5-0.3-0.3-0.2-0.9-0.7c-0.4-0.4-0.9-0.9-1.1-1.5c-1.6-3.1,1.4-6.8,3.9-5.6c0.5,0.2,0.8,0.5,1.2,0.8
			c0.2,0.2,0.2,0.5,0.1,0.7c-0.2,0.2-0.6,0.3-0.9-0.1c-2.5-3.9-7.3,3.3-2.4,4.9c0.2,0.1,0.4,0.1,0.6,0.1c5.7,0.7,7.4-6.1,10.3-11.1
			c0.1-0.2,0.4-0.2,0.4,0.1c0.4,1.4-2,8.5,2,19.1c0.4,0.9,1.9,4.4,3.2,6c0.5,0.5,0,0.1,1,0.9l-0.1,0c1.4,0.8,0.9,0.5,1.4,0.7
			c0.2,0.1,0.3,0.2,0.5,0.2c1.1,0.2,0.6,0.1,1.2,0.1c1.6,0,3.2-1.1,3.7-2.7c0.2-0.4,0.2-0.8,0.3-1.1c0-0.2,0-0.4,0-0.6
			c0.2-2-1.1-4.7-3.2-5.6c-0.9-0.3-1.4-0.2-1.8,0c-0.4,0.3-0.1,0.1-0.5,0.3c0,0-0.1,0.1-0.1,0.1c-0.1,0.1-0.2,0.3-0.4,0.5
			c-0.4,0.9-0.6,2.4,0.4,2.6c0.1,0,0.2,0,0.3,0c0,0,0.2,0,0.2,0c0.1,0,0.2-0.1,0.2-0.2c0.2-0.1,0.5-0.2,0.8,0
			c0.2,0.1,0.2,0.1,0.2,0.3c0,0.1,0,0.1,0,0.2c0.1,0.5-0.7,0.8-1.2,0.8c-0.2,0-0.3,0-0.5,0c-0.1,0-0.2,0-0.3-0.1
			c-2.2-0.8-1.3-3.9-0.2-4.7c0.3-0.2,0.4-0.3,0.9-0.5c1.6-0.6,3.6,1,4.4,2.4c0.5,0.8,0.2,0.2,0.8,1.5
			C51.9,195.6,52.1,196.5,52.2,196.7z"/>
		<path fill="#8CC63F" d="M51.6,151.5c1.2,1.3,1.7,2.5,2.6,3.1c-1.2,1.2-5.4,1.2-6.9,0c-0.8-0.7-1.7-1.8-1.7-2.9
			c1,0.4,1.8,1.1,4.1,1.8c0.6,0.2,0.9,0.4,0.9,0.4c0.3,0.1,0.5-0.3,0.2-0.4c-2.2-0.5-3.7-2-4.8-2.6c0,0,0.1-0.1,0.1-0.1
			c0.3-0.2,0.6-0.4,1-0.5C48.4,149.9,50.6,150.5,51.6,151.5z"/>
		<path fill="#8CC63F" d="M51.7,139.4c0.1,0.5,0,1.1-0.3,2.1c-0.7,2.4-1.9,2.9-2.6,2.2c0.6-2.1,0.4-1.6,0.5-2.4c0-0.2,0-0.2,0-0.2
			c0.1-0.3-0.4-0.4-0.5-0.1c-0.1,0.8-0.5,1.8-0.6,2.2c-1.1-1.5-1.1-3.4-0.8-5.3c0.1-0.5,1.6-3.3,2.2-4.2c0.2,0.5,0.3,1.4,0.8,2.6
			C51.6,138.4,51.5,138.2,51.7,139.4z"/>
		<path fill="#FBB03B" d="M50.9,91.8c0.1,0.7,0,1.3-0.1,1.9c0,0.6,0.4,1.7-0.2,2.2c-0.1,0.1-0.3,0.2-0.4,0.2c-1,0.1-1.7-1.8-2-2.5
			c-0.4-0.9-0.4-1.9-0.4-2.8c0-0.4,0-1.1,0.4-1.3c0.2-0.1,1-0.2,1.2-0.2C50.2,89.5,50.7,91.2,50.9,91.8z"/>
		<path fill="#FBB03B" d="M49.9,99.8c0.4,0.3,0.2,1,0.1,1.4c-0.1,0.6-0.2,1.2-0.4,1.8c-0.4,1.4-0.9,3.2-2.8,2.7
			c-1-0.3-0.8-0.8-0.6-1.6c0.2-0.6,0.5-1.1,0.8-1.7c0.4-0.6,0.7-1.2,1.1-1.8c0.3-0.4,0.8-1,1.3-0.9C49.6,99.6,49.8,99.7,49.9,99.8z"
			/>
		<path fill="#8CC63F" d="M49.5,39.4c-0.8,2-0.3,4.3-1,6.2c-0.6,2-2.4,3.7-4.5,3.8c0,0,0,0-0.1,0c0.5-1.7,1.1-2.7,1.7-3.5
			c0.2-0.3-0.2-0.6-0.4-0.3c-0.4,0.8-1.1,1.6-1.9,3.5c0,0-0.1,0-0.1,0c-0.3-0.2-0.6-1.1-0.6-1.5c-0.4-2.9-0.4-2.3-0.3-3.2
			c0-0.3,0.2-0.8,0.4-1.1c0.3-0.5,1.5-1.7,2-1.9c0.7-0.4,0-0.1,1.4-0.8c1.7-0.6,1.8-0.6,2.2-0.7C48.5,39.8,49.2,39.5,49.5,39.4z"/>
		<path fill="#FBB03B" d="M48.6,97c0.1,0.1,0.1,0.3,0.1,0.5c0,0.1,0,0.2-0.1,0.3c-0.2,0.6-0.7,0.7-1.3,0.8c-0.6,0.1-1.2,0.3-1.9,0.4
			c-0.6,0.1-1.1,0.3-1.7,0.4c-1,0.2-1.6-0.1-1.7-1.2c0-0.3-0.1-0.9,0-1.1c0.2-0.3,0.9-0.5,1.2-0.6c1.1-0.4,2.1-0.7,3.2-0.4
			c0.3,0.1,0.7,0.2,1,0.3C47.8,96.6,48.3,96.7,48.6,97z"/>
		<path fill="#8CC63F" d="M46.9,113.6c-0.4,1.9,0,3.1-1.5,4.5c-1,0.8-1.5,0.9-3.3,1.3c-1.5,0.3-2.3,0.9-2.9,1
			c1.3-1.6,2.1-2.1,2.6-2.5c0.2-0.1,0.2-0.3,0.1-0.4c-0.1-0.1-0.2-0.2-0.4-0.1c-0.9,0.7-1.4,1.1-2.4,2.2c0-1.7,0.4-2.6,1.4-3.7
			c0.1-0.2,0.4-0.3,0.5-0.5C42.8,114.1,44.9,114.4,46.9,113.6z"/>
		<path fill="#8CC63F" d="M44.8,148.2c-0.1,0.8,0.1,0.2-0.2,1.4c0,0,0,0.1,0,0.1c0,0,0,0,0,0c-0.8-1.3-2-2.1-2.9-3.9
			c-0.1-0.2-0.5-0.1-0.4,0.2c0.1,0.2,0.2,0.6,0.3,0.8c0.6,1.3,1.6,2.3,2,3.5c-0.1-0.1-0.1-0.1-0.2-0.1c-1.4-0.5-3-2.9-3.4-3.5
			c-0.4-0.8-0.2-0.4-0.4-0.9c-0.4-1-0.3-0.6-0.6-2c-0.1-0.3-0.1-1.2-0.1-1.7c0.7,0.6,2,1.2,2.9,1.8c1.3,0.7,2,1.5,2.7,3.1
			C44.7,147.4,44.8,147.4,44.8,148.2z"/>
		<path fill="#8CC63F" d="M44.5,129.5c-0.2,0.3-0.6,0.4-0.9,0.5c-1.3,0.2-3.2-0.6-4.5-1.1c-0.2-0.1-0.5-0.2-0.7-0.3
			c-0.9-0.5-1.9-2.6-2.2-3.6c1.5,0.9,1.8,1.3,4.1,2.8c0.2,0.2,0.5-0.2,0.3-0.4c-1.2-1-2.6-2.2-3.9-3.2l0.1,0
			c2.1,0.4,2.4,0.6,2.8,0.9C41.9,126.3,42.9,128.8,44.5,129.5z"/>
		<path fill="#8CC63F" d="M41.9,63C41.9,63,41.9,63,41.9,63c-2.9,1.5-7.9-2.2-9.7-4.1c0.2-0.1,0.5-0.2,0.7-0.3
			c1.6-0.7,2.1-1,3.8-1.1c2.2-0.2,3.3,2.5,5.1,3.8c0,0.1,0,0.3,0,0.4C39,61,40,61.3,36.6,60.2c-0.2-0.1-0.4,0.2-0.1,0.3
			C39.7,62.2,38.7,61.7,41.9,63z"/>
		<path fill="#666666" d="M38.5,68.1c1.4,1.5,1.6,4,1.1,6.1c-0.2,0.7-0.4,1.3-0.7,1.8c-0.7,1.2-1.8,1.9-3.4,2
			c-3.2,0.1-5.2-3.9-2.8-6.3c0.1-0.1,0.2-0.2,0.2-0.2c0.4-0.4,1-0.4,1.4,0c0.4,0.4,0.4,1,0,1.4c-0.1,0.1-0.2,0.2-0.3,0.2
			c0,0-0.2,0.1-0.2,0.2c0,0-0.1,0.1-0.1,0.1c-0.1,0.2-0.3,0.3-0.3,0.6c-0.3,1.2,0.6,2.5,1.6,2.8c4.7,1.5,6.5-7.9,2.1-9.4
			C35.3,67,33.5,67,32.1,68c-1.9,1.3-2.6,4-2.9,6.2c-0.6,5.2,0.9,6.1,0.6,15.2c-0.2,5.5-0.4,7-1.5,9.4c-1.2,2.7-3.4,5.6-6.3,5.7
			c-1.6,0.2-3.1-0.4-4.1-1.7c-0.7-1-1.1-2.4-1-4.1c0.1-0.4,0.1-0.6,0.3-1c1.2-2.6,6.1-1.8,5.1,2c-0.2,0.4-0.6,0.6-1,0.4
			c-0.4-0.2-0.6-0.6-0.5-1c0,0,0.1-0.2,0.2-0.6c0.1-1.5-3.2-2.1-3.5,0.5c-0.3,2.3,0.6,4.5,2.9,5c1,0.1,1.4,0,2.4-0.3
			c0,0,0.4-0.2,0.5-0.2c1.9-1,3.1-4,3.5-6.1c0.5-2.4-0.1-4.4-0.1-13.7c0-1.7-0.5-6.5,1.1-11c0.8-2.3,2.4-4.9,4.8-5.7
			C34.5,66.4,37.1,66.7,38.5,68.1z"/>
		<path fill="#8CC63F" d="M36.5,95.6c0.6,1.9,0.4,2.1,0.4,3.4c0,0.3,0,0.7-0.1,1.2c-0.3,1.7-1.2,3.4-2,3.9c0.1-1.6,0-3.2,0.1-3.9
			c0-0.3-0.5-0.4-0.5,0c0,0,0.1,1.4-0.3,3.8c-1.1-0.9-2.5-7.2,1-11.3C35.6,93.1,35.9,94.1,36.5,95.6z"/>
		<path fill="#8CC63F" d="M29.8,164.9L29.8,164.9c-0.2,3.3-5.9,5.7-8.4,6.4c0-0.2,0.1-0.5,0.1-0.8c0.2-1.7,0.2-2.3,0.9-3.8
			c0.9-2,3.8-1.6,5.8-2.6c0.1,0.1,0.2,0.1,0.4,0.2c-2,2.1-1.2,1.3-3.8,3.8c-0.2,0.2,0,0.4,0.2,0.3C28,166.4,27.1,167.1,29.8,164.9z"
			/>
		<path fill="#8CC63F" d="M27.6,149.4c1.1,3.3,3.2,6,1.8,9.2c-0.2,0.5-1.1,2.5-1.8,3.1c0.1-0.9,0-1.5-0.1-2.6
			c-0.1-0.8,0-1.1-0.1-2.2c-0.1-1,0-0.2-0.1-1c0-0.3-0.5-0.2-0.4,0.1c0.2,1.2,0.1,0.6-0.1,4.3c0,0.5-0.1,1-0.3,1.4
			c-0.6-0.5-1.8-3.5-1.8-5.5c0-0.7,0-0.3,0-1.1C25.1,153.5,26.6,150.2,27.6,149.4z"/>
		<path fill="#8CC63F" d="M29.2,112.7c0.5,0.8,0.5,1.4,0.2,2.2c-0.6-0.6-0.6-0.6-1.1-1.1c-0.2-0.2-0.5,0.1-0.3,0.3
			c0.6,0.7,0.6,0.7,1.4,1.9c0,0,0,0.1,0,0.1c-2.3,0.6-6.9-4.9-6.4-7.2c0.1-0.3,0.1-0.3,0.3-0.5c0,0,0,0,0,0c0,0,0,0,0.1,0
			c0,0,0.1,0,0.1,0c0.5,0.1,0.9,0.4,1.3,0.8c1.3,1.2,1.9,1.2,2.6,1.6C27.7,111.1,28.9,112.2,29.2,112.7z"/>
		<path fill="#8CC63F" d="M22.5,136.6c2.5-1.7,2.8-0.8,4.7-1.1c-1.2,1-2,1.8-3.6,3.3c-0.1,0.1-0.1,0.3,0,0.4s0.3,0.1,0.4,0
			c1.5-1.3,2.6-2.3,4.1-3.1c-0.4,1.8-1.5,3-2.7,4c-1.5,1.2-3.1,2.1-4.3,2.6C20.2,141.4,20.6,137.7,22.5,136.6z"/>
		<path fill="#8CC63F" d="M25.6,125.3c0.2,1.2,0.1,1.7-0.3,3.2c-1.8-2.8-0.9-1.3-2.5-4.2c-0.1-0.2-0.5,0-0.4,0.2
			c0.7,1.1,1.3,1.9,2.3,4.6c0,0,0,0,0,0c-0.8,0-1.5-0.3-2.2-0.6c-1.6-0.8-2.2-2-2.6-3.6c0,0,0,0,0,0c-0.4-2.4-0.3-1.8-0.5-2.9
			c-0.1-1-0.1-1.4-0.2-1.8c-0.1-0.3-0.2-0.9,0-1.3l1.2,0.8l0.7,0.5c0.9,0.7,2.4,2.1,2.4,2.1c0.5,0.6,0.3,0.4,0.7,0.8
			c0.2,0.2,0.3,0.4,0.5,0.6C25,124.4,25.3,124.5,25.6,125.3z"/>
		<path fill="#666666" d="M17.2,111.9C17.2,111.9,17.2,111.9,17.2,111.9c1.3-1,1.2-0.8,2.4-1.7c0,0,0.1,0,0.1,0c0.1,0,0.1,0,0.1,0.1
			c0,0,0,0.1,0,0.1c-0.7,1.3-0.7,1-1.4,2.4c0,0,0,0,0,0l0,0c-0.2,0.4-0.2,0.5-0.4,0.9c-0.5,1.5-0.6,1.4-0.8,2.5
			c-0.2,0.8-0.2,1.7-0.1,2.1c0.1,0.3,0.1,0.6,0.1,0.9c0,0.5-0.2,1-0.6,1.4c-0.6,0.6-1.3,0.8-2.1,0.6c-0.1,0-0.3-0.1-0.4-0.2
			c-0.9-0.4-1.4-1.5-1.2-2.5c0.1-0.6,0.2-1.1,0.7-1.9c0.2-0.4,0.6-1.2,0.9-1.6c0.6-0.9,0.9-1.1,1.3-1.5
			C16.2,113,16.6,112.5,17.2,111.9z"/>
		<path fill="#666666" d="M19.7,107.7c0.1,0.1,0,0.3-0.1,0.3c0,0,0,0,0,0c-4.1-1.5-6.6-1.7-10.2-6.8c-0.7-1-0.5-2.3,0.5-3
			c0.4-0.2,0.7-0.5,1.2-0.5c0.6,0,1.1,0.4,1.6,0.7c0.5,0.3,0.6,0.9,0.8,1.4c0.5,1.9,1.2,2.9,1.6,3.5v0c0.1,0.1,0.2,0.2,0.3,0.3
			C16.4,105.3,17.7,106,19.7,107.7z"/>
		<path fill="#8CC63F" d="M18.1,150.5c1.4,1.5,2,3.9,1,5.8c0,0,0,0-0.1,0c-1.2-1.3-1.8-2.3-2.1-3.2c-0.1-0.3-0.6-0.1-0.4,0.2
			c0.5,0.8,0.8,1.8,2.1,3.4c0,0-0.1,0.1-0.1,0.1c-0.4,0.2-1.2-0.1-1.6-0.2c-2.7-1.1-2.1-0.8-3-1.3c-0.2-0.2-0.6-0.6-0.7-0.9
			c-0.3-0.5-0.7-2.1-0.7-2.6c0-0.9-0.1-0.1,0-1.6c0.4-1.8,0.4-1.9,0.4-2.3c0-0.3,0.1-1,0.2-1.3C14.5,148.3,16.8,149,18.1,150.5z"/>
		<path fill="#666666" d="M16.3,109.1c0.2,0,0.2,0.2,0,0.3c-0.9,0.4-1.7,0.6-2.7,0.7c-1,0.1-2,0.4-3.1,0.3c-0.6,0-1.2-0.1-1.8-0.2
			c-0.5-0.1-0.9-0.1-1.4-0.4c-0.7-0.5-1-1.3-0.9-2.2c0-0.1,0-0.1,0-0.2c0-0.3,0.3-0.6,0.5-0.9c0.3-0.5,1-0.8,1.6-0.8
			c0.6-0.1,1.3,0.3,1.7,0.6c0.7,0.5,1.3,1.1,2,1.5c0.4,0.1,0.8,0.2,1.1,0.3c0.3,0.1,0.6,0.3,0.9,0.4
			C14.9,108.9,15.6,109.1,16.3,109.1z"/>
		<path fill="#666666" d="M14.9,103.2C14.9,103.2,14.9,103.2,14.9,103.2C14.9,103.2,14.9,103.2,14.9,103.2L14.9,103.2z"/>
	</g>
	<g>
	</g>
</g>
<rect x="48.5" y="90.2" fill="none" width="155" height="103.3"/>
<text transform="matrix(1.15 0 0 1 66.5448 106.9906)" fill="#4D4D4D" stroke="#000000" stroke-width="1.000000e-02" stroke-miterlimit="10" font-family="'DKPisang'" font-size="21">living like</text>
<text transform="matrix(1 0 0 1 59.7938 145.1254)" fill="#4D4D4D" font-family="'SverigeScriptDemo'" font-size="38.1349">Martha</text>
</svg>
