<?xml version="1.0" encoding="utf-8"?>
<!-- Generator: Adobe Illustrator 18.1.1, SVG Export Plug-In . SVG Version: 6.00 Build 0)  -->
<svg version="1.1" id="Layer_1" xmlns="http://www.w3.org/2000/svg" xmlns:xlink="http://www.w3.org/1999/xlink" x="0px" y="0px"
	 viewBox="0 0 36 36" enable-background="new 0 0 36 36" xml:space="preserve">
<g>
	<path fill="#969696" d="M18,34.9c9.4,0,17-7.6,17-17c0-9.4-7.6-17-17-17c-9.4,0-17,7.6-17,17C1,27.3,8.6,34.9,18,34.9"/>
	<path fill="#FFFFFF" d="M23.2,9.4H12.8c-1.8,0-3.3,1.5-3.3,3.3v3.5v7c0,1.8,1.5,3.3,3.3,3.3h10.4c1.8,0,3.3-1.5,3.3-3.3v-7v-3.5
		C26.5,10.9,25,9.4,23.2,9.4z M24.2,11.4l0.4,0v0.4v2.5l-2.9,0l0-2.9L24.2,11.4z M15.6,16.2c0.5-0.8,1.4-1.2,2.4-1.2
		c1,0,1.9,0.5,2.4,1.2c0.4,0.5,0.6,1.1,0.6,1.7c0,1.6-1.3,3-3,3s-3-1.3-3-3C15,17.3,15.2,16.7,15.6,16.2z M24.8,23.1
		c0,0.9-0.7,1.6-1.6,1.6H12.8c-0.9,0-1.6-0.7-1.6-1.6v-7h2.5c-0.2,0.5-0.3,1.1-0.3,1.7c0,2.6,2.1,4.6,4.6,4.6c2.6,0,4.6-2.1,4.6-4.6
		c0-0.6-0.1-1.2-0.3-1.7h2.5V23.1z"/>
</g>
</svg>
