<?xml version="1.0" encoding="utf-8"?>
<!-- Generator: Adobe Illustrator 18.1.1, SVG Export Plug-In . SVG Version: 6.00 Build 0)  -->
<svg version="1.1" id="Layer_1" xmlns="http://www.w3.org/2000/svg" xmlns:xlink="http://www.w3.org/1999/xlink" x="0px" y="0px"
	 viewBox="0 0 36 36" enable-background="new 0 0 36 36" xml:space="preserve">
<g>
	<path fill="#969696" d="M18,35c9.4,0,17-7.6,17-17c0-9.4-7.6-17-17-17C8.6,1,1,8.6,1,18C1,27.4,8.6,35,18,35"/>
	<path id="RSS" fill="#FFFFFF" d="M13.4,22.6c0.4,0.4,0.7,1,0.7,1.6c0,0.6-0.3,1.2-0.7,1.6l0,0c-0.4,0.4-1,0.7-1.6,0.7
		c-0.6,0-1.2-0.3-1.6-0.7c-0.4-0.4-0.7-1-0.7-1.6c0-0.6,0.3-1.2,0.7-1.6v0c0.4-0.4,1-0.7,1.6-0.7C12.4,22,12.9,22.2,13.4,22.6z
		 M13.4,22.6L13.4,22.6L13.4,22.6L13.4,22.6z M10.2,25.8L10.2,25.8C10.2,25.8,10.2,25.8,10.2,25.8L10.2,25.8z M9.5,15.3v3.2
		c2.1,0,4.1,0.8,5.6,2.3c1.5,1.5,2.3,3.5,2.3,5.6l0,0v0h3.3c0-3.1-1.3-5.9-3.3-7.9C15.4,16.5,12.6,15.3,9.5,15.3z M9.5,9.5v3.2
		c7.6,0,13.7,6.2,13.7,13.8h3.3c0-4.7-1.9-8.9-5-12C18.4,11.4,14.2,9.5,9.5,9.5z"/>
</g>
</svg>
