<?xml version="1.0" encoding="utf-8"?>
<!-- Generator: Adobe Illustrator 18.0.0, SVG Export Plug-In . SVG Version: 6.00 Build 0)  -->
<!DOCTYPE svg PUBLIC "-//W3C//DTD SVG 1.1//EN" "http://www.w3.org/Graphics/SVG/1.1/DTD/svg11.dtd">
<svg version="1.1" id="Layer_1" xmlns="http://www.w3.org/2000/svg" xmlns:xlink="http://www.w3.org/1999/xlink" x="0px" y="0px"
	 viewBox="0 0 1224 792" enable-background="new 0 0 1224 792" xml:space="preserve">
<g>
	<path fill="#969696" d="M584.7,19.8c21.6,0,43.2,0,64.8,0c3.6,0.8,7.1,2.1,10.7,2.5C819.1,41.6,946,155.6,981.7,311.4
		c3.8,16.5,6.3,33.3,9.4,50c0,21.6,0,43.2,0,64.8c-0.9,3.6-2.1,7.1-2.5,10.7c-19.5,159.5-133.3,285.8-290.3,321.8
		c-16.1,3.7-32.5,6.1-48.8,9.1c-21.6,0-43.2,0-64.8,0c-3.6-0.8-7.1-2.1-10.7-2.5C415.1,746,288.2,632,252.5,476.2
		c-3.8-16.5-6.3-33.3-9.4-50c0-21.6,0-43.2,0-64.8c0.9-3.6,2.1-7.1,2.5-10.7C265.1,191.2,378.9,64.9,535.9,28.9
		C552,25.2,568.4,22.8,584.7,19.8z M618.1,234.4c0,0.1,0,0.1,0,0.2c-71.8,0-143.7,0-215.5,0c-22.6,0-29.3,6.6-29.3,28.7
		c0,87.2,0,174.4,0,261.6c0,20.8,7,28,27.5,28c144.1,0,288.2,0,432.3,0c20.8,0,28-7,28-27.5c0.1-87.6,0.1-175.3,0-262.9
		c0-21.2-7.1-28.1-28.7-28.1C760.9,234.4,689.5,234.4,618.1,234.4z"/>
	<path fill="#FFFFFF" d="M618.1,234.4c71.4,0,142.9,0,214.3,0c21.6,0,28.7,6.9,28.7,28.1c0.1,87.6,0.1,175.3,0,262.9
		c0,20.5-7.1,27.5-28,27.5c-144.1,0-288.2,0-432.3,0c-20.5,0-27.5-7.2-27.5-28c-0.1-87.2,0-174.4,0-261.6c0-22.1,6.8-28.7,29.3-28.7
		c71.8,0,143.7,0,215.5,0C618.1,234.6,618.1,234.5,618.1,234.4z M427.3,260.1c1.9,3.1,2.2,4,2.8,4.5c59.1,47,118.4,94,177.3,141.2
		c6.1,4.9,9.4,1.8,13.8-1.7c59-45.9,118-91.7,177.2-137.4c2.4-1.9,5.7-2.6,8.6-3.9c-1.1-0.9-2.3-1.8-3.4-2.7
		C678.8,260.1,554,260.1,427.3,260.1z M669.9,396.2c56.3,41,110.8,80.5,166.2,120.8c0-84.3,0-166.1,0-249.9
		C780.1,310.6,725.8,352.7,669.9,396.2z M397.9,269.2c0,83,0,163.3,0,246.2c54.3-40.1,106.8-78.9,160.6-118.7
		C504.7,354,452.2,312.4,397.9,269.2z"/>
	<path fill="#969696" d="M410,531.1c0,0,14.5-6,19.1-9.4c46.1-34.1,92.3-68,138.1-102.4c7.5-5.7,12.4-6.4,20.1-0.1
		c29,23.9,23.5,22.5,52.4,0.3c3.3-2.5,6.6-5,11-8.2c57.6,41.9,172.8,119.7,172.8,119.7H410z"/>
	<path fill="#969696" d="M415.3,260.1H814c0,0-185.5,144.6-189.2,147.9c-5.2,4.6-12.2,5.2-18.2,0.3
		C588.4,396.2,415.3,260.1,415.3,260.1z"/>
	<path fill="#969696" d="M669.9,396.2c56-43.5,110.3-85.6,166.2-129.1c0,83.8,0,165.6,0,249.9C780.6,476.7,726.2,437.1,669.9,396.2z
		"/>
	<path fill="#969696" d="M397.9,269.2c54.4,43.1,106.9,84.8,160.6,127.5c-53.8,39.8-106.3,78.6-160.6,118.7
		C397.9,432.5,397.9,352.3,397.9,269.2z"/>
</g>
</svg>
