<?xml version="1.0" encoding="utf-8"?>
<!-- Generator: Adobe Illustrator 18.1.1, SVG Export Plug-In . SVG Version: 6.00 Build 0)  -->
<svg version="1.1" id="Layer_1" xmlns="http://www.w3.org/2000/svg" xmlns:xlink="http://www.w3.org/1999/xlink" x="0px" y="0px"
	 viewBox="0 0 450 450" enable-background="new 0 0 450 450" xml:space="preserve">
<g>
	<path fill="#969696" d="M225,436.3c117.5,0,212.5-95,212.5-212.5S342.5,11.3,225,11.3s-212.5,95-212.5,212.5S107.5,436.3,225,436.3
		"/>
</g>
<g>
	<g>
		<defs>
			<rect id="SVGID_1_" x="81" y="113.8" width="257" height="220.8"/>
		</defs>
		<clipPath id="SVGID_2_">
			<use xlink:href="#SVGID_1_"  overflow="visible"/>
		</clipPath>
		<path clip-path="url(#SVGID_2_)" fill="#FFFFFF" d="M284.8,126.8c-37.9-19.7-74.9-15.2-112.4,2.2c-5.7,2.6-7.8,5.3-10,9.5
			c-5.1,9.6-8.1,18.7-9.9,26.4c-10.6,12.7-18.2,28.1-21.7,44.9c-5.2,9-9.9,20.8-11.6,35.7c-0.4,3.8-0.3,4-0.3,4s-17.5-2.2-38-13.4
			c4.5,7.3,30.7,16.1,38.2,18.9c0.9,49.1,32.2,65.7,32.2,65.7s-5.6-8.6-6.6-10.1c-16.5-30-13.6-52.1-13.6-52.1
			c0.3,0.1,0.7,0.1,1.1,0.2c11.9,43.7,51.6,75.7,98.6,75.7c3,0,6-0.1,8.9-0.4c7,0.7,13.8,0.2,20.1-2c3.4-1.2,6.9-3.2,10.2-5.5
			c35.1-19.5,50.4-41,61.5-73.9c2.6-8.1,4.1-17.7,5-26.1C341,185.4,321.1,145.7,284.8,126.8L284.8,126.8z M134.8,238.6
			c2.3-8.6,6.7-19.7,14.9-27.6c0.9,24,7.9,45,7.9,45l-20.7-3.4C135.8,248.1,135.1,243.4,134.8,238.6L134.8,238.6z M150.4,177.6
			c-0.6,6.2-0.4,9.9-0.4,9.9c-1.6,1.3-5,4-9,8.4C143.5,189.4,146.7,183.3,150.4,177.6L150.4,177.6z M138.8,260
			c7.4,1.7,17,3.9,21.5,4.6c0,0,13.7,38.4,54.3,62.2c0.4,0.2,0.8,0.3,1.2,0.5C179.3,321.5,149.5,295,138.8,260L138.8,260z
			 M274.1,318.2c-7.2,2.3-18.1,4.1-32.4,1.7c-45.5-11.5-63.8-53.9-63.8-53.9c19.1,0.4,26.2-0.1,39-2c19.7-2.8,39.6-8.2,57.6-16.5
			c5.9-2.8,5.4-9.7,4.8-14.9c-1.1-6.4-5.5-6.1-10.7-2.3c-41,29.3-94.9,26.8-94.9,26.8s-9.5-16-13.5-55.4
			c20.7-17.7,41.6-29.8,84.2-26.3c0.1-3.2,1.5-13.5-10.2-14c-46.8-5.5-73,16.7-73,16.7c1.1-8.2,2.8-14.6,5.5-19.7
			c17.1-15.4,39.6-24.8,64.2-24.8c53.2,0,96.5,43.7,96.5,97.4C327.5,269.2,305.7,302.2,274.1,318.2L274.1,318.2z M274.1,318.2"/>
	</g>
</g>
</svg>
