<?xml version="1.0" encoding="utf-8"?>
<!-- Generator: Adobe Illustrator 19.1.0, SVG Export Plug-In . SVG Version: 6.00 Build 0)  -->
<svg version="1.1" id="Layer_1" xmlns="http://www.w3.org/2000/svg" xmlns:xlink="http://www.w3.org/1999/xlink" x="0px" y="0px"
	 viewBox="-170 82 450 450" style="enable-background:new -170 82 450 450;" xml:space="preserve">
<style type="text/css">
	.st0{fill:#969696;}
	.st1{fill:#FFFFFF;stroke:#FFFFFF;stroke-width:2;stroke-miterlimit:10;}
	.st2{font-family:'SverigeScriptDemo';}
	.st3{font-size:219.8371px;}
	.st4{fill:#FBB03B;}
	.st5{fill:#FCEE21;}
	.st6{fill:#5A698B;}
</style>
<g>
	<path class="st0" d="M55,518.3c117.5,0,212.5-95,212.5-212.5S172.5,93.3,55,93.3s-212.5,95-212.5,212.5S-62.5,518.3,55,518.3"/>
</g>
<text transform="matrix(1 0 0 1 -109.7216 365.8388)" class="st1 st2 st3">M</text>
<g>
	<path class="st4" d="M91.5,141c0,0.9-0.9,4-1.5,4.4c-2,2.4-8.8,1.1-11.4,0.4c-2.4-0.9-4.4-2.4-6.8-3.5c-2-1.1-6.8-1.5-7-4.4
		c0-0.9,0-1.1,0-1.5c1.5-3.5,9.5-2.9,12.3-2.4c3.5,0.4,7.5,2,10.8,3.5C88.9,137.9,91.5,139,91.5,141z"/>
	<path class="st4" d="M76.1,105.3c0.9,1.1,0,4,0,5.5c-0.4,4.4-1.5,8.8-4.4,12.3c-0.9,1.1-2,2.4-3.1,3.1c-1.1,0.9-2.9,2-4,2.9
		c-0.9,0.4-1.5,0-2-0.9c-0.4-0.4-0.4-0.4-0.9-0.9c-1.5-1.5-1.1-4-0.9-6.4c0.9-2.4,1.1-4.8,2-7c0.9-2,0.9-4.4,1.5-6.8
		c1.1-4,3.1-5.1,7-4C73,103.8,75.5,104.2,76.1,105.3z"/>
	<path class="st4" d="M71.1,154.2c1.5,4.4,4.8,8.4,3.5,13.4c-0.4,1.5-1.1,2.4-2.9,3.1c-1.1,0.9-2.4,2-4,2c-2.4,0-3.5-3.1-4.8-4.8
		c-2-2.9-3.5-5.1-4-8.8c-0.4-2.9-1.1-5.9-1.1-8.8c0-2,0.4-4.8,2.4-5.5c0.4-0.4,1.1-0.4,2.4,0C67.1,146.9,69.1,149.8,71.1,154.2z"/>
	<path class="st5" d="M58.3,130.4c3.1,0.9,4.4,5.5,3.1,9c-2,4.8-8.4,3.5-10.8,0C46.4,133.5,53.7,128.9,58.3,130.4z"/>
	<path class="st4" d="M52.8,120.5c0.9,1.5,2,4.4,0.9,6.4c-0.4,0.9-0.9,0.9-1.1,1.1c-1.5,0.9-4-1.1-5.1-2.4c-2-1.5-4-2.9-5.9-4.8
		c-4.4-4-9.5-8.8-4.4-14.7c2.9-3.1,4.4-1.5,6.8,0.9c1.5,1.5,3.1,3.5,4.4,5.9C49.7,115.7,51.3,118.1,52.8,120.5z"/>
	<path class="st4" d="M50.8,143.8c1.1,1.1,1.5,2.9,1.5,4.4c0,2.9-0.4,5.9-2,7.9c-1.5,2-4,3.1-5.5,4.8c-2.4,2.4-7,4-7.5-0.9
		c-0.4-4,0.4-7.9,2.9-11C42,146.9,47.3,140.7,50.8,143.8z"/>
	<path class="st4" d="M38,130.4c3.1,1.1,8.8,1.1,8.4,5.9c0,0.4,0,0.4,0,0.4c-0.4,0.9-3.1,1.1-4,1.5c-2,0.9-4,2-5.9,3.1
		c-2.4,1.1-5.1,0.4-7,0.4c-2.4,0-4.8,0.4-7-0.4c-4-1.1-4.8-5.1-3.1-8.8c0.9-1.5,2-2,3.5-2.4c2.4-0.4,4.8-1.5,7-2
		C32.5,128,35.8,129.1,38,130.4z"/>
</g>
<g>
	<path class="st4" d="M207.6,423.7c0,0.9-0.9,4-1.5,4.4c-2,2.4-8.8,1.1-11.4,0.4c-2.4-0.9-4.4-2.4-6.8-3.5c-2-1.1-6.8-1.5-7-4.4
		c0-0.9,0-1.1,0-1.5c1.5-3.5,9.5-2.9,12.3-2.4c3.5,0.4,7.5,2,10.8,3.5C204.9,420.6,207.6,421.7,207.6,423.7z"/>
	<path class="st4" d="M192.2,388.1c0.9,1.1,0,4,0,5.5c-0.4,4.4-1.5,8.8-4.4,12.3c-0.9,1.1-2,2.4-3.1,3.1c-1.1,0.9-2.9,2-4,2.9
		c-0.9,0.4-1.5,0-2-0.9c-0.4-0.4-0.4-0.4-0.9-0.9c-1.5-1.5-1.1-4-0.9-6.4c0.9-2.4,1.1-4.8,2-7c0.9-2,0.9-4.4,1.5-6.8
		c1.1-4,3.1-5.1,7-4C189.1,386.5,191.5,387,192.2,388.1z"/>
	<path class="st4" d="M187.1,436.9c1.5,4.4,4.8,8.4,3.5,13.4c-0.4,1.5-1.1,2.4-2.9,3.1c-1.1,0.9-2.4,2-4,2c-2.4,0-3.5-3.1-4.8-4.8
		c-2-2.9-3.5-5.1-4-8.8c-0.4-2.9-1.1-5.9-1.1-8.8c0-2,0.4-4.8,2.4-5.5c0.4-0.4,1.1-0.4,2.4,0C183.1,429.7,185.1,432.5,187.1,436.9z"
		/>
	<path class="st5" d="M174.3,413.2c3.1,0.9,4.4,5.5,3.1,9c-2,4.8-8.4,3.5-10.8,0C162.4,416.2,169.7,411.6,174.3,413.2z"/>
	<path class="st4" d="M168.8,403.3c0.9,1.5,2,4.4,0.9,6.4c-0.4,0.9-0.9,0.9-1.1,1.1c-1.5,0.9-4-1.1-5.1-2.4c-2-1.5-4-2.9-5.9-4.8
		c-4.4-4-9.5-8.8-4.4-14.7c2.9-3.1,4.4-1.5,6.8,0.9c1.5,1.5,3.1,3.5,4.4,5.9C165.7,398.4,167.3,400.8,168.8,403.3z"/>
	<path class="st4" d="M166.8,426.6c1.1,1.1,1.5,2.9,1.5,4.4c0,2.9-0.4,5.9-2,7.9c-1.5,2-4,3.1-5.5,4.8c-2.4,2.4-7,4-7.5-0.9
		c-0.4-4,0.4-7.9,2.9-11C158,429.7,163.3,423.5,166.8,426.6z"/>
	<path class="st4" d="M154.1,413.2c3.1,1.1,8.8,1.1,8.4,5.9c0,0.4,0,0.4,0,0.4c-0.4,0.9-3.1,1.1-4,1.5c-2,0.9-4,2-5.9,3.1
		c-2.4,1.1-5.1,0.4-7,0.4c-2.4,0-4.8,0.4-7-0.4c-4-1.1-4.8-5.1-3.1-8.8c0.9-1.5,2-2,3.5-2.4c2.4-0.4,4.8-1.5,7-2
		C148.6,410.7,151.9,411.8,154.1,413.2z"/>
</g>
<g>
	<path class="st4" d="M-78.1,310.3c0,0.9-0.9,4-1.5,4.4c-2,2.4-8.8,1.1-11.4,0.4c-2.4-0.9-4.4-2.4-6.8-3.5c-2-1.1-6.8-1.5-7-4.4
		c0-0.9,0-1.1,0-1.5c1.5-3.5,9.5-2.9,12.3-2.4c3.5,0.4,7.5,2,10.8,3.5C-80.7,307.2-78.1,308.3-78.1,310.3z"/>
	<path class="st4" d="M-93.5,274.6c0.9,1.1,0,4,0,5.5c-0.4,4.4-1.5,8.8-4.4,12.3c-0.9,1.1-2,2.4-3.1,3.1c-1.1,0.9-2.9,2-4,2.9
		c-0.9,0.4-1.5,0-2-0.9c-0.4-0.4-0.4-0.4-0.9-0.9c-1.5-1.5-1.1-4-0.9-6.4c0.9-2.4,1.1-4.8,2-7c0.9-2,0.9-4.4,1.5-6.8
		c1.1-4,3.1-5.1,7-4C-96.6,273.1-94.1,273.5-93.5,274.6z"/>
	<path class="st4" d="M-98.5,323.5c1.5,4.4,4.8,8.4,3.5,13.4c-0.4,1.5-1.1,2.4-2.9,3.1c-1.1,0.9-2.4,2-4,2c-2.4,0-3.5-3.1-4.8-4.8
		c-2-2.9-3.5-5.1-4-8.8c-0.4-2.9-1.1-5.9-1.1-8.8c0-2,0.4-4.8,2.4-5.5c0.4-0.4,1.1-0.4,2.4,0C-102.5,316.2-100.5,319.1-98.5,323.5z"
		/>
	<path class="st5" d="M-111.3,299.7c3.1,0.9,4.4,5.5,3.1,9c-2,4.8-8.4,3.5-10.8,0C-123.2,302.8-115.9,298.2-111.3,299.7z"/>
	<path class="st4" d="M-116.8,289.8c0.9,1.5,2,4.4,0.9,6.4c-0.4,0.9-0.9,0.9-1.1,1.1c-1.5,0.9-4-1.1-5.1-2.4c-2-1.5-4-2.9-5.9-4.8
		c-4.4-4-9.5-8.8-4.4-14.7c2.9-3.1,4.4-1.5,6.8,0.9c1.5,1.5,3.1,3.5,4.4,5.9C-119.9,285-118.3,287.4-116.8,289.8z"/>
	<path class="st4" d="M-118.8,313.1c1.1,1.1,1.5,2.9,1.5,4.4c0,2.9-0.4,5.9-2,7.9c-1.5,2-4,3.1-5.5,4.8c-2.4,2.4-7,4-7.5-0.9
		c-0.4-4,0.4-7.9,2.9-11C-127.6,316.2-122.3,310.1-118.8,313.1z"/>
	<path class="st4" d="M-131.5,299.7c3.1,1.1,8.8,1.1,8.4,5.9c0,0.4,0,0.4,0,0.4c-0.4,0.9-3.1,1.1-4,1.5c-2,0.9-4,2-5.9,3.1
		c-2.4,1.1-5.1,0.4-7,0.4c-2.4,0-4.8,0.4-7-0.4c-4-1.1-4.8-5.1-3.1-8.8c0.9-1.5,2-2,3.5-2.4c2.4-0.4,4.8-1.5,7-2
		C-137,297.3-133.7,298.4-131.5,299.7z"/>
</g>
<path class="st6" d="M-40.2,174.7c14.3,11.9-15,12.3-9.9,22.2c3.1,5.9,13,2,10.8,11.9c-1.1,5.5-8.4,12.3-14.3,11.9
	c-5.9,0-5.1-4-7.9-6.8c-9.5-9-9,18.3-23.8,5.5c-7.9-7,0.4-8.8,4.8-13.4c4.8-4.8,2-7-3.5-7c-3.5,0-17.4,4-18.7-3.1
	c-1.5-8.4,14.7-8.8,18.9-7.9c18.9,2.9-1.5-8.8,4.4-17.8c3.1-4.8,9.5-7,13.9-1.5c3.5,4.8-2.4,10.8,0.4,14.3
	C-59.8,191-52.1,164.8-40.2,174.7z M-61.8,204.8c7.5-4,0.9-18.3-6.8-11.9C-74.8,198.2-69.7,208.8-61.8,204.8z"/>
<path class="st6" d="M47.8,450.7c14.3,11.9-15,12.3-9.9,22.2c3.1,5.9,13,2,10.8,11.9c-1.1,5.5-8.4,12.3-14.3,11.9
	c-5.9,0-5.1-4-7.9-6.8c-9.5-9-9,18.3-23.8,5.5c-7.9-7,0.4-8.8,4.8-13.4c4.8-4.8,2-7-3.5-7c-3.5,0-17.4,4-18.7-3.1
	c-1.5-8.4,14.7-8.8,18.9-7.9c18.9,2.9-1.5-8.8,4.4-17.8c3.1-4.8,9.5-7,13.9-1.5c3.5,4.8-2.4,10.8,0.4,14.3
	C28.2,467,35.9,440.8,47.8,450.7z M26.2,480.8c7.5-4,0.9-18.3-6.8-11.9C13.2,474.2,18.3,484.8,26.2,480.8z"/>
<path class="st6" d="M250.8,282.5c-5.1,17.6-17-8.6-24-0.2c-4.1,5.1,3.3,12.5-6.5,14.4c-5.4,1.2-14.4-2.7-16.4-8.2
	c-2.3-5.4,1.6-6.1,3-9.8c4.4-12.1-20-0.9-14.3-19.3c3.2-9.9,8.1-3.1,14-0.9c6.3,2.5,7.1-1,5-6c-1.4-3.2-10.4-14.1-4.6-18.1
	c6.9-4.7,13.8,9.8,14.6,14c4.9,18.2,7.3-4.9,17.8-3.1c5.6,0.9,10.1,5.8,6.9,11.9c-3,5.1-10.7,2.1-12.7,6
	C228.3,271.2,255,267.8,250.8,282.5z M215,274.9c6.5,5.2,16.8-6.4,8-10.8C215.9,260.6,208.3,269.3,215,274.9z"/>
</svg>
